<svg xmlns="http://www.w3.org/2000/svg" xmlns:xlink="http://www.w3.org/1999/xlink" width="400" height="583" viewBox="0 0 400 583">
  <defs>
    <clipPath id="clip-path">
      <rect id="Rectángulo_384427" data-name="Rectángulo 384427" width="162.437" height="161.963" fill="none"/>
    </clipPath>
    <clipPath id="clip-path-2">
      <rect id="Rectángulo_384424" data-name="Rectángulo 384424" width="31.303" height="39.634" fill="none"/>
    </clipPath>
    <clipPath id="clip-path-3">
      <rect id="Rectángulo_384425" data-name="Rectángulo 384425" width="35.515" height="43.43" fill="none"/>
    </clipPath>
    <clipPath id="clip-path-4">
      <rect id="Rectángulo_384426" data-name="Rectángulo 384426" width="40.83" height="38.945" fill="none"/>
    </clipPath>
  </defs>
  <g id="Grupo_1083346" data-name="Grupo 1083346" transform="translate(-180 -1428)">
    <path id="Trazado_832752" data-name="Trazado 832752" d="M-8629-10179h116.9v44.4" transform="translate(8999 11700)" fill="none" stroke="#707070" stroke-linecap="round" stroke-linejoin="round" stroke-width="7"/>
    <path id="Trazado_832753" data-name="Trazado 832753" d="M-8638.267-10179H-8512.1v44.4" transform="translate(8999 11964.6)" fill="none" stroke="#707070" stroke-linecap="round" stroke-linejoin="round" stroke-width="7"/>
    <path id="Trazado_832754" data-name="Trazado 832754" d="M-8512.1-10179h-126.167v44.4" transform="translate(8913.768 11848.6)" fill="none" stroke="#707070" stroke-linecap="round" stroke-linejoin="round" stroke-width="7"/>
    <path id="Trazado_834144" data-name="Trazado 834144" d="M95,0A95,95,0,1,1,0,95,95,95,0,0,1,95,0Z" transform="translate(180 1428)" fill="#e6ebfb"/>
    <path id="Trazado_834145" data-name="Trazado 834145" d="M95,0A95,95,0,1,1,0,95,95,95,0,0,1,95,0Z" transform="translate(390 1565)" fill="#939eba"/>
    <path id="Trazado_834146" data-name="Trazado 834146" d="M95,0A95,95,0,1,1,0,95,95,95,0,0,1,95,0Z" transform="translate(180 1714)" fill="#9ead8a"/>
    <path id="Trazado_834147" data-name="Trazado 834147" d="M95,0A95,95,0,1,1,0,95,95,95,0,0,1,95,0Z" transform="translate(390 1821)" fill="#b78d83"/>
    <g id="Grupo_1082726" data-name="Grupo 1082726" transform="translate(193.363 1442.448)">
      <g id="Grupo_1082725" data-name="Grupo 1082725" clip-path="url(#clip-path)">
        <path id="Trazado_832749" data-name="Trazado 832749" d="M56.117,26.5A62.829,62.829,0,0,1,145.59,56.631l11.773,3.66,5.054-10.866a80.985,80.985,0,0,0-124.8-31.978l11.329,2.061.011,11.817A63.545,63.545,0,0,1,56.117,26.5" transform="translate(-6.615 0)" fill="#c1cdf5"/>
        <path id="Trazado_832750" data-name="Trazado 832750" d="M49.656,142.364A62.835,62.835,0,0,1,31.018,49.808L28.3,37.784,16.363,38.841a80.988,80.988,0,0,0,34.7,124.067l-3.879-10.842,10.228-5.917a63.55,63.55,0,0,1-7.76-3.785" transform="translate(0 -6.644)" fill="#cadeb4"/>
        <path id="Trazado_832751" data-name="Trazado 832751" d="M158.271,95.541A62.831,62.831,0,0,1,87.437,157.96l-9.057,8.365,6.886,9.811a80.984,80.984,0,0,0,90.091-92.089l-7.449,8.78-10.239-5.9a63.468,63.468,0,0,1,.6,8.614" transform="translate(-13.784 -14.78)" fill="#f9bcab"/>
      </g>
    </g>
    <path id="Trazado_834148" data-name="Trazado 834148" d="M43.816,13.594a4.409,4.409,0,0,1-1.852,1.133,7.986,7.986,0,0,1-2.672.43,4.764,4.764,0,0,1-3.57-1.367,5.534,5.534,0,0,1-1.43-3.8L34.285,9a6.788,6.788,0,0,1,.594-2.934,4.409,4.409,0,0,1,1.7-1.93,4.807,4.807,0,0,1,2.559-.676,5.039,5.039,0,0,1,3.3.973,4.121,4.121,0,0,1,1.371,2.9H41.168a2.157,2.157,0,0,0-.609-1.359A1.966,1.966,0,0,0,39.23,5.57a1.789,1.789,0,0,0-1.594.875,4.672,4.672,0,0,0-.57,2.5v.688a4.574,4.574,0,0,0,.582,2.559,2.059,2.059,0,0,0,1.832.855,2.3,2.3,0,0,0,1.594-.477V10.8H39.168V8.922h4.648Zm5.563,1.563A4.345,4.345,0,0,1,46.23,14a4.006,4.006,0,0,1-1.2-3.02v-.219a5.191,5.191,0,0,1,.48-2.289,3.516,3.516,0,0,1,1.4-1.535A4.233,4.233,0,0,1,49.1,6.391,3.659,3.659,0,0,1,51.91,7.5a4.344,4.344,0,0,1,1.031,3.082V11.6H47.707a1.9,1.9,0,0,0,.617,1.117,1.836,1.836,0,0,0,1.234.406,2.366,2.366,0,0,0,1.953-.875l1.2,1.422a3.363,3.363,0,0,1-1.395,1.082A4.713,4.713,0,0,1,49.379,15.156Zm-.3-6.734q-1.156,0-1.375,1.531h2.656v-.2a1.3,1.3,0,0,0-.32-.98A1.275,1.275,0,0,0,49.082,8.422Zm9.344,4.2a.608.608,0,0,0-.352-.539,5.348,5.348,0,0,0-1.336-.422,6.092,6.092,0,0,1-1.625-.574,2.722,2.722,0,0,1-.977-.863A2.061,2.061,0,0,1,53.8,9.063a2.336,2.336,0,0,1,.961-1.918,3.958,3.958,0,0,1,2.516-.754,4.386,4.386,0,0,1,2.688.758A2.37,2.37,0,0,1,60.98,9.141H58.34q0-1.016-1.07-1.016a1.061,1.061,0,0,0-.7.23.714.714,0,0,0-.281.574.655.655,0,0,0,.344.57,3.248,3.248,0,0,0,1.1.359,9.485,9.485,0,0,1,1.324.336,2.406,2.406,0,0,1,1.906,2.352,2.214,2.214,0,0,1-1.027,1.883,4.505,4.505,0,0,1-2.66.727,4.6,4.6,0,0,1-1.937-.391A3.24,3.24,0,0,1,54.012,13.7a2.406,2.406,0,0,1-.477-1.414H56a1.017,1.017,0,0,0,.391.855,1.607,1.607,0,0,0,.961.27,1.264,1.264,0,0,0,.809-.219A.7.7,0,0,0,58.426,12.625Zm6.836-8.18v2.1h1.391V8.375H65.262v3.867a.987.987,0,0,0,.172.664.922.922,0,0,0,.68.188,3.862,3.862,0,0,0,.656-.047V14.93a4.859,4.859,0,0,1-1.484.227,2.758,2.758,0,0,1-2.008-.641,2.626,2.626,0,0,1-.648-1.945v-4.2H61.551V6.547h1.078v-2.1ZM70.465,15H67.824V6.547h2.641Zm-2.8-10.633a1.175,1.175,0,0,1,.406-.922,1.727,1.727,0,0,1,2.109,0,1.175,1.175,0,0,1,.406.922,1.175,1.175,0,0,1-.406.922,1.727,1.727,0,0,1-2.109,0A1.175,1.175,0,0,1,67.668,4.367ZM71.754,10.7a4.989,4.989,0,0,1,.492-2.254,3.52,3.52,0,0,1,1.414-1.52,4.259,4.259,0,0,1,2.164-.531,3.887,3.887,0,0,1,2.992,1.176,4.512,4.512,0,0,1,1.094,3.2v.094A4.378,4.378,0,0,1,78.813,14a3.9,3.9,0,0,1-2.973,1.16,3.942,3.942,0,0,1-2.9-1.082,4.232,4.232,0,0,1-1.18-2.934Zm2.633.164a3.145,3.145,0,0,0,.367,1.719,1.223,1.223,0,0,0,1.086.547q1.406,0,1.438-2.164V10.7q0-2.273-1.453-2.273-1.32,0-1.43,1.961ZM76.184,3h2.781L76.793,5.453l-2.148,0Zm7.3,3.547.086.992a2.867,2.867,0,0,1,2.414-1.148,2.412,2.412,0,0,1,1.973.789,3.757,3.757,0,0,1,.676,2.375V15H86V9.664a1.426,1.426,0,0,0-.258-.941,1.193,1.193,0,0,0-.937-.3,1.256,1.256,0,0,0-1.148.609V15H81.02V6.547ZM15.184,40a2.973,2.973,0,0,1-.25-.758,2.448,2.448,0,0,1-2.031.914,3,3,0,0,1-2.031-.723,2.3,2.3,0,0,1-.836-1.816,2.364,2.364,0,0,1,1.016-2.078,5.174,5.174,0,0,1,2.953-.7h.813v-.448q0-1.17-1.008-1.17a.824.824,0,0,0-.937.926H10.238a2.36,2.36,0,0,1,1.043-1.99,4.383,4.383,0,0,1,2.66-.765,3.843,3.843,0,0,1,2.555.789,2.743,2.743,0,0,1,.961,2.164v3.742a3.832,3.832,0,0,0,.359,1.781V40Zm-1.648-1.719a1.469,1.469,0,0,0,.816-.211,1.322,1.322,0,0,0,.465-.477V36.242h-.766q-1.375,0-1.375,1.234a.754.754,0,0,0,.242.582A.876.876,0,0,0,13.535,38.281Zm5.047-2.57a5.164,5.164,0,0,1,.867-3.164,2.854,2.854,0,0,1,2.422-1.156,2.428,2.428,0,0,1,1.906.891V28h2.641V40H24.051l-.133-.906a2.493,2.493,0,0,1-2.062,1.063A2.849,2.849,0,0,1,19.465,39,5.327,5.327,0,0,1,18.582,35.711Zm2.633.164q0,2.25,1.313,2.25a1.3,1.3,0,0,0,1.25-.734V34.172a1.261,1.261,0,0,0-1.234-.75q-1.219,0-1.32,1.969ZM30.4,31.547l.086.992A2.906,2.906,0,0,1,32.9,31.391a2.14,2.14,0,0,1,2.164,1.273,2.813,2.813,0,0,1,2.484-1.273q2.57,0,2.641,3.109V40H37.551V34.664a1.611,1.611,0,0,0-.219-.945.931.931,0,0,0-.8-.3,1.247,1.247,0,0,0-1.164.7l.008.109V40H32.738V34.68a1.694,1.694,0,0,0-.211-.961.929.929,0,0,0-.8-.3,1.263,1.263,0,0,0-1.156.7V40H27.934V31.547ZM44.473,40H41.832V31.547h2.641Zm-2.8-10.633a1.175,1.175,0,0,1,.406-.922,1.727,1.727,0,0,1,2.109,0,1.249,1.249,0,0,1,0,1.844,1.727,1.727,0,0,1-2.109,0A1.175,1.175,0,0,1,41.676,29.367Zm6.836,2.18.086.992a2.867,2.867,0,0,1,2.414-1.148,2.412,2.412,0,0,1,1.973.789,3.757,3.757,0,0,1,.676,2.375V40H51.02V34.664a1.426,1.426,0,0,0-.258-.941,1.193,1.193,0,0,0-.937-.3,1.256,1.256,0,0,0-1.148.609V40H46.043V31.547ZM57.895,40H55.254V31.547h2.641ZM55.1,29.367a1.175,1.175,0,0,1,.406-.922,1.727,1.727,0,0,1,2.109,0,1.249,1.249,0,0,1,0,1.844,1.727,1.727,0,0,1-2.109,0A1.175,1.175,0,0,1,55.1,29.367Zm8.844,8.258a.608.608,0,0,0-.352-.539,5.347,5.347,0,0,0-1.336-.422,6.092,6.092,0,0,1-1.625-.574,2.722,2.722,0,0,1-.977-.863,2.061,2.061,0,0,1-.336-1.164,2.336,2.336,0,0,1,.961-1.918,3.958,3.958,0,0,1,2.516-.754,4.386,4.386,0,0,1,2.688.758A2.37,2.37,0,0,1,66.5,34.141H63.855q0-1.016-1.07-1.016a1.061,1.061,0,0,0-.7.23.714.714,0,0,0-.281.574.655.655,0,0,0,.344.57,3.248,3.248,0,0,0,1.1.359,9.486,9.486,0,0,1,1.324.336,2.406,2.406,0,0,1,1.906,2.352,2.214,2.214,0,0,1-1.027,1.883,4.505,4.505,0,0,1-2.66.727,4.6,4.6,0,0,1-1.937-.391A3.24,3.24,0,0,1,59.527,38.7a2.406,2.406,0,0,1-.477-1.414h2.461a1.017,1.017,0,0,0,.391.855,1.607,1.607,0,0,0,.961.27,1.264,1.264,0,0,0,.809-.219A.7.7,0,0,0,63.941,37.625Zm6.836-8.18v2.1h1.391v1.828H70.777v3.867a.987.987,0,0,0,.172.664.922.922,0,0,0,.68.188,3.862,3.862,0,0,0,.656-.047V39.93a4.859,4.859,0,0,1-1.484.227,2.758,2.758,0,0,1-2.008-.641,2.626,2.626,0,0,1-.648-1.945v-4.2H67.066V31.547h1.078v-2.1Zm7.539,4.484-.867-.062a1.558,1.558,0,0,0-1.594.781V40H73.223V31.547h2.469l.086,1.086a2.039,2.039,0,0,1,1.852-1.242,2.567,2.567,0,0,1,.734.094ZM83.793,40a2.973,2.973,0,0,1-.25-.758,2.448,2.448,0,0,1-2.031.914,3,3,0,0,1-2.031-.723,2.3,2.3,0,0,1-.836-1.816,2.364,2.364,0,0,1,1.016-2.078,5.174,5.174,0,0,1,2.953-.7h.813v-.448q0-1.17-1.008-1.17a.824.824,0,0,0-.937.926H78.848a2.36,2.36,0,0,1,1.043-1.99,4.383,4.383,0,0,1,2.66-.765,3.843,3.843,0,0,1,2.555.789,2.743,2.743,0,0,1,.961,2.164v3.742a3.832,3.832,0,0,0,.359,1.781V40Zm-1.648-1.719a1.469,1.469,0,0,0,.816-.211,1.322,1.322,0,0,0,.465-.477V36.242H82.66q-1.375,0-1.375,1.234a.754.754,0,0,0,.242.582A.876.876,0,0,0,82.145,38.281Zm8.445-8.836v2.1H91.98v1.828H90.59v3.867a.987.987,0,0,0,.172.664.922.922,0,0,0,.68.188,3.862,3.862,0,0,0,.656-.047V39.93a4.859,4.859,0,0,1-1.484.227,2.758,2.758,0,0,1-2.008-.641,2.626,2.626,0,0,1-.648-1.945v-4.2H86.879V31.547h1.078v-2.1ZM95.793,40H93.152V31.547h2.641ZM93,29.367a1.175,1.175,0,0,1,.406-.922,1.727,1.727,0,0,1,2.109,0,1.249,1.249,0,0,1,0,1.844,1.727,1.727,0,0,1-2.109,0A1.175,1.175,0,0,1,93,29.367Zm7.789,7.5,1.336-5.32h2.773L102.137,40H99.449l-2.758-8.453h2.781ZM110.324,40a2.973,2.973,0,0,1-.25-.758,2.448,2.448,0,0,1-2.031.914,3,3,0,0,1-2.031-.723,2.3,2.3,0,0,1-.836-1.816,2.364,2.364,0,0,1,1.016-2.078,5.174,5.174,0,0,1,2.953-.7h.813v-.448q0-1.17-1.008-1.17a.824.824,0,0,0-.937.926h-2.633a2.36,2.36,0,0,1,1.043-1.99,4.383,4.383,0,0,1,2.66-.765,3.843,3.843,0,0,1,2.555.789,2.743,2.743,0,0,1,.961,2.164v3.742a3.832,3.832,0,0,0,.359,1.781V40Zm-1.648-1.719a1.469,1.469,0,0,0,.816-.211,1.322,1.322,0,0,0,.465-.477V36.242h-.766q-1.375,0-1.375,1.234a.754.754,0,0,0,.242.582A.876.876,0,0,0,108.676,38.281Z" transform="translate(214 1499)" fill="#12263f"/>
    <path id="Trazado_834149" data-name="Trazado 834149" d="M79.5,0A79.5,79.5,0,1,1,0,79.5,79.5,79.5,0,0,1,79.5,0Z" transform="translate(196 1730)" fill="#cadeb4"/>
    <path id="Trazado_834150" data-name="Trazado 834150" d="M79.5,0A79.5,79.5,0,1,1,0,79.5,79.5,79.5,0,0,1,79.5,0Z" transform="translate(405 1837)" fill="#f9bcab"/>
    <path id="Trazado_834151" data-name="Trazado 834151" d="M13.477,11.141V15H10.734V3.625h4.539a5.287,5.287,0,0,1,2.309.48,3.621,3.621,0,0,1,1.555,1.367,3.734,3.734,0,0,1,.551,2.012,3.291,3.291,0,0,1-1.191,2.66,4.943,4.943,0,0,1-3.27,1Zm0-2.117h1.8a1.7,1.7,0,0,0,1.215-.4A1.48,1.48,0,0,0,16.906,7.5a1.83,1.83,0,0,0-.43-1.273A1.522,1.522,0,0,0,15.3,5.742H13.477ZM26.141,8.93l-.867-.062a1.558,1.558,0,0,0-1.594.781V15H21.047V6.547h2.469L23.6,7.633a2.039,2.039,0,0,1,1.852-1.242,2.567,2.567,0,0,1,.734.094Zm4.891,6.227A4.345,4.345,0,0,1,27.883,14a4.006,4.006,0,0,1-1.2-3.02v-.219a5.191,5.191,0,0,1,.48-2.289,3.516,3.516,0,0,1,1.4-1.535,4.233,4.233,0,0,1,2.188-.543A3.659,3.659,0,0,1,33.563,7.5a4.344,4.344,0,0,1,1.031,3.082V11.6H29.359a1.9,1.9,0,0,0,.617,1.117,1.836,1.836,0,0,0,1.234.406,2.366,2.366,0,0,0,1.953-.875l1.2,1.422a3.363,3.363,0,0,1-1.395,1.082A4.713,4.713,0,0,1,31.031,15.156Zm-.3-6.734q-1.156,0-1.375,1.531h2.656v-.2a1.3,1.3,0,0,0-.32-.98A1.275,1.275,0,0,0,30.734,8.422Zm8.188,3.445,1.336-5.32h2.773L40.273,15H37.586L34.828,6.547h2.781ZM47.8,15.156A4.345,4.345,0,0,1,44.656,14a4.006,4.006,0,0,1-1.2-3.02v-.219a5.191,5.191,0,0,1,.48-2.289,3.516,3.516,0,0,1,1.4-1.535,4.233,4.233,0,0,1,2.188-.543A3.659,3.659,0,0,1,50.336,7.5a4.344,4.344,0,0,1,1.031,3.082V11.6H46.133a1.9,1.9,0,0,0,.617,1.117,1.836,1.836,0,0,0,1.234.406,2.366,2.366,0,0,0,1.953-.875l1.2,1.422a3.363,3.363,0,0,1-1.395,1.082A4.713,4.713,0,0,1,47.8,15.156Zm-.3-6.734q-1.156,0-1.375,1.531h2.656v-.2a1.3,1.3,0,0,0-.32-.98A1.275,1.275,0,0,0,47.508,8.422Zm7.336-1.875.086.992a2.867,2.867,0,0,1,2.414-1.148,2.412,2.412,0,0,1,1.973.789,3.757,3.757,0,0,1,.676,2.375V15H57.352V9.664a1.426,1.426,0,0,0-.258-.941,1.193,1.193,0,0,0-.937-.3,1.256,1.256,0,0,0-1.148.609V15H52.375V6.547Zm10.18,6.578a1.171,1.171,0,0,0,.859-.3,1.1,1.1,0,0,0,.3-.84h2.469a2.922,2.922,0,0,1-1,2.281,3.705,3.705,0,0,1-2.566.891A3.751,3.751,0,0,1,62.18,14a4.556,4.556,0,0,1-1.062-3.2v-.109a5.149,5.149,0,0,1,.473-2.262,3.441,3.441,0,0,1,1.363-1.508,4.065,4.065,0,0,1,2.109-.527A3.658,3.658,0,0,1,67.68,7.3a3.242,3.242,0,0,1,.969,2.477H66.18a1.445,1.445,0,0,0-.32-1.008A1.106,1.106,0,0,0,65,8.422q-1.023,0-1.2,1.3a9.206,9.206,0,0,0-.055,1.141,3.616,3.616,0,0,0,.3,1.766A1.055,1.055,0,0,0,65.023,13.125ZM72.539,15H69.9V6.547h2.641Zm-2.8-10.633a1.175,1.175,0,0,1,.406-.922,1.727,1.727,0,0,1,2.109,0,1.175,1.175,0,0,1,.406.922,1.175,1.175,0,0,1-.406.922,1.727,1.727,0,0,1-2.109,0A1.175,1.175,0,0,1,69.742,4.367ZM73.828,10.7a4.989,4.989,0,0,1,.492-2.254,3.52,3.52,0,0,1,1.414-1.52A4.259,4.259,0,0,1,77.9,6.391a3.887,3.887,0,0,1,2.992,1.176,4.512,4.512,0,0,1,1.094,3.2v.094A4.378,4.378,0,0,1,80.887,14a3.9,3.9,0,0,1-2.973,1.16,3.942,3.942,0,0,1-2.9-1.082,4.232,4.232,0,0,1-1.18-2.934Zm2.633.164a3.145,3.145,0,0,0,.367,1.719,1.223,1.223,0,0,0,1.086.547q1.406,0,1.438-2.164V10.7q0-2.273-1.453-2.273-1.32,0-1.43,1.961ZM78.258,3h2.781L78.867,5.453l-2.148,0Zm7.3,3.547.086.992a2.867,2.867,0,0,1,2.414-1.148,2.412,2.412,0,0,1,1.973.789,3.757,3.757,0,0,1,.676,2.375V15H88.07V9.664a1.426,1.426,0,0,0-.258-.941,1.193,1.193,0,0,0-.937-.3,1.256,1.256,0,0,0-1.148.609V15H83.094V6.547ZM95.82,10.711a5.164,5.164,0,0,1,.867-3.164,2.854,2.854,0,0,1,2.422-1.156,2.428,2.428,0,0,1,1.906.891V3h2.641V15h-2.367l-.133-.906a2.493,2.493,0,0,1-2.062,1.063A2.849,2.849,0,0,1,96.7,14,5.327,5.327,0,0,1,95.82,10.711Zm2.633.164q0,2.25,1.313,2.25a1.3,1.3,0,0,0,1.25-.734V9.172a1.261,1.261,0,0,0-1.234-.75q-1.219,0-1.32,1.969Zm10.789,4.281A4.345,4.345,0,0,1,106.094,14a4.006,4.006,0,0,1-1.2-3.02v-.219a5.191,5.191,0,0,1,.48-2.289,3.516,3.516,0,0,1,1.4-1.535,4.233,4.233,0,0,1,2.188-.543A3.659,3.659,0,0,1,111.773,7.5a4.344,4.344,0,0,1,1.031,3.082V11.6H107.57a1.9,1.9,0,0,0,.617,1.117,1.836,1.836,0,0,0,1.234.406,2.366,2.366,0,0,0,1.953-.875l1.2,1.422a3.363,3.363,0,0,1-1.395,1.082A4.713,4.713,0,0,1,109.242,15.156Zm-.3-6.734q-1.156,0-1.375,1.531h2.656v-.2a1.3,1.3,0,0,0-.32-.98A1.275,1.275,0,0,0,108.945,8.422Zm-83.895,24.2a.608.608,0,0,0-.352-.539,5.348,5.348,0,0,0-1.336-.422,6.092,6.092,0,0,1-1.625-.574,2.722,2.722,0,0,1-.977-.863,2.061,2.061,0,0,1-.336-1.164,2.336,2.336,0,0,1,.961-1.918,3.958,3.958,0,0,1,2.516-.754,4.386,4.386,0,0,1,2.688.758,2.37,2.37,0,0,1,1.016,1.992H24.965q0-1.016-1.07-1.016a1.061,1.061,0,0,0-.7.23.714.714,0,0,0-.281.574.655.655,0,0,0,.344.57,3.248,3.248,0,0,0,1.1.359,9.485,9.485,0,0,1,1.324.336,2.406,2.406,0,0,1,1.906,2.352,2.214,2.214,0,0,1-1.027,1.883,4.505,4.505,0,0,1-2.66.727,4.6,4.6,0,0,1-1.937-.391A3.24,3.24,0,0,1,20.637,33.7a2.406,2.406,0,0,1-.477-1.414h2.461a1.017,1.017,0,0,0,.391.855,1.607,1.607,0,0,0,.961.27,1.264,1.264,0,0,0,.809-.219A.7.7,0,0,0,25.051,32.625ZM31.6,35H28.957V26.547H31.6ZM28.8,24.367a1.175,1.175,0,0,1,.406-.922,1.727,1.727,0,0,1,2.109,0,1.249,1.249,0,0,1,0,1.844,1.727,1.727,0,0,1-2.109,0A1.175,1.175,0,0,1,28.8,24.367Zm7.484.078v2.1h1.391v1.828H36.285v3.867a.987.987,0,0,0,.172.664.922.922,0,0,0,.68.188,3.862,3.862,0,0,0,.656-.047V34.93a4.859,4.859,0,0,1-1.484.227,2.758,2.758,0,0,1-2.008-.641,2.626,2.626,0,0,1-.648-1.945v-4.2H32.574V26.547h1.078v-2.1Zm7.461,9.641a2.714,2.714,0,0,1-2.258,1.07,2.662,2.662,0,0,1-2.105-.809,3.4,3.4,0,0,1-.715-2.324V26.547H41.3v5.492a.946.946,0,0,0,1.055,1.086,1.376,1.376,0,0,0,1.289-.648v-5.93h2.648V35H43.824ZM52.5,35a2.973,2.973,0,0,1-.25-.758,2.448,2.448,0,0,1-2.031.914,3,3,0,0,1-2.031-.723,2.3,2.3,0,0,1-.836-1.816,2.364,2.364,0,0,1,1.016-2.078,5.174,5.174,0,0,1,2.953-.7h.813v-.448q0-1.17-1.008-1.17a.824.824,0,0,0-.937.926H47.551a2.36,2.36,0,0,1,1.043-1.99,4.383,4.383,0,0,1,2.66-.765,3.843,3.843,0,0,1,2.555.789,2.743,2.743,0,0,1,.961,2.164v3.742a3.832,3.832,0,0,0,.359,1.781V35Zm-1.648-1.719a1.469,1.469,0,0,0,.816-.211,1.322,1.322,0,0,0,.465-.477V31.242h-.766q-1.375,0-1.375,1.234a.754.754,0,0,0,.242.582A.876.876,0,0,0,50.848,33.281Zm8.953-.156a1.171,1.171,0,0,0,.859-.3,1.1,1.1,0,0,0,.3-.84h2.469a2.923,2.923,0,0,1-1,2.281,3.705,3.705,0,0,1-2.566.891A3.751,3.751,0,0,1,56.957,34a4.556,4.556,0,0,1-1.062-3.2v-.109a5.149,5.149,0,0,1,.473-2.262,3.441,3.441,0,0,1,1.363-1.508,4.065,4.065,0,0,1,2.109-.527,3.658,3.658,0,0,1,2.617.914,3.242,3.242,0,0,1,.969,2.477H60.957a1.445,1.445,0,0,0-.32-1.008,1.106,1.106,0,0,0-.859-.352q-1.023,0-1.2,1.3a9.206,9.206,0,0,0-.055,1.141,3.616,3.616,0,0,0,.3,1.766A1.055,1.055,0,0,0,59.8,33.125ZM67.316,35H64.676V26.547h2.641Zm-2.8-10.633a1.175,1.175,0,0,1,.406-.922,1.727,1.727,0,0,1,2.109,0,1.249,1.249,0,0,1,0,1.844,1.727,1.727,0,0,1-2.109,0A1.175,1.175,0,0,1,64.52,24.367ZM68.605,30.7a4.989,4.989,0,0,1,.492-2.254,3.52,3.52,0,0,1,1.414-1.52,4.259,4.259,0,0,1,2.164-.531,3.887,3.887,0,0,1,2.992,1.176,4.512,4.512,0,0,1,1.094,3.2v.094A4.378,4.378,0,0,1,75.664,34a3.9,3.9,0,0,1-2.973,1.16,3.942,3.942,0,0,1-2.9-1.082,4.232,4.232,0,0,1-1.18-2.934Zm2.633.164a3.145,3.145,0,0,0,.367,1.719,1.223,1.223,0,0,0,1.086.547q1.406,0,1.438-2.164V30.7q0-2.273-1.453-2.273-1.32,0-1.43,1.961Zm9.1-4.312.086.992a2.867,2.867,0,0,1,2.414-1.148,2.412,2.412,0,0,1,1.973.789,3.757,3.757,0,0,1,.676,2.375V35H82.848V29.664a1.426,1.426,0,0,0-.258-.941,1.193,1.193,0,0,0-.937-.3,1.256,1.256,0,0,0-1.148.609V35H77.871V26.547Zm10.7,8.609A4.345,4.345,0,0,1,87.887,34a4.006,4.006,0,0,1-1.2-3.02v-.219a5.191,5.191,0,0,1,.48-2.289,3.516,3.516,0,0,1,1.4-1.535,4.233,4.233,0,0,1,2.188-.543A3.659,3.659,0,0,1,93.566,27.5,4.344,4.344,0,0,1,94.6,30.578V31.6H89.363a1.9,1.9,0,0,0,.617,1.117,1.836,1.836,0,0,0,1.234.406,2.366,2.366,0,0,0,1.953-.875l1.2,1.422a3.363,3.363,0,0,1-1.395,1.082A4.713,4.713,0,0,1,91.035,35.156Zm-.3-6.734q-1.156,0-1.375,1.531H92.02v-.2a1.3,1.3,0,0,0-.32-.98A1.275,1.275,0,0,0,90.738,28.422Zm9.344,4.2a.608.608,0,0,0-.352-.539,5.348,5.348,0,0,0-1.336-.422,6.092,6.092,0,0,1-1.625-.574,2.722,2.722,0,0,1-.977-.863,2.061,2.061,0,0,1-.336-1.164,2.336,2.336,0,0,1,.961-1.918,3.958,3.958,0,0,1,2.516-.754,4.386,4.386,0,0,1,2.688.758,2.37,2.37,0,0,1,1.016,1.992H100q0-1.016-1.07-1.016a1.061,1.061,0,0,0-.7.23.714.714,0,0,0-.281.574.655.655,0,0,0,.344.57,3.248,3.248,0,0,0,1.1.359,9.486,9.486,0,0,1,1.324.336,2.406,2.406,0,0,1,1.906,2.352,2.214,2.214,0,0,1-1.027,1.883,4.505,4.505,0,0,1-2.66.727A4.6,4.6,0,0,1,97,34.766,3.24,3.24,0,0,1,95.668,33.7a2.406,2.406,0,0,1-.477-1.414h2.461a1.017,1.017,0,0,0,.391.855,1.607,1.607,0,0,0,.961.27,1.264,1.264,0,0,0,.809-.219A.7.7,0,0,0,100.082,32.625ZM18.559,50.836a5.1,5.1,0,0,1-.887,3.145,2.843,2.843,0,0,1-2.395,1.176,2.437,2.437,0,0,1-1.914-.852V58.25H10.73v-11.7h2.461l.078.781a2.437,2.437,0,0,1,1.992-.937,2.866,2.866,0,0,1,2.43,1.152,5.16,5.16,0,0,1,.867,3.168Zm-2.633-.164q0-2.25-1.312-2.25a1.239,1.239,0,0,0-1.25.672v3.328a1.279,1.279,0,0,0,1.266.7q1.258,0,1.3-2.172Zm8.906-1.742-.867-.062a1.558,1.558,0,0,0-1.594.781V55H19.738V46.547h2.469l.086,1.086a2.039,2.039,0,0,1,1.852-1.242,2.567,2.567,0,0,1,.734.094Zm.336,1.766a4.989,4.989,0,0,1,.492-2.254,3.52,3.52,0,0,1,1.414-1.52,4.259,4.259,0,0,1,2.164-.531,3.887,3.887,0,0,1,2.992,1.176,4.512,4.512,0,0,1,1.094,3.2v.094A4.378,4.378,0,0,1,32.227,54a3.9,3.9,0,0,1-2.973,1.16,3.942,3.942,0,0,1-2.9-1.082,4.232,4.232,0,0,1-1.18-2.934Zm2.633.164a3.145,3.145,0,0,0,.367,1.719,1.223,1.223,0,0,0,1.086.547q1.406,0,1.438-2.164V50.7q0-2.273-1.453-2.273-1.32,0-1.43,1.961Zm14.531-.016a5.152,5.152,0,0,1-.859,3.2,2.878,2.878,0,0,1-2.422,1.117,2.5,2.5,0,0,1-2.078-1.023L36.863,55H34.5V43h2.633v4.227a2.41,2.41,0,0,1,1.9-.836,2.879,2.879,0,0,1,2.438,1.133,5.179,5.179,0,0,1,.859,3.188Zm-2.641-.168a3.437,3.437,0,0,0-.324-1.735,1.093,1.093,0,0,0-1-.519,1.261,1.261,0,0,0-1.234.679v3.354a1.268,1.268,0,0,0,1.25.671,1.118,1.118,0,0,0,1.18-.9A6.5,6.5,0,0,0,39.691,50.676ZM46.27,55H43.629V43H46.27Zm5.711.156A4.345,4.345,0,0,1,48.832,54a4.006,4.006,0,0,1-1.2-3.02v-.219a5.191,5.191,0,0,1,.48-2.289,3.516,3.516,0,0,1,1.4-1.535,4.233,4.233,0,0,1,2.188-.543A3.659,3.659,0,0,1,54.512,47.5a4.344,4.344,0,0,1,1.031,3.082V51.6H50.309a1.9,1.9,0,0,0,.617,1.117,1.836,1.836,0,0,0,1.234.406,2.366,2.366,0,0,0,1.953-.875l1.2,1.422a3.363,3.363,0,0,1-1.395,1.082A4.713,4.713,0,0,1,51.98,55.156Zm-.3-6.734q-1.156,0-1.375,1.531h2.656v-.2a1.3,1.3,0,0,0-.32-.98A1.275,1.275,0,0,0,51.684,48.422Zm7.406-1.875.086.992a2.906,2.906,0,0,1,2.414-1.148,2.14,2.14,0,0,1,2.164,1.273,2.813,2.813,0,0,1,2.484-1.273q2.57,0,2.641,3.109V55H66.238V49.664a1.611,1.611,0,0,0-.219-.945.931.931,0,0,0-.8-.3,1.247,1.247,0,0,0-1.164.7l.008.109V55H61.426V49.68a1.694,1.694,0,0,0-.211-.961.929.929,0,0,0-.8-.3,1.263,1.263,0,0,0-1.156.7V55H56.621V46.547ZM75.145,55a2.973,2.973,0,0,1-.25-.758,2.448,2.448,0,0,1-2.031.914,3,3,0,0,1-2.031-.723A2.3,2.3,0,0,1,70,52.617a2.364,2.364,0,0,1,1.016-2.078,5.174,5.174,0,0,1,2.953-.7h.813v-.448q0-1.17-1.008-1.17a.824.824,0,0,0-.937.926H70.2a2.36,2.36,0,0,1,1.043-1.99,4.383,4.383,0,0,1,2.66-.765,3.843,3.843,0,0,1,2.555.789,2.743,2.743,0,0,1,.961,2.164v3.742a3.832,3.832,0,0,0,.359,1.781V55ZM73.5,53.281a1.469,1.469,0,0,0,.816-.211,1.322,1.322,0,0,0,.465-.477V51.242h-.766q-1.375,0-1.375,1.234a.754.754,0,0,0,.242.582A.876.876,0,0,0,73.5,53.281ZM74.152,43h2.781l-2.172,2.453-2.148,0Zm7.789,1.445v2.1h1.391v1.828H81.941v3.867a.987.987,0,0,0,.172.664.922.922,0,0,0,.68.188,3.862,3.862,0,0,0,.656-.047V54.93a4.859,4.859,0,0,1-1.484.227,2.758,2.758,0,0,1-2.008-.641,2.626,2.626,0,0,1-.648-1.945v-4.2H78.23V46.547h1.078v-2.1ZM87.145,55H84.5V46.547h2.641Zm-2.8-10.633a1.175,1.175,0,0,1,.406-.922,1.727,1.727,0,0,1,2.109,0,1.249,1.249,0,0,1,0,1.844,1.727,1.727,0,0,1-2.109,0A1.175,1.175,0,0,1,84.348,44.367Zm7.992,8.758a1.171,1.171,0,0,0,.859-.3,1.1,1.1,0,0,0,.3-.84h2.469a2.923,2.923,0,0,1-1,2.281,3.705,3.705,0,0,1-2.566.891A3.751,3.751,0,0,1,89.5,54a4.556,4.556,0,0,1-1.062-3.2v-.109a5.149,5.149,0,0,1,.473-2.262,3.441,3.441,0,0,1,1.363-1.508,4.065,4.065,0,0,1,2.109-.527A3.658,3.658,0,0,1,95,47.3a3.242,3.242,0,0,1,.969,2.477H93.5a1.445,1.445,0,0,0-.32-1.008,1.106,1.106,0,0,0-.859-.352q-1.023,0-1.2,1.3a9.206,9.206,0,0,0-.055,1.141,3.616,3.616,0,0,0,.3,1.766A1.055,1.055,0,0,0,92.34,53.125ZM101.84,55a2.973,2.973,0,0,1-.25-.758,2.448,2.448,0,0,1-2.031.914,3,3,0,0,1-2.031-.723,2.3,2.3,0,0,1-.836-1.816,2.364,2.364,0,0,1,1.016-2.078,5.174,5.174,0,0,1,2.953-.7h.813v-.448q0-1.17-1.008-1.17a.824.824,0,0,0-.937.926H96.895a2.36,2.36,0,0,1,1.043-1.99,4.383,4.383,0,0,1,2.66-.765,3.843,3.843,0,0,1,2.555.789,2.743,2.743,0,0,1,.961,2.164v3.742a3.832,3.832,0,0,0,.359,1.781V55Zm-1.648-1.719a1.469,1.469,0,0,0,.816-.211,1.322,1.322,0,0,0,.465-.477V51.242h-.766q-1.375,0-1.375,1.234a.754.754,0,0,0,.242.582A.876.876,0,0,0,100.191,53.281Zm9.8-.656a.608.608,0,0,0-.352-.539,5.347,5.347,0,0,0-1.336-.422,6.092,6.092,0,0,1-1.625-.574,2.722,2.722,0,0,1-.977-.863,2.061,2.061,0,0,1-.336-1.164,2.336,2.336,0,0,1,.961-1.918,3.958,3.958,0,0,1,2.516-.754,4.386,4.386,0,0,1,2.688.758,2.37,2.37,0,0,1,1.016,1.992H109.91q0-1.016-1.07-1.016a1.061,1.061,0,0,0-.7.23.714.714,0,0,0-.281.574.655.655,0,0,0,.344.57,3.248,3.248,0,0,0,1.1.359,9.486,9.486,0,0,1,1.324.336,2.406,2.406,0,0,1,1.906,2.352,2.214,2.214,0,0,1-1.027,1.883,4.505,4.505,0,0,1-2.66.727,4.6,4.6,0,0,1-1.937-.391,3.24,3.24,0,0,1-1.328-1.062,2.406,2.406,0,0,1-.477-1.414h2.461a1.017,1.017,0,0,0,.391.855,1.607,1.607,0,0,0,.961.27,1.264,1.264,0,0,0,.809-.219A.7.7,0,0,0,110,52.625Z" transform="translate(218 1799)" fill="#12263f"/>
    <path id="Trazado_834152" data-name="Trazado 834152" d="M24.145,9.547a6.708,6.708,0,0,1-.617,2.945,4.561,4.561,0,0,1-1.754,1.973,4.884,4.884,0,0,1-2.59.691,4.953,4.953,0,0,1-2.578-.668,4.554,4.554,0,0,1-1.754-1.91,6.515,6.515,0,0,1-.66-2.852V9.086A6.737,6.737,0,0,1,14.8,6.137a4.55,4.55,0,0,1,1.758-1.973,5.2,5.2,0,0,1,5.184-.008,4.632,4.632,0,0,1,1.762,1.957,6.544,6.544,0,0,1,.637,2.91ZM21.355,9.07A4.783,4.783,0,0,0,20.789,6.5a1.817,1.817,0,0,0-1.621-.879q-2.062,0-2.18,3.094l-.008.836a4.92,4.92,0,0,0,.555,2.57,1.814,1.814,0,0,0,1.648.9,1.792,1.792,0,0,0,1.6-.883,4.785,4.785,0,0,0,.57-2.539Zm11.93,1.773a5.152,5.152,0,0,1-.859,3.2A2.878,2.878,0,0,1,30,15.156a2.5,2.5,0,0,1-2.078-1.023L27.816,15H25.457V3H28.09V7.227a2.41,2.41,0,0,1,1.9-.836,2.879,2.879,0,0,1,2.438,1.133,5.179,5.179,0,0,1,.859,3.188Zm-2.641-.168a3.437,3.437,0,0,0-.324-1.735,1.093,1.093,0,0,0-1-.519A1.261,1.261,0,0,0,28.09,9.1v3.354a1.268,1.268,0,0,0,1.25.671,1.118,1.118,0,0,0,1.18-.9A6.5,6.5,0,0,0,30.645,10.676Zm6.867-6.231v2.1H38.9V8.375H37.512v3.867a.987.987,0,0,0,.172.664.922.922,0,0,0,.68.188,3.862,3.862,0,0,0,.656-.047V14.93a4.859,4.859,0,0,1-1.484.227,2.758,2.758,0,0,1-2.008-.641,2.626,2.626,0,0,1-.648-1.945v-4.2H33.8V6.547h1.078v-2.1Zm6.516,10.711A4.345,4.345,0,0,1,40.879,14a4.006,4.006,0,0,1-1.2-3.02v-.219a5.191,5.191,0,0,1,.48-2.289,3.516,3.516,0,0,1,1.4-1.535,4.233,4.233,0,0,1,2.188-.543A3.659,3.659,0,0,1,46.559,7.5a4.344,4.344,0,0,1,1.031,3.082V11.6H42.355a1.9,1.9,0,0,0,.617,1.117,1.836,1.836,0,0,0,1.234.406,2.366,2.366,0,0,0,1.953-.875l1.2,1.422a3.363,3.363,0,0,1-1.395,1.082A4.713,4.713,0,0,1,44.027,15.156Zm-.3-6.734q-1.156,0-1.375,1.531h2.656v-.2a1.3,1.3,0,0,0-.32-.98A1.275,1.275,0,0,0,43.73,8.422Zm7.336-1.875.086.992a2.867,2.867,0,0,1,2.414-1.148,2.412,2.412,0,0,1,1.973.789,3.757,3.757,0,0,1,.676,2.375V15H53.574V9.664a1.426,1.426,0,0,0-.258-.941,1.193,1.193,0,0,0-.937-.3,1.256,1.256,0,0,0-1.148.609V15H48.6V6.547Zm10.18,6.578a1.171,1.171,0,0,0,.859-.3,1.1,1.1,0,0,0,.3-.84h2.469a2.922,2.922,0,0,1-1,2.281,3.705,3.705,0,0,1-2.566.891A3.751,3.751,0,0,1,58.4,14a4.556,4.556,0,0,1-1.062-3.2v-.109a5.149,5.149,0,0,1,.473-2.262,3.441,3.441,0,0,1,1.363-1.508,4.065,4.065,0,0,1,2.109-.527A3.658,3.658,0,0,1,63.9,7.3a3.242,3.242,0,0,1,.969,2.477H62.4a1.445,1.445,0,0,0-.32-1.008,1.106,1.106,0,0,0-.859-.352q-1.023,0-1.2,1.3a9.206,9.206,0,0,0-.055,1.141,3.616,3.616,0,0,0,.3,1.766A1.055,1.055,0,0,0,61.246,13.125ZM68.762,15H66.121V6.547h2.641Zm-2.8-10.633a1.175,1.175,0,0,1,.406-.922,1.727,1.727,0,0,1,2.109,0,1.175,1.175,0,0,1,.406.922,1.175,1.175,0,0,1-.406.922,1.727,1.727,0,0,1-2.109,0A1.175,1.175,0,0,1,65.965,4.367ZM70.051,10.7a4.989,4.989,0,0,1,.492-2.254,3.52,3.52,0,0,1,1.414-1.52,4.259,4.259,0,0,1,2.164-.531,3.887,3.887,0,0,1,2.992,1.176,4.512,4.512,0,0,1,1.094,3.2v.094A4.378,4.378,0,0,1,77.109,14a3.9,3.9,0,0,1-2.973,1.16,3.942,3.942,0,0,1-2.9-1.082,4.232,4.232,0,0,1-1.18-2.934Zm2.633.164a3.145,3.145,0,0,0,.367,1.719,1.223,1.223,0,0,0,1.086.547q1.406,0,1.438-2.164V10.7q0-2.273-1.453-2.273-1.32,0-1.43,1.961ZM74.48,3h2.781L75.09,5.453l-2.148,0Zm7.3,3.547.086.992a2.867,2.867,0,0,1,2.414-1.148,2.412,2.412,0,0,1,1.973.789,3.757,3.757,0,0,1,.676,2.375V15H84.293V9.664a1.426,1.426,0,0,0-.258-.941,1.193,1.193,0,0,0-.937-.3,1.256,1.256,0,0,0-1.148.609V15H79.316V6.547Zm10.258,4.164a5.164,5.164,0,0,1,.867-3.164,2.854,2.854,0,0,1,2.422-1.156,2.428,2.428,0,0,1,1.906.891V3h2.641V15H97.512l-.133-.906a2.493,2.493,0,0,1-2.062,1.063A2.849,2.849,0,0,1,92.926,14,5.327,5.327,0,0,1,92.043,10.711Zm2.633.164q0,2.25,1.313,2.25a1.3,1.3,0,0,0,1.25-.734V9.172A1.261,1.261,0,0,0,96,8.422q-1.219,0-1.32,1.969Zm10.789,4.281A4.345,4.345,0,0,1,102.316,14a4.006,4.006,0,0,1-1.2-3.02v-.219a5.191,5.191,0,0,1,.48-2.289A3.516,3.516,0,0,1,103,6.934a4.233,4.233,0,0,1,2.188-.543A3.659,3.659,0,0,1,108,7.5a4.344,4.344,0,0,1,1.031,3.082V11.6h-5.234a1.9,1.9,0,0,0,.617,1.117,1.836,1.836,0,0,0,1.234.406,2.366,2.366,0,0,0,1.953-.875l1.2,1.422a3.363,3.363,0,0,1-1.395,1.082A4.713,4.713,0,0,1,105.465,15.156Zm-.3-6.734q-1.156,0-1.375,1.531h2.656v-.2a1.3,1.3,0,0,0-.32-.98A1.275,1.275,0,0,0,105.168,8.422ZM33.246,28.93l-.867-.062a1.558,1.558,0,0,0-1.594.781V35H28.152V26.547h2.469l.086,1.086a2.039,2.039,0,0,1,1.852-1.242,2.567,2.567,0,0,1,.734.094Zm4.891,6.227A4.345,4.345,0,0,1,34.988,34a4.006,4.006,0,0,1-1.2-3.02v-.219a5.191,5.191,0,0,1,.48-2.289,3.516,3.516,0,0,1,1.4-1.535,4.233,4.233,0,0,1,2.188-.543A3.659,3.659,0,0,1,40.668,27.5,4.344,4.344,0,0,1,41.7,30.578V31.6H36.465a1.9,1.9,0,0,0,.617,1.117,1.836,1.836,0,0,0,1.234.406,2.366,2.366,0,0,0,1.953-.875l1.2,1.422a3.363,3.363,0,0,1-1.395,1.082A4.713,4.713,0,0,1,38.137,35.156Zm-.3-6.734q-1.156,0-1.375,1.531h2.656v-.2a1.3,1.3,0,0,0-.32-.98A1.275,1.275,0,0,0,37.84,28.422Zm9.344,4.2a.608.608,0,0,0-.352-.539,5.348,5.348,0,0,0-1.336-.422,6.092,6.092,0,0,1-1.625-.574,2.722,2.722,0,0,1-.977-.863,2.061,2.061,0,0,1-.336-1.164,2.336,2.336,0,0,1,.961-1.918,3.958,3.958,0,0,1,2.516-.754,4.386,4.386,0,0,1,2.688.758,2.37,2.37,0,0,1,1.016,1.992H47.1q0-1.016-1.07-1.016a1.061,1.061,0,0,0-.7.23.714.714,0,0,0-.281.574.655.655,0,0,0,.344.57,3.248,3.248,0,0,0,1.1.359,9.485,9.485,0,0,1,1.324.336,2.406,2.406,0,0,1,1.906,2.352A2.214,2.214,0,0,1,48.7,34.43a4.505,4.505,0,0,1-2.66.727,4.6,4.6,0,0,1-1.937-.391A3.24,3.24,0,0,1,42.77,33.7a2.406,2.406,0,0,1-.477-1.414h2.461a1.017,1.017,0,0,0,.391.855,1.607,1.607,0,0,0,.961.27,1.264,1.264,0,0,0,.809-.219A.7.7,0,0,0,47.184,32.625Zm8.8,1.461a2.714,2.714,0,0,1-2.258,1.07,2.662,2.662,0,0,1-2.105-.809,3.4,3.4,0,0,1-.715-2.324V26.547h2.633v5.492A.946.946,0,0,0,54.6,33.125a1.376,1.376,0,0,0,1.289-.648v-5.93h2.648V35H56.066ZM62.754,35H60.113V23h2.641Zm4.688-10.555v2.1h1.391v1.828H67.441v3.867a.987.987,0,0,0,.172.664.922.922,0,0,0,.68.188,3.862,3.862,0,0,0,.656-.047V34.93a4.859,4.859,0,0,1-1.484.227,2.758,2.758,0,0,1-2.008-.641,2.626,2.626,0,0,1-.648-1.945v-4.2H63.73V26.547h1.078v-2.1ZM74.629,35a2.973,2.973,0,0,1-.25-.758,2.448,2.448,0,0,1-2.031.914,3,3,0,0,1-2.031-.723,2.3,2.3,0,0,1-.836-1.816A2.364,2.364,0,0,1,70.5,30.539a5.174,5.174,0,0,1,2.953-.7h.813v-.448q0-1.17-1.008-1.17a.824.824,0,0,0-.937.926H69.684a2.36,2.36,0,0,1,1.043-1.99,4.383,4.383,0,0,1,2.66-.765,3.843,3.843,0,0,1,2.555.789,2.743,2.743,0,0,1,.961,2.164v3.742a3.832,3.832,0,0,0,.359,1.781V35ZM72.98,33.281a1.469,1.469,0,0,0,.816-.211,1.322,1.322,0,0,0,.465-.477V31.242H73.5q-1.375,0-1.375,1.234a.754.754,0,0,0,.242.582A.876.876,0,0,0,72.98,33.281Zm5.047-2.57a5.164,5.164,0,0,1,.867-3.164,2.854,2.854,0,0,1,2.422-1.156,2.428,2.428,0,0,1,1.906.891V23h2.641V35H83.5l-.133-.906A2.493,2.493,0,0,1,81.3,35.156,2.849,2.849,0,0,1,78.91,34,5.327,5.327,0,0,1,78.027,30.711Zm2.633.164q0,2.25,1.313,2.25a1.3,1.3,0,0,0,1.25-.734V29.172a1.261,1.261,0,0,0-1.234-.75q-1.219,0-1.32,1.969Zm6.367-.18a4.989,4.989,0,0,1,.492-2.254,3.52,3.52,0,0,1,1.414-1.52,4.259,4.259,0,0,1,2.164-.531,3.887,3.887,0,0,1,2.992,1.176,4.512,4.512,0,0,1,1.094,3.2v.094A4.378,4.378,0,0,1,94.086,34a3.9,3.9,0,0,1-2.973,1.16,3.942,3.942,0,0,1-2.9-1.082,4.232,4.232,0,0,1-1.18-2.934Zm2.633.164a3.145,3.145,0,0,0,.367,1.719,1.223,1.223,0,0,0,1.086.547q1.406,0,1.438-2.164V30.7q0-2.273-1.453-2.273-1.32,0-1.43,1.961ZM24.852,55V48.375H23.625V46.547h1.227v-.672a2.921,2.921,0,0,1,.852-2.242,3.364,3.364,0,0,1,2.391-.8A5.235,5.235,0,0,1,29.328,43l.008,1.938a2.4,2.4,0,0,0-.648-.07q-1.2,0-1.2,1.031v.648h1.648v1.828H27.492V55Zm9.977,0a2.973,2.973,0,0,1-.25-.758,2.448,2.448,0,0,1-2.031.914,3,3,0,0,1-2.031-.723,2.3,2.3,0,0,1-.836-1.816A2.364,2.364,0,0,1,30.7,50.539a5.174,5.174,0,0,1,2.953-.7h.813v-.448q0-1.17-1.008-1.17a.824.824,0,0,0-.937.926H29.883a2.36,2.36,0,0,1,1.043-1.99,4.383,4.383,0,0,1,2.66-.765,3.843,3.843,0,0,1,2.555.789,2.743,2.743,0,0,1,.961,2.164v3.742a3.832,3.832,0,0,0,.359,1.781V55ZM33.18,53.281A1.469,1.469,0,0,0,34,53.07a1.322,1.322,0,0,0,.465-.477V51.242H33.7q-1.375,0-1.375,1.234a.754.754,0,0,0,.242.582A.876.876,0,0,0,33.18,53.281Zm8.633-1.414,1.336-5.32h2.773L43.164,55H40.477l-2.758-8.453H40.5ZM46.258,50.7a4.989,4.989,0,0,1,.492-2.254,3.52,3.52,0,0,1,1.414-1.52,4.259,4.259,0,0,1,2.164-.531,3.887,3.887,0,0,1,2.992,1.176,4.512,4.512,0,0,1,1.094,3.2v.094A4.378,4.378,0,0,1,53.316,54a3.9,3.9,0,0,1-2.973,1.16,3.942,3.942,0,0,1-2.9-1.082,4.232,4.232,0,0,1-1.18-2.934Zm2.633.164a3.145,3.145,0,0,0,.367,1.719,1.223,1.223,0,0,0,1.086.547q1.406,0,1.438-2.164V50.7q0-2.273-1.453-2.273-1.32,0-1.43,1.961Zm11.8-1.93-.867-.062a1.558,1.558,0,0,0-1.594.781V55H55.594V46.547h2.469l.086,1.086A2.039,2.039,0,0,1,60,46.391a2.567,2.567,0,0,1,.734.094ZM66.164,55a2.973,2.973,0,0,1-.25-.758,2.448,2.448,0,0,1-2.031.914,3,3,0,0,1-2.031-.723,2.3,2.3,0,0,1-.836-1.816,2.364,2.364,0,0,1,1.016-2.078,5.174,5.174,0,0,1,2.953-.7H65.8v-.448q0-1.17-1.008-1.17a.824.824,0,0,0-.937.926H61.219a2.36,2.36,0,0,1,1.043-1.99,4.383,4.383,0,0,1,2.66-.765,3.843,3.843,0,0,1,2.555.789,2.743,2.743,0,0,1,.961,2.164v3.742a3.832,3.832,0,0,0,.359,1.781V55Zm-1.648-1.719a1.469,1.469,0,0,0,.816-.211,1.322,1.322,0,0,0,.465-.477V51.242h-.766q-1.375,0-1.375,1.234a.754.754,0,0,0,.242.582A.876.876,0,0,0,64.516,53.281Zm13.227-2.437a5.152,5.152,0,0,1-.859,3.2,2.878,2.878,0,0,1-2.422,1.117,2.5,2.5,0,0,1-2.078-1.023L72.273,55H69.914V43h2.633v4.227a2.41,2.41,0,0,1,1.9-.836,2.879,2.879,0,0,1,2.438,1.133,5.179,5.179,0,0,1,.859,3.188ZM75.1,50.676a3.437,3.437,0,0,0-.324-1.735,1.093,1.093,0,0,0-1-.519,1.261,1.261,0,0,0-1.234.679v3.354a1.268,1.268,0,0,0,1.25.671,1.118,1.118,0,0,0,1.18-.9A6.5,6.5,0,0,0,75.1,50.676ZM81.68,55H79.039V43H81.68Zm5.711.156A4.345,4.345,0,0,1,84.242,54a4.006,4.006,0,0,1-1.2-3.02v-.219a5.191,5.191,0,0,1,.48-2.289,3.516,3.516,0,0,1,1.4-1.535,4.233,4.233,0,0,1,2.188-.543A3.659,3.659,0,0,1,89.922,47.5a4.344,4.344,0,0,1,1.031,3.082V51.6H85.719a1.9,1.9,0,0,0,.617,1.117,1.836,1.836,0,0,0,1.234.406,2.366,2.366,0,0,0,1.953-.875l1.2,1.422a3.363,3.363,0,0,1-1.395,1.082A4.713,4.713,0,0,1,87.391,55.156Zm-.3-6.734q-1.156,0-1.375,1.531h2.656v-.2a1.3,1.3,0,0,0-.32-.98A1.275,1.275,0,0,0,87.094,48.422Zm9.344,4.2a.608.608,0,0,0-.352-.539,5.347,5.347,0,0,0-1.336-.422,6.092,6.092,0,0,1-1.625-.574,2.722,2.722,0,0,1-.977-.863,2.061,2.061,0,0,1-.336-1.164,2.336,2.336,0,0,1,.961-1.918,3.958,3.958,0,0,1,2.516-.754,4.386,4.386,0,0,1,2.688.758,2.37,2.37,0,0,1,1.016,1.992H96.352q0-1.016-1.07-1.016a1.061,1.061,0,0,0-.7.23.714.714,0,0,0-.281.574.655.655,0,0,0,.344.57,3.248,3.248,0,0,0,1.1.359,9.486,9.486,0,0,1,1.324.336,2.406,2.406,0,0,1,1.906,2.352,2.214,2.214,0,0,1-1.027,1.883,4.505,4.505,0,0,1-2.66.727,4.6,4.6,0,0,1-1.937-.391A3.24,3.24,0,0,1,92.023,53.7a2.406,2.406,0,0,1-.477-1.414h2.461a1.017,1.017,0,0,0,.391.855,1.607,1.607,0,0,0,.961.27,1.264,1.264,0,0,0,.809-.219A.7.7,0,0,0,96.438,52.625Z" transform="translate(428 1916)" fill="#12263f"/>
    <path id="Trazado_834153" data-name="Trazado 834153" d="M80.5,0A80.5,80.5,0,1,1,0,80.5,80.5,80.5,0,0,1,80.5,0Z" transform="translate(405 1580)" fill="#c1cdf5"/>
    <path id="Trazado_834154" data-name="Trazado 834154" d="M12.77,3.625V11.07a4.279,4.279,0,0,1-.539,2.191,3.492,3.492,0,0,1-1.547,1.41,5.449,5.449,0,0,1-2.383.484,4.708,4.708,0,0,1-3.273-1.078,3.845,3.845,0,0,1-1.219-2.953v-7.5H6.566V11.18q.047,1.867,1.734,1.867a1.679,1.679,0,0,0,1.289-.469,2.191,2.191,0,0,0,.438-1.523V3.625Zm6.016,9a.608.608,0,0,0-.352-.539,5.348,5.348,0,0,0-1.336-.422,6.092,6.092,0,0,1-1.625-.574,2.722,2.722,0,0,1-.977-.863,2.061,2.061,0,0,1-.336-1.164,2.336,2.336,0,0,1,.961-1.918,3.958,3.958,0,0,1,2.516-.754,4.386,4.386,0,0,1,2.688.758A2.37,2.37,0,0,1,21.34,9.141H18.7q0-1.016-1.07-1.016a1.061,1.061,0,0,0-.7.23.714.714,0,0,0-.281.574A.655.655,0,0,0,17,9.5a3.248,3.248,0,0,0,1.1.359,9.486,9.486,0,0,1,1.324.336,2.406,2.406,0,0,1,1.906,2.352A2.214,2.214,0,0,1,20.3,14.43a4.505,4.505,0,0,1-2.66.727,4.6,4.6,0,0,1-1.937-.391A3.24,3.24,0,0,1,14.371,13.7a2.406,2.406,0,0,1-.477-1.414h2.461a1.017,1.017,0,0,0,.391.855,1.607,1.607,0,0,0,.961.27,1.264,1.264,0,0,0,.809-.219A.7.7,0,0,0,18.785,12.625Zm3.438-1.93a4.989,4.989,0,0,1,.492-2.254,3.52,3.52,0,0,1,1.414-1.52,4.259,4.259,0,0,1,2.164-.531,3.887,3.887,0,0,1,2.992,1.176,4.512,4.512,0,0,1,1.094,3.2v.094A4.378,4.378,0,0,1,29.281,14a3.9,3.9,0,0,1-2.973,1.16,3.942,3.942,0,0,1-2.9-1.082,4.232,4.232,0,0,1-1.18-2.934Zm2.633.164a3.145,3.145,0,0,0,.367,1.719,1.223,1.223,0,0,0,1.086.547q1.406,0,1.438-2.164V10.7q0-2.273-1.453-2.273-1.32,0-1.43,1.961Zm14.758,4.3A4.345,4.345,0,0,1,36.465,14a4.006,4.006,0,0,1-1.2-3.02v-.219a5.191,5.191,0,0,1,.48-2.289,3.516,3.516,0,0,1,1.4-1.535,4.233,4.233,0,0,1,2.188-.543A3.659,3.659,0,0,1,42.145,7.5a4.344,4.344,0,0,1,1.031,3.082V11.6H37.941a1.9,1.9,0,0,0,.617,1.117,1.836,1.836,0,0,0,1.234.406,2.366,2.366,0,0,0,1.953-.875l1.2,1.422a3.363,3.363,0,0,1-1.395,1.082A4.713,4.713,0,0,1,39.613,15.156Zm-.3-6.734q-1.156,0-1.375,1.531H40.6v-.2a1.3,1.3,0,0,0-.32-.98A1.275,1.275,0,0,0,39.316,8.422ZM44.848,15V8.375H43.621V6.547h1.227V6.266A3.228,3.228,0,0,1,45.957,3.68a4.433,4.433,0,0,1,2.883-.844,10.23,10.23,0,0,1,2.75.453L51.23,5.367l-.437-.117A6.962,6.962,0,0,0,49,5.023q-1.508,0-1.508,1.375v.148h1.656V8.375H47.488V15ZM52.8,15H50.152V6.547H52.8Zm5.18-1.875a1.171,1.171,0,0,0,.859-.3,1.1,1.1,0,0,0,.3-.84h2.469a2.922,2.922,0,0,1-1,2.281,3.705,3.705,0,0,1-2.566.891A3.751,3.751,0,0,1,55.137,14a4.556,4.556,0,0,1-1.062-3.2v-.109a5.149,5.149,0,0,1,.473-2.262A3.441,3.441,0,0,1,55.91,6.918a4.065,4.065,0,0,1,2.109-.527,3.658,3.658,0,0,1,2.617.914,3.242,3.242,0,0,1,.969,2.477H59.137a1.445,1.445,0,0,0-.32-1.008,1.106,1.106,0,0,0-.859-.352q-1.023,0-1.2,1.3a9.206,9.206,0,0,0-.055,1.141,3.616,3.616,0,0,0,.3,1.766A1.055,1.055,0,0,0,57.98,13.125ZM65.5,15H62.855V6.547H65.5ZM62.7,4.367a1.175,1.175,0,0,1,.406-.922,1.727,1.727,0,0,1,2.109,0,1.175,1.175,0,0,1,.406.922,1.175,1.175,0,0,1-.406.922,1.727,1.727,0,0,1-2.109,0A1.175,1.175,0,0,1,62.7,4.367Zm8.508,10.789A4.345,4.345,0,0,1,68.059,14a4.006,4.006,0,0,1-1.2-3.02v-.219a5.191,5.191,0,0,1,.48-2.289,3.516,3.516,0,0,1,1.4-1.535,4.233,4.233,0,0,1,2.188-.543A3.659,3.659,0,0,1,73.738,7.5a4.344,4.344,0,0,1,1.031,3.082V11.6H69.535a1.9,1.9,0,0,0,.617,1.117,1.836,1.836,0,0,0,1.234.406,2.366,2.366,0,0,0,1.953-.875l1.2,1.422a3.363,3.363,0,0,1-1.395,1.082A4.713,4.713,0,0,1,71.207,15.156Zm-.3-6.734q-1.156,0-1.375,1.531h2.656v-.2a1.3,1.3,0,0,0-.32-.98A1.275,1.275,0,0,0,70.91,8.422Zm7.336-1.875.086.992a2.867,2.867,0,0,1,2.414-1.148,2.412,2.412,0,0,1,1.973.789,3.757,3.757,0,0,1,.676,2.375V15H80.754V9.664a1.426,1.426,0,0,0-.258-.941,1.193,1.193,0,0,0-.937-.3,1.256,1.256,0,0,0-1.148.609V15H75.777V6.547Zm9.672-2.1v2.1h1.391V8.375H87.918v3.867a.987.987,0,0,0,.172.664.922.922,0,0,0,.68.188,3.862,3.862,0,0,0,.656-.047V14.93a4.859,4.859,0,0,1-1.484.227,2.758,2.758,0,0,1-2.008-.641,2.626,2.626,0,0,1-.648-1.945v-4.2H84.207V6.547h1.078v-2.1Zm6.516,10.711A4.345,4.345,0,0,1,91.285,14a4.006,4.006,0,0,1-1.2-3.02v-.219a5.191,5.191,0,0,1,.48-2.289,3.516,3.516,0,0,1,1.4-1.535,4.233,4.233,0,0,1,2.188-.543A3.659,3.659,0,0,1,96.965,7.5,4.344,4.344,0,0,1,98,10.578V11.6H92.762a1.9,1.9,0,0,0,.617,1.117,1.836,1.836,0,0,0,1.234.406,2.366,2.366,0,0,0,1.953-.875l1.2,1.422a3.363,3.363,0,0,1-1.395,1.082A4.713,4.713,0,0,1,94.434,15.156Zm-.3-6.734q-1.156,0-1.375,1.531h2.656v-.2a1.3,1.3,0,0,0-.32-.98A1.275,1.275,0,0,0,94.137,8.422Zm8.57,2.289a5.164,5.164,0,0,1,.867-3.164A2.854,2.854,0,0,1,106,6.391a2.428,2.428,0,0,1,1.906.891V3h2.641V15h-2.367l-.133-.906a2.493,2.493,0,0,1-2.062,1.063A2.849,2.849,0,0,1,103.59,14,5.327,5.327,0,0,1,102.707,10.711Zm2.633.164q0,2.25,1.313,2.25a1.3,1.3,0,0,0,1.25-.734V9.172a1.261,1.261,0,0,0-1.234-.75q-1.219,0-1.32,1.969Zm10.789,4.281A4.345,4.345,0,0,1,112.98,14a4.006,4.006,0,0,1-1.2-3.02v-.219a5.191,5.191,0,0,1,.48-2.289,3.516,3.516,0,0,1,1.4-1.535,4.233,4.233,0,0,1,2.188-.543A3.659,3.659,0,0,1,118.66,7.5a4.344,4.344,0,0,1,1.031,3.082V11.6h-5.234a1.9,1.9,0,0,0,.617,1.117,1.836,1.836,0,0,0,1.234.406,2.366,2.366,0,0,0,1.953-.875l1.2,1.422a3.363,3.363,0,0,1-1.395,1.082A4.713,4.713,0,0,1,116.129,15.156Zm-.3-6.734q-1.156,0-1.375,1.531h2.656v-.2a1.3,1.3,0,0,0-.32-.98A1.275,1.275,0,0,0,115.832,8.422ZM9.688,35H7.047V23H9.688Zm1.289-4.3a4.989,4.989,0,0,1,.492-2.254,3.52,3.52,0,0,1,1.414-1.52,4.259,4.259,0,0,1,2.164-.531,3.887,3.887,0,0,1,2.992,1.176,4.512,4.512,0,0,1,1.094,3.2v.094A4.378,4.378,0,0,1,18.035,34a3.9,3.9,0,0,1-2.973,1.16,3.942,3.942,0,0,1-2.9-1.082,4.232,4.232,0,0,1-1.18-2.934Zm2.633.164a3.145,3.145,0,0,0,.367,1.719,1.223,1.223,0,0,0,1.086.547q1.406,0,1.438-2.164V30.7q0-2.273-1.453-2.273-1.32,0-1.43,1.961Zm11.109,1.766a.608.608,0,0,0-.352-.539,5.348,5.348,0,0,0-1.336-.422,6.092,6.092,0,0,1-1.625-.574,2.722,2.722,0,0,1-.977-.863,2.061,2.061,0,0,1-.336-1.164,2.336,2.336,0,0,1,.961-1.918,3.958,3.958,0,0,1,2.516-.754,4.386,4.386,0,0,1,2.688.758,2.37,2.37,0,0,1,1.016,1.992H24.633q0-1.016-1.07-1.016a1.061,1.061,0,0,0-.7.23.714.714,0,0,0-.281.574.655.655,0,0,0,.344.57,3.248,3.248,0,0,0,1.1.359,9.485,9.485,0,0,1,1.324.336,2.406,2.406,0,0,1,1.906,2.352A2.214,2.214,0,0,1,26.23,34.43a4.505,4.505,0,0,1-2.66.727,4.6,4.6,0,0,1-1.937-.391A3.24,3.24,0,0,1,20.3,33.7a2.406,2.406,0,0,1-.477-1.414h2.461a1.017,1.017,0,0,0,.391.855,1.607,1.607,0,0,0,.961.27,1.264,1.264,0,0,0,.809-.219A.7.7,0,0,0,24.719,32.625Zm12.867-3.7-.867-.062a1.558,1.558,0,0,0-1.594.781V35H32.492V26.547h2.469l.086,1.086A2.039,2.039,0,0,1,36.9,26.391a2.567,2.567,0,0,1,.734.094Zm4.891,6.227A4.345,4.345,0,0,1,39.328,34a4.006,4.006,0,0,1-1.2-3.02v-.219a5.191,5.191,0,0,1,.48-2.289,3.516,3.516,0,0,1,1.4-1.535,4.233,4.233,0,0,1,2.188-.543A3.659,3.659,0,0,1,45.008,27.5a4.344,4.344,0,0,1,1.031,3.082V31.6H40.8a1.9,1.9,0,0,0,.617,1.117,1.836,1.836,0,0,0,1.234.406,2.366,2.366,0,0,0,1.953-.875l1.2,1.422a3.363,3.363,0,0,1-1.395,1.082A4.713,4.713,0,0,1,42.477,35.156Zm-.3-6.734q-1.156,0-1.375,1.531h2.656v-.2a1.3,1.3,0,0,0-.32-.98A1.275,1.275,0,0,0,42.18,28.422Zm8.492,4.7a1.171,1.171,0,0,0,.859-.3,1.1,1.1,0,0,0,.3-.84H54.3a2.923,2.923,0,0,1-1,2.281,3.705,3.705,0,0,1-2.566.891A3.751,3.751,0,0,1,47.828,34a4.556,4.556,0,0,1-1.062-3.2v-.109a5.149,5.149,0,0,1,.473-2.262A3.441,3.441,0,0,1,48.6,26.918a4.065,4.065,0,0,1,2.109-.527,3.658,3.658,0,0,1,2.617.914,3.242,3.242,0,0,1,.969,2.477H51.828a1.445,1.445,0,0,0-.32-1.008,1.106,1.106,0,0,0-.859-.352q-1.023,0-1.2,1.3a9.206,9.206,0,0,0-.055,1.141,3.616,3.616,0,0,0,.3,1.766A1.055,1.055,0,0,0,50.672,33.125Zm9.773.961a2.714,2.714,0,0,1-2.258,1.07,2.662,2.662,0,0,1-2.105-.809,3.4,3.4,0,0,1-.715-2.324V26.547H58v5.492a.946.946,0,0,0,1.055,1.086,1.376,1.376,0,0,0,1.289-.648v-5.93h2.648V35H60.523Zm9.1-5.156-.867-.062a1.558,1.558,0,0,0-1.594.781V35H64.453V26.547h2.469l.086,1.086a2.039,2.039,0,0,1,1.852-1.242,2.567,2.567,0,0,1,.734.094Zm5.375,3.7a.608.608,0,0,0-.352-.539,5.348,5.348,0,0,0-1.336-.422,6.092,6.092,0,0,1-1.625-.574,2.722,2.722,0,0,1-.977-.863,2.061,2.061,0,0,1-.336-1.164,2.336,2.336,0,0,1,.961-1.918,3.958,3.958,0,0,1,2.516-.754,4.386,4.386,0,0,1,2.688.758,2.37,2.37,0,0,1,1.016,1.992H74.836q0-1.016-1.07-1.016a1.061,1.061,0,0,0-.7.23.714.714,0,0,0-.281.574.655.655,0,0,0,.344.57,3.248,3.248,0,0,0,1.1.359,9.486,9.486,0,0,1,1.324.336,2.406,2.406,0,0,1,1.906,2.352,2.214,2.214,0,0,1-1.027,1.883,4.505,4.505,0,0,1-2.66.727,4.6,4.6,0,0,1-1.937-.391A3.24,3.24,0,0,1,70.508,33.7a2.406,2.406,0,0,1-.477-1.414h2.461a1.017,1.017,0,0,0,.391.855,1.607,1.607,0,0,0,.961.27,1.264,1.264,0,0,0,.809-.219A.7.7,0,0,0,74.922,32.625Zm3.438-1.93a4.989,4.989,0,0,1,.492-2.254,3.52,3.52,0,0,1,1.414-1.52,4.259,4.259,0,0,1,2.164-.531,3.887,3.887,0,0,1,2.992,1.176,4.512,4.512,0,0,1,1.094,3.2v.094A4.378,4.378,0,0,1,85.418,34a3.9,3.9,0,0,1-2.973,1.16,3.942,3.942,0,0,1-2.9-1.082,4.232,4.232,0,0,1-1.18-2.934Zm2.633.164a3.145,3.145,0,0,0,.367,1.719,1.223,1.223,0,0,0,1.086.547q1.406,0,1.438-2.164V30.7q0-2.273-1.453-2.273-1.32,0-1.43,1.961ZM92.1,32.625a.608.608,0,0,0-.352-.539,5.348,5.348,0,0,0-1.336-.422,6.092,6.092,0,0,1-1.625-.574,2.722,2.722,0,0,1-.977-.863,2.061,2.061,0,0,1-.336-1.164,2.336,2.336,0,0,1,.961-1.918,3.958,3.958,0,0,1,2.516-.754,4.386,4.386,0,0,1,2.688.758,2.37,2.37,0,0,1,1.016,1.992H92.016q0-1.016-1.07-1.016a1.061,1.061,0,0,0-.7.23.714.714,0,0,0-.281.574.655.655,0,0,0,.344.57,3.248,3.248,0,0,0,1.1.359,9.486,9.486,0,0,1,1.324.336,2.406,2.406,0,0,1,1.906,2.352,2.214,2.214,0,0,1-1.027,1.883,4.505,4.505,0,0,1-2.66.727,4.6,4.6,0,0,1-1.937-.391A3.24,3.24,0,0,1,87.688,33.7a2.406,2.406,0,0,1-.477-1.414h2.461a1.017,1.017,0,0,0,.391.855,1.607,1.607,0,0,0,.961.27,1.264,1.264,0,0,0,.809-.219A.7.7,0,0,0,92.1,32.625Zm7.422-1.914a5.164,5.164,0,0,1,.867-3.164,2.854,2.854,0,0,1,2.422-1.156,2.428,2.428,0,0,1,1.906.891V23h2.641V35h-2.367l-.133-.906a2.493,2.493,0,0,1-2.062,1.063A2.849,2.849,0,0,1,100.406,34,5.327,5.327,0,0,1,99.523,30.711Zm2.633.164q0,2.25,1.313,2.25a1.3,1.3,0,0,0,1.25-.734V29.172a1.261,1.261,0,0,0-1.234-.75q-1.219,0-1.32,1.969Zm10.789,4.281A4.345,4.345,0,0,1,109.8,34a4.006,4.006,0,0,1-1.2-3.02v-.219a5.191,5.191,0,0,1,.48-2.289,3.516,3.516,0,0,1,1.4-1.535,4.233,4.233,0,0,1,2.188-.543,3.659,3.659,0,0,1,2.813,1.105,4.344,4.344,0,0,1,1.031,3.082V31.6h-5.234a1.9,1.9,0,0,0,.617,1.117,1.836,1.836,0,0,0,1.234.406,2.366,2.366,0,0,0,1.953-.875l1.2,1.422a3.363,3.363,0,0,1-1.395,1.082A4.713,4.713,0,0,1,112.945,35.156Zm-.3-6.734q-1.156,0-1.375,1.531h2.656v-.2a1.3,1.3,0,0,0-.32-.98A1.275,1.275,0,0,0,112.648,28.422ZM9.848,55H7.207V43H9.848Zm6.383,0a2.973,2.973,0,0,1-.25-.758,2.448,2.448,0,0,1-2.031.914,3,3,0,0,1-2.031-.723,2.3,2.3,0,0,1-.836-1.816A2.364,2.364,0,0,1,12.1,50.539a5.174,5.174,0,0,1,2.953-.7h.813v-.448q0-1.17-1.008-1.17a.824.824,0,0,0-.937.926H11.285a2.36,2.36,0,0,1,1.043-1.99,4.383,4.383,0,0,1,2.66-.765,3.843,3.843,0,0,1,2.555.789,2.743,2.743,0,0,1,.961,2.164v3.742a3.832,3.832,0,0,0,.359,1.781V55Zm-1.648-1.719a1.469,1.469,0,0,0,.816-.211,1.322,1.322,0,0,0,.465-.477V51.242H15.1q-1.375,0-1.375,1.234a.754.754,0,0,0,.242.582A.876.876,0,0,0,14.582,53.281ZM23.613,50.7a4.989,4.989,0,0,1,.492-2.254,3.52,3.52,0,0,1,1.414-1.52,4.259,4.259,0,0,1,2.164-.531,3.887,3.887,0,0,1,2.992,1.176,4.512,4.512,0,0,1,1.094,3.2v.094A4.378,4.378,0,0,1,30.672,54a3.9,3.9,0,0,1-2.973,1.16,3.942,3.942,0,0,1-2.9-1.082,4.232,4.232,0,0,1-1.18-2.934Zm2.633.164a3.145,3.145,0,0,0,.367,1.719,1.223,1.223,0,0,0,1.086.547q1.406,0,1.438-2.164V50.7q0-2.273-1.453-2.273-1.32,0-1.43,1.961Zm11.8-1.93-.867-.062a1.558,1.558,0,0,0-1.594.781V55H32.949V46.547h2.469l.086,1.086a2.039,2.039,0,0,1,1.852-1.242,2.567,2.567,0,0,1,.734.094Zm.492,1.781a5.708,5.708,0,0,1,.422-2.266,3.4,3.4,0,0,1,1.211-1.52A3.192,3.192,0,0,1,42,46.391a2.538,2.538,0,0,1,2.063.891l.094-.734h2.391V54.68a3.564,3.564,0,0,1-.52,1.941,3.334,3.334,0,0,1-1.5,1.266,5.528,5.528,0,0,1-2.281.441,4.769,4.769,0,0,1-1.8-.352,3.251,3.251,0,0,1-1.332-.914l1.1-1.547a2.414,2.414,0,0,0,1.938.867,1.568,1.568,0,0,0,1.75-1.8V54.32a2.472,2.472,0,0,1-1.914.836,3.055,3.055,0,0,1-2.5-1.184,4.9,4.9,0,0,1-.953-3.168Zm2.641.164a3.007,3.007,0,0,0,.391,1.645,1.232,1.232,0,0,0,1.094.605,1.4,1.4,0,0,0,1.242-.57V49a1.363,1.363,0,0,0-1.227-.578,1.241,1.241,0,0,0-1.1.629A3.429,3.429,0,0,0,41.176,50.875ZM52.809,55a2.973,2.973,0,0,1-.25-.758,2.448,2.448,0,0,1-2.031.914,3,3,0,0,1-2.031-.723,2.3,2.3,0,0,1-.836-1.816,2.364,2.364,0,0,1,1.016-2.078,5.174,5.174,0,0,1,2.953-.7h.813v-.448q0-1.17-1.008-1.17a.824.824,0,0,0-.937.926H47.863a2.36,2.36,0,0,1,1.043-1.99,4.383,4.383,0,0,1,2.66-.765,3.843,3.843,0,0,1,2.555.789,2.743,2.743,0,0,1,.961,2.164v3.742a3.832,3.832,0,0,0,.359,1.781V55ZM51.16,53.281a1.469,1.469,0,0,0,.816-.211,1.322,1.322,0,0,0,.465-.477V51.242h-.766q-1.375,0-1.375,1.234a.754.754,0,0,0,.242.582A.876.876,0,0,0,51.16,53.281Zm7.8-6.734.086.992a2.867,2.867,0,0,1,2.414-1.148,2.412,2.412,0,0,1,1.973.789,3.757,3.757,0,0,1,.676,2.375V55H61.465V49.664a1.426,1.426,0,0,0-.258-.941,1.193,1.193,0,0,0-.937-.3,1.256,1.256,0,0,0-1.148.609V55H56.488V46.547ZM68.34,55H65.7V46.547H68.34Zm-2.8-10.633a1.175,1.175,0,0,1,.406-.922,1.727,1.727,0,0,1,2.109,0,1.249,1.249,0,0,1,0,1.844,1.727,1.727,0,0,1-2.109,0A1.175,1.175,0,0,1,65.543,44.367Zm7.523,8.6h3.852V55h-7.18V53.531l3.75-4.953H69.9V46.547h6.93v1.422ZM82.957,55a2.973,2.973,0,0,1-.25-.758,2.448,2.448,0,0,1-2.031.914,3,3,0,0,1-2.031-.723,2.3,2.3,0,0,1-.836-1.816,2.364,2.364,0,0,1,1.016-2.078,5.174,5.174,0,0,1,2.953-.7h.813v-.448q0-1.17-1.008-1.17a.824.824,0,0,0-.937.926H78.012a2.36,2.36,0,0,1,1.043-1.99,4.383,4.383,0,0,1,2.66-.765,3.843,3.843,0,0,1,2.555.789,2.743,2.743,0,0,1,.961,2.164v3.742a3.832,3.832,0,0,0,.359,1.781V55Zm-1.648-1.719a1.469,1.469,0,0,0,.816-.211,1.322,1.322,0,0,0,.465-.477V51.242h-.766q-1.375,0-1.375,1.234a.754.754,0,0,0,.242.582A.876.876,0,0,0,81.309,53.281Zm8.953-.156a1.171,1.171,0,0,0,.859-.3,1.1,1.1,0,0,0,.3-.84h2.469a2.923,2.923,0,0,1-1,2.281,3.705,3.705,0,0,1-2.566.891A3.751,3.751,0,0,1,87.418,54a4.556,4.556,0,0,1-1.062-3.2v-.109a5.149,5.149,0,0,1,.473-2.262,3.441,3.441,0,0,1,1.363-1.508,4.065,4.065,0,0,1,2.109-.527,3.658,3.658,0,0,1,2.617.914,3.242,3.242,0,0,1,.969,2.477H91.418a1.445,1.445,0,0,0-.32-1.008,1.106,1.106,0,0,0-.859-.352q-1.023,0-1.2,1.3a9.206,9.206,0,0,0-.055,1.141,3.616,3.616,0,0,0,.3,1.766A1.055,1.055,0,0,0,90.262,53.125ZM97.777,55H95.137V46.547h2.641Zm-2.8-10.633a1.175,1.175,0,0,1,.406-.922,1.727,1.727,0,0,1,2.109,0,1.249,1.249,0,0,1,0,1.844,1.727,1.727,0,0,1-2.109,0A1.175,1.175,0,0,1,94.98,44.367ZM99.066,50.7a4.989,4.989,0,0,1,.492-2.254,3.52,3.52,0,0,1,1.414-1.52,4.259,4.259,0,0,1,2.164-.531,3.887,3.887,0,0,1,2.992,1.176,4.512,4.512,0,0,1,1.094,3.2v.094a4.378,4.378,0,0,1-1.1,3.137,3.9,3.9,0,0,1-2.973,1.16,3.942,3.942,0,0,1-2.9-1.082,4.232,4.232,0,0,1-1.18-2.934Zm2.633.164a3.145,3.145,0,0,0,.367,1.719,1.223,1.223,0,0,0,1.086.547q1.406,0,1.438-2.164V50.7q0-2.273-1.453-2.273-1.32,0-1.43,1.961ZM103.5,43h2.781l-2.172,2.453-2.148,0Zm7.3,3.547.086.992a2.867,2.867,0,0,1,2.414-1.148,2.412,2.412,0,0,1,1.973.789,3.757,3.757,0,0,1,.676,2.375V55h-2.641V49.664a1.426,1.426,0,0,0-.258-.941,1.193,1.193,0,0,0-.937-.3,1.256,1.256,0,0,0-1.148.609V55h-2.633V46.547Z" transform="translate(428 1648)" fill="#12263f"/>
    <g id="Grupo_1082727" data-name="Grupo 1082727" transform="translate(469.349 1604.412)">
      <g id="Grupo_1082717" data-name="Grupo 1082717" clip-path="url(#clip-path-2)">
        <path id="Trazado_832740" data-name="Trazado 832740" d="M18.978,0c.223.056.449.1.669.169A4.265,4.265,0,0,1,21.854,1.6,3.456,3.456,0,0,0,24.1,2.888a4.422,4.422,0,0,1,3.615,3.667,3.349,3.349,0,0,0,1.213,2.126,4.412,4.412,0,0,1,1.351,5.1,3.322,3.322,0,0,0,0,2.375,4.437,4.437,0,0,1-1.41,5.15,2.813,2.813,0,0,0-1.079,1.734,4.811,4.811,0,0,1-1.6,3.026c.074.134.14.257.21.378L31,34.413c.064.112.134.221.193.335a.778.778,0,0,1-.895,1.134L26.267,34.8c-.086-.023-.174-.036-.3-.061-.239.879-.475,1.746-.709,2.613-.134.5-.275.993-.395,1.494-.094.394-.268.711-.7.774s-.679-.2-.882-.553q-2.526-4.391-5.061-8.776a.739.739,0,0,0-.6-.447,5.361,5.361,0,0,1-1.036-.3,2.92,2.92,0,0,0-1.713-.06c-.484.128-.971.252-1.445.411a.7.7,0,0,0-.3.319q-2.53,4.366-5.051,8.738c-.032.056-.065.111-.1.168a.8.8,0,0,1-.835.5.831.831,0,0,1-.7-.723c-.308-1.171-.623-2.34-.936-3.509-.056-.209-.117-.417-.186-.663-.965.256-1.908.505-2.85.756-.423.113-.847.223-1.267.347A.857.857,0,0,1,.153,35.6c-.278-.373-.132-.719.074-1.075q2.153-3.713,4.294-7.433c.174-.3.49-.609.478-.9-.011-.272-.373-.53-.581-.794a4.39,4.39,0,0,1-.907-2.107,3.1,3.1,0,0,0-1.174-2.02,4.178,4.178,0,0,1-1.648-3.2,5.848,5.848,0,0,1,.279-1.891,3.587,3.587,0,0,0-.009-2.414,4.432,4.432,0,0,1,1.37-5.1,3.3,3.3,0,0,0,1.19-2.054A4.445,4.445,0,0,1,7.311,2.858,2.976,2.976,0,0,0,9.223,1.787,4.519,4.519,0,0,1,12.144.055a.324.324,0,0,0,.1-.056H13.4A13.4,13.4,0,0,0,14.946.45a3.948,3.948,0,0,0,1.331,0A12.933,12.933,0,0,0,17.817,0Zm10.077,12.34a2.963,2.963,0,0,0-1.037-2.4A4.958,4.958,0,0,1,26.166,6.7a2.806,2.806,0,0,0-2.3-2.283,4.988,4.988,0,0,1-3.207-1.83,2.809,2.809,0,0,0-3.256-.852,4.842,4.842,0,0,1-3.544.01,2.842,2.842,0,0,0-3.316.881A4.859,4.859,0,0,1,7.516,4.4a2.872,2.872,0,0,0-2.476,2.51A4.622,4.622,0,0,1,3.392,9.8a2.908,2.908,0,0,0-.949,3.532,4.609,4.609,0,0,1,.01,3.251A2.916,2.916,0,0,0,3.4,20.145a4.625,4.625,0,0,1,1.638,2.892,2.91,2.91,0,0,0,2.487,2.505A4.665,4.665,0,0,1,10.455,27.2a2.905,2.905,0,0,0,3.534.947,4.623,4.623,0,0,1,3.288.007,2.913,2.913,0,0,0,3.5-.938,4.631,4.631,0,0,1,2.8-1.649,2.933,2.933,0,0,0,2.651-2.658,4.522,4.522,0,0,1,1.6-2.746,2.929,2.929,0,0,0,.96-3.6,4.553,4.553,0,0,1,0-3.212,8.879,8.879,0,0,0,.26-1.011M19.694,29.751l4.1,7.087c.046-.151.062-.2.075-.246.258-.958.513-1.916.773-2.873a.809.809,0,0,1,1.131-.655c.337.085.671.184,1.007.273.689.182,1.379.362,2.144.562l-4.056-7.02c-.4.083-.74.155-1.081.223a2.7,2.7,0,0,0-1.627.9,5.007,5.007,0,0,1-2.46,1.746M2.373,33.914c1.095-.3,2.1-.568,3.1-.836.68-.181,1.013.017,1.2.7L7.5,36.85l4.089-7.079A4.006,4.006,0,0,1,9.5,28.444a4.083,4.083,0,0,0-3.084-1.532l-4.042,7" transform="translate(0 0.001)" fill="#fff"/>
        <path id="Trazado_832741" data-name="Trazado 832741" d="M74.165,65.692a10.061,10.061,0,1,1-20.1-.618,9.809,9.809,0,0,1,6.023-8.607,2.607,2.607,0,0,1,.36-.139.767.767,0,0,1,.932.42.752.752,0,0,1-.284.951,2.939,2.939,0,0,1-.417.2,8.517,8.517,0,1,0,6.842,0c-.071-.031-.144-.057-.214-.089a.779.779,0,1,1,.592-1.432,10.067,10.067,0,0,1,6.267,9.315" transform="translate(-48.45 -50.472)" fill="#fff"/>
        <path id="Trazado_832742" data-name="Trazado 832742" d="M96.83,101.241c1.07-1.071,2.1-2.1,3.13-3.133.591-.591.931-.588,1.529.011q1.026,1.027,2.051,2.054a.819.819,0,0,1,0,1.36q-3.009,3.012-6.022,6.021a.815.815,0,0,1-1.359.011q-2.138-2.132-4.27-4.269a.808.808,0,0,1,0-1.332q1.091-1.1,2.19-2.189a.809.809,0,0,1,1.307.006c.477.471.945.95,1.45,1.46m-3.317,1.337,3.348,3.348,5.068-5.071-1.266-1.269c-1.025,1.028-2.071,2.079-3.119,3.127a.841.841,0,0,1-1.417,0c-.461-.463-.918-.93-1.373-1.393l-1.241,1.254" transform="translate(-82.071 -87.569)" fill="#fff"/>
        <path id="Trazado_832743" data-name="Trazado 832743" d="M144.68,50.028a.761.761,0,0,1,.739.785.772.772,0,1,1-1.542-.063.762.762,0,0,1,.8-.721" transform="translate(-128.999 -44.854)" fill="#fff"/>
      </g>
    </g>
    <g id="Grupo_1082728" data-name="Grupo 1082728" transform="translate(265 1748.87)">
      <g id="Grupo_1082719" data-name="Grupo 1082719" clip-path="url(#clip-path-3)">
        <path id="Trazado_832744" data-name="Trazado 832744" d="M13.694,0a8.357,8.357,0,0,1,.968.4,3.273,3.273,0,0,1,1.676,2.69,3.414,3.414,0,0,1,2.024-.565,3.167,3.167,0,0,1,2.96,2.96c.027.564.016,1.131.007,1.7a.645.645,0,0,1-.637.7.656.656,0,0,1-.632-.709c-.011-.466,0-.933,0-1.4a1.884,1.884,0,0,0-1.884-1.973,1.832,1.832,0,0,0-1.836,1.958q-.007,4.813,0,9.627a3.59,3.59,0,0,1-.008.424.589.589,0,0,1-.576.571.6.6,0,0,1-.674-.511,2.006,2.006,0,0,1-.021-.464q0-5.98-.013-11.959a2.915,2.915,0,0,0-.13-.914,1.846,1.846,0,0,0-3.593.618q-.008,6.107,0,12.214a3.972,3.972,0,0,1-.006.424.635.635,0,0,1-1.268-.021c-.01-.127,0-.254,0-.382q0-4.792,0-9.584a1.868,1.868,0,1,0-3.73-.2c-.008.169-.006.339-.006.509q0,4.665,0,9.33a1.726,1.726,0,0,1-.064.541.514.514,0,0,1-.661.379,1.33,1.33,0,0,1-.53-.512c-.068-.1-.022-.275-.022-.416,0-1.555.008-3.11,0-4.665a1.863,1.863,0,0,0-3.71-.316,5.327,5.327,0,0,0-.022.593c0,5.216.013,10.433-.007,15.649a9.557,9.557,0,0,0,2.272,6.4,3.892,3.892,0,0,1,.929,2.615c-.011,1.852,0,3.7,0,5.555,0,.693.2.889.879.889H16.048c.661,0,.864-.2.865-.855,0-1.809.014-3.619,0-5.428a4.192,4.192,0,0,1,1.4-3.191q4.932-4.781,9.816-9.612A1.594,1.594,0,0,0,28,20.552a3.341,3.341,0,0,0-4.423.045c-1.068.988-2.074,2.044-3.106,3.07a2.7,2.7,0,0,1-3.357.617,5,5,0,1,0-3.858,9.229c.066.026.133.048.2.076a.639.639,0,1,1-.434,1.2,6.115,6.115,0,0,1-2.789-1.925,6.28,6.28,0,0,1,7.236-9.814,1.74,1.74,0,0,0,2.486-.685.835.835,0,0,0,.1-.473q.008-5.683,0-11.366a1.9,1.9,0,0,1,.017-.422.631.631,0,0,1,1.25.045,3,3,0,0,1,.008.424q0,4.919,0,9.839v.581c.23-.226.382-.4.558-.544a12.334,12.334,0,0,1,1.92-1.5,4.531,4.531,0,0,1,5.25.849,2.863,2.863,0,0,1,.181,3.951c-.055.064-.112.128-.172.187Q24.1,28.8,19.132,33.659a2.865,2.865,0,0,0-.944,2.179c.014,1.838.006,3.675,0,5.513A1.918,1.918,0,0,1,16.1,43.428q-5.407,0-10.814,0A1.926,1.926,0,0,1,3.2,41.337c-.005-1.852-.014-3.7,0-5.555A2.93,2.93,0,0,0,2.49,33.8,10.288,10.288,0,0,1,.017,27.1q-.028-8.164,0-16.327A3.132,3.132,0,0,1,4.812,8c.047.026.1.045.214.1,0-.814,0-1.583,0-2.351a3.131,3.131,0,0,1,.867-2.233,3.092,3.092,0,0,1,3.8-.607l.208.113a14.015,14.015,0,0,1,.734-1.694A3.194,3.194,0,0,1,12.676,0Z" transform="translate(0)" fill="#fff"/>
        <path id="Trazado_832745" data-name="Trazado 832745" d="M209.636,45.207l-5.287-9.159-5.27,9.126c.211.01.36.023.508.023q3.01,0,6.019,0c.141,0,.283,0,.424.006a.613.613,0,0,1,.629.606.657.657,0,0,1-.622.679,5.4,5.4,0,0,1-.551.007q-3.073,0-6.146,0a1.352,1.352,0,0,1-1.267-2.183q2.5-4.348,5.016-8.692a1.349,1.349,0,0,1,2.523.007q2.511,4.344,5.016,8.692a1.39,1.39,0,0,1-.026,1.693,1.789,1.789,0,0,1-1.8.435.6.6,0,0,1-.462-.677.582.582,0,0,1,.585-.562c.205-.017.413,0,.71,0" transform="translate(-175.385 -30.817)" fill="#fff"/>
        <path id="Trazado_832746" data-name="Trazado 832746" d="M249.626,70.846a5.343,5.343,0,0,1,.006-.716.661.661,0,0,1,1.319.009,10.143,10.143,0,0,1,0,1.39.67.67,0,0,1-.666.636.688.688,0,0,1-.66-.646,6.189,6.189,0,0,1,0-.674h0" transform="translate(-221.329 -61.641)" fill="#fff"/>
        <path id="Trazado_832747" data-name="Trazado 832747" d="M251.042,105.176a.667.667,0,0,1-1.334-.029.667.667,0,0,1,1.334.029" transform="translate(-221.412 -92.667)" fill="#fff"/>
      </g>
    </g>
    <g id="Grupo_1082729" data-name="Grupo 1082729" transform="translate(468.87 1864.855)">
      <g id="Grupo_1082721" data-name="Grupo 1082721" clip-path="url(#clip-path-4)">
        <path id="Trazado_832748" data-name="Trazado 832748" d="M12.748,36.519c-.056.142-.1.258-.148.37a3.068,3.068,0,0,1-2.876,2.026c-2.207.042-4.416.038-6.624,0a3.171,3.171,0,0,1-3.09-3.065C0,35.7,0,35.54,0,35.385Q0,25.344.011,15.3a4.064,4.064,0,0,1,.235-1.492,3.1,3.1,0,0,1,3.039-2.046c2.095-.027,4.19-.02,6.284,0A3.26,3.26,0,0,1,12.809,14.5a.784.784,0,0,0,.178-.086c.515-.443,1.034-.882,1.538-1.337a5.256,5.256,0,0,0,1.551-3.261c.382-2.386.8-4.766,1.207-7.149A3.187,3.187,0,0,1,21.4.158a5.389,5.389,0,0,1,3.59,4.026,14.316,14.316,0,0,1,.218,5.644c-.085.687-.221,1.367-.334,2.05a.929.929,0,0,0,.9,1.163c.155.012.311.008.467.008q5.265,0,10.531,0a4.157,4.157,0,0,1,2.553.766,3.646,3.646,0,0,1-.6,6.242c-.139.068-.282.128-.454.206a3.73,3.73,0,0,1-2.432,5.891,3.741,3.741,0,0,1,.364,3.418,3.7,3.7,0,0,1-2.576,2.262c.065.125.118.233.176.338a3.656,3.656,0,0,1-3.124,5.474c-4.713.041-9.426.016-14.139,0a7.422,7.422,0,0,1-3.371-.9l-.432-.223m.112-10.846c0,2.873,0,5.745.007,8.618a.632.632,0,0,0,.168.466,7.166,7.166,0,0,0,3.979,1.272c4.487-.009,8.973,0,13.46,0a2.058,2.058,0,1,0,.032-4.11c-.976-.012-1.953,0-2.93,0a3,3,0,0,1-.423-.02.807.807,0,0,1-.024-1.6,2.848,2.848,0,0,1,.465-.02c1.769,0,3.539.015,5.307-.016A2,2,0,0,0,34.851,28.2a2.041,2.041,0,0,0-1.986-2.028c-.736-.02-1.472-.006-2.208-.007-.595,0-1.189.013-1.783-.007a.809.809,0,1,1,.01-1.618c.127-.007.255,0,.382,0,1.925,0,3.85,0,5.775,0a3.866,3.866,0,0,0,.759-.065,2.055,2.055,0,0,0-.551-4.054c-1.288-.009-2.576,0-3.864-.006a.808.808,0,0,1-.861-.991.839.839,0,0,1,.929-.634c1.911,0,3.822.008,5.732-.006a2.045,2.045,0,0,0,1.993-1.7,1.946,1.946,0,0,0-1.293-2.221,3.4,3.4,0,0,0-1.12-.169c-3.524-.012-7.049-.006-10.573-.009a5.814,5.814,0,0,1-.72-.037,2.551,2.551,0,0,1-2.2-2.984c.152-.92.323-1.84.407-2.768a10.907,10.907,0,0,0-.374-4.7,3.739,3.739,0,0,0-2.33-2.469,1.521,1.521,0,0,0-2.011,1.03,6.7,6.7,0,0,0-.121.75c-.384,2.2-.807,4.394-1.143,6.6a7.086,7.086,0,0,1-2.662,4.711c-.654.517-1.26,1.1-1.9,1.629a.708.708,0,0,0-.281.612c.01,2.873.006,5.745.006,8.618M1.63,25.325q0,5.05,0,10.1c0,1.29.6,1.881,1.9,1.881H9.346a1.659,1.659,0,0,0,1.876-1.876q0-10.079,0-20.158A1.655,1.655,0,0,0,9.371,13.41q-2.95-.007-5.9,0A1.627,1.627,0,0,0,1.63,15.267q0,5.029,0,10.058" transform="translate(0 -0.001)" fill="#fff"/>
      </g>
    </g>
    <g id="Grupo_1082730" data-name="Grupo 1082730" transform="translate(206 -7532)">
      <circle id="Elipse_5841" data-name="Elipse 5841" cx="19.5" cy="19.5" r="19.5" transform="translate(261 9081)" fill="#12263f"/>
      <text id="_1" data-name="1" transform="translate(276 9107)" fill="#fff" font-size="18" font-family="Roboto-Bold, Roboto" font-weight="700"><tspan x="0" y="0">1</tspan></text>
    </g>
    <g id="Grupo_1082731" data-name="Grupo 1082731" transform="translate(-5 -7381)">
      <circle id="Elipse_5841-2" data-name="Elipse 5841" cx="19.5" cy="19.5" r="19.5" transform="translate(261 9081)" fill="#12263f"/>
      <text id="_2" data-name="2" transform="translate(276 9107)" fill="#fff" font-size="18" font-family="Roboto-Bold, Roboto" font-weight="700"><tspan x="0" y="0">2</tspan></text>
    </g>
    <g id="Grupo_1082732" data-name="Grupo 1082732" transform="translate(208 -7270)">
      <circle id="Elipse_5841-3" data-name="Elipse 5841" cx="19.5" cy="19.5" r="19.5" transform="translate(261 9081)" fill="#12263f"/>
      <text id="_3" data-name="3" transform="translate(276 9107)" fill="#fff" font-size="18" font-family="Roboto-Bold, Roboto" font-weight="700"><tspan x="0" y="0">3</tspan></text>
    </g>
  </g>
</svg>
