<svg xmlns="http://www.w3.org/2000/svg" xmlns:xlink="http://www.w3.org/1999/xlink" width="607.006" height="554.998" viewBox="0 0 607.006 554.998">
  <defs>
    <clipPath id="clip-path">
      <rect id="Rectángulo_384423" data-name="Rectángulo 384423" width="607.006" height="554.998" fill="none"/>
    </clipPath>
    <clipPath id="clip-path-3">
      <rect id="Rectángulo_384419" data-name="Rectángulo 384419" width="182.043" height="49.691" fill="none"/>
    </clipPath>
    <clipPath id="clip-path-4">
      <rect id="Rectángulo_384420" data-name="Rectángulo 384420" width="102.638" height="158.51" fill="none"/>
    </clipPath>
    <clipPath id="clip-path-5">
      <rect id="Rectángulo_384421" data-name="Rectángulo 384421" width="102.637" height="158.51" fill="none"/>
    </clipPath>
    <clipPath id="clip-path-6">
      <rect id="Rectángulo_384424" data-name="Rectángulo 384424" width="39.438" height="49.934" fill="none"/>
    </clipPath>
    <clipPath id="clip-path-7">
      <rect id="Rectángulo_384425" data-name="Rectángulo 384425" width="41.1" height="50.259" fill="none"/>
    </clipPath>
    <clipPath id="clip-path-8">
      <rect id="Rectángulo_384426" data-name="Rectángulo 384426" width="46.13" height="44" fill="none"/>
    </clipPath>
  </defs>
  <g id="Grupo_1083317" data-name="Grupo 1083317" transform="translate(-496.497 -598)">
    <g id="Grupo_1082716" data-name="Grupo 1082716" transform="translate(496.497 598)">
      <g id="Grupo_1082715" data-name="Grupo 1082715" clip-path="url(#clip-path)">
        <g id="Grupo_1082714" data-name="Grupo 1082714">
          <g id="Grupo_1082713" data-name="Grupo 1082713" clip-path="url(#clip-path)">
            <path id="Trazado_832677" data-name="Trazado 832677" d="M322.307,489.438A97.5,97.5,0,0,1,259.686,317.2L92.134,413.937A97.513,97.513,0,0,1,180.807,587.35l.252.436L370.821,476.531l-.014-.025a97.014,97.014,0,0,1-48.5,12.931" transform="translate(-17.746 -61.095)" fill="#cadeb4"/>
            <path id="Trazado_832678" data-name="Trazado 832678" d="M353.954,20.3a97.509,97.509,0,1,0,97.509,97.51A97.51,97.51,0,0,0,353.954,20.3m0,176.831a79.321,79.321,0,1,1,79.321-79.321,79.32,79.32,0,0,1-79.321,79.321" transform="translate(-49.392 -3.91)" fill="#939eba"/>
            <path id="Trazado_832679" data-name="Trazado 832679" d="M278.972,122.149a79.321,79.321,0,1,1,79.321,79.321,79.32,79.32,0,0,1-79.321-79.321" transform="translate(-53.732 -8.249)" fill="#c1cdf5"/>
            <g id="Grupo_1082706" data-name="Grupo 1082706" transform="translate(213.539)" opacity="0.7">
              <g id="Grupo_1082705" data-name="Grupo 1082705">
                <g id="Grupo_1082704" data-name="Grupo 1082704" clip-path="url(#clip-path-3)">
                  <path id="Trazado_832680" data-name="Trazado 832680" d="M379.642,3.188A3.188,3.188,0,1,1,376.454,0a3.188,3.188,0,0,1,3.188,3.188" transform="translate(-285.432)" fill="#c1cdf5"/>
                  <path id="Trazado_832681" data-name="Trazado 832681" d="M361.716,3.946A3.188,3.188,0,1,1,358.139,1.2a3.187,3.187,0,0,1,3.577,2.744" transform="translate(-281.984 -0.226)" fill="#c1cdf5"/>
                  <path id="Trazado_832682" data-name="Trazado 832682" d="M344.044,7.035a3.188,3.188,0,1,1-3.905-2.254,3.188,3.188,0,0,1,3.905,2.254" transform="translate(-278.596 -0.9)" fill="#c1cdf5"/>
                  <path id="Trazado_832683" data-name="Trazado 832683" d="M326.925,12.406a3.188,3.188,0,1,1-4.165-1.725,3.187,3.187,0,0,1,4.165,1.725" transform="translate(-275.325 -2.01)" fill="#c1cdf5"/>
                  <path id="Trazado_832684" data-name="Trazado 832684" d="M310.653,19.965A3.188,3.188,0,1,1,306.3,18.8a3.189,3.189,0,0,1,4.355,1.167" transform="translate(-272.226 -3.538)" fill="#c1cdf5"/>
                  <path id="Trazado_832685" data-name="Trazado 832685" d="M295.508,29.583a3.188,3.188,0,1,1-4.47-.589,3.187,3.187,0,0,1,4.47.589" transform="translate(-269.354 -5.458)" fill="#c1cdf5"/>
                  <path id="Trazado_832686" data-name="Trazado 832686" d="M281.748,41.1a3.188,3.188,0,1,1-4.509,0,3.186,3.186,0,0,1,4.509,0" transform="translate(-266.757 -7.736)" fill="#c1cdf5"/>
                  <path id="Trazado_832687" data-name="Trazado 832687" d="M269.608,54.307a3.188,3.188,0,1,1-4.471.589,3.189,3.189,0,0,1,4.471-.589" transform="translate(-264.479 -10.333)" fill="#c1cdf5"/>
                  <path id="Trazado_832688" data-name="Trazado 832688" d="M281.748,41.1a3.188,3.188,0,1,1-4.509,0,3.186,3.186,0,0,1,4.509,0" transform="translate(-266.757 -7.736)" fill="#c1cdf5"/>
                  <path id="Trazado_832689" data-name="Trazado 832689" d="M269.608,54.307a3.188,3.188,0,1,1-4.471.589,3.189,3.189,0,0,1,4.471-.589" transform="translate(-264.479 -10.333)" fill="#c1cdf5"/>
                  <path id="Trazado_832690" data-name="Trazado 832690" d="M391.19,3.946A3.188,3.188,0,1,0,394.767,1.2a3.188,3.188,0,0,0-3.577,2.744" transform="translate(-288.879 -0.226)" fill="#c1cdf5"/>
                  <path id="Trazado_832691" data-name="Trazado 832691" d="M408.865,7.035a3.188,3.188,0,1,0,3.9-2.254,3.188,3.188,0,0,0-3.9,2.254" transform="translate(-292.267 -0.9)" fill="#c1cdf5"/>
                  <path id="Trazado_832692" data-name="Trazado 832692" d="M425.983,12.406a3.188,3.188,0,1,0,4.165-1.725,3.188,3.188,0,0,0-4.165,1.725" transform="translate(-295.539 -2.01)" fill="#c1cdf5"/>
                  <path id="Trazado_832693" data-name="Trazado 832693" d="M442.253,19.965a3.188,3.188,0,1,0,4.356-1.167,3.189,3.189,0,0,0-4.356,1.167" transform="translate(-298.637 -3.538)" fill="#c1cdf5"/>
                  <path id="Trazado_832694" data-name="Trazado 832694" d="M457.4,29.583a3.189,3.189,0,1,0,4.47-.589,3.189,3.189,0,0,0-4.47.589" transform="translate(-301.51 -5.458)" fill="#c1cdf5"/>
                  <path id="Trazado_832695" data-name="Trazado 832695" d="M471.159,41.1a3.188,3.188,0,1,0,4.509,0,3.188,3.188,0,0,0-4.509,0" transform="translate(-304.107 -7.736)" fill="#c1cdf5"/>
                  <path id="Trazado_832696" data-name="Trazado 832696" d="M483.3,54.307a3.188,3.188,0,1,0,4.47.589,3.187,3.187,0,0,0-4.47-.589" transform="translate(-306.385 -10.333)" fill="#c1cdf5"/>
                </g>
              </g>
            </g>
            <path id="Trazado_832697" data-name="Trazado 832697" d="M635.77,439.52a97.51,97.51,0,1,0,35.691,133.2,97.509,97.509,0,0,0-35.691-133.2M655.7,563.62a79.308,79.308,0,1,1-29.029-108.338A79.309,79.309,0,0,1,655.7,563.62" transform="translate(-94.279 -82.135)" fill="#b78d83"/>
            <path id="Trazado_832698" data-name="Trazado 832698" d="M551.7,596.992a79.308,79.308,0,1,1,108.337-29.028A79.309,79.309,0,0,1,551.7,596.992" transform="translate(-98.621 -86.478)" fill="#f9bcab"/>
            <path id="Trazado_832699" data-name="Trazado 832699" d="M82.952,459.626A79.308,79.308,0,1,1,53.923,567.964,79.308,79.308,0,0,1,82.952,459.626" transform="translate(-8.337 -86.478)" fill="#cadeb4"/>
            <g id="Grupo_1082709" data-name="Grupo 1082709" transform="translate(0 396.488)" opacity="0.7">
              <g id="Grupo_1082708" data-name="Grupo 1082708">
                <g id="Grupo_1082707" data-name="Grupo 1082707" clip-path="url(#clip-path-4)">
                  <path id="Trazado_832700" data-name="Trazado 832700" d="M19.965,612.535A3.188,3.188,0,1,1,18.8,616.89a3.187,3.187,0,0,1,1.167-4.355" transform="translate(-3.538 -514.383)" fill="#cadeb4"/>
                  <path id="Trazado_832701" data-name="Trazado 832701" d="M29.583,627.681a3.188,3.188,0,1,1-.589,4.47,3.187,3.187,0,0,1,.589-4.47" transform="translate(-5.458 -517.256)" fill="#cadeb4"/>
                  <path id="Trazado_832702" data-name="Trazado 832702" d="M41.1,641.441a3.188,3.188,0,1,1,0,4.508,3.189,3.189,0,0,1,0-4.508" transform="translate(-7.735 -519.853)" fill="#cadeb4"/>
                  <path id="Trazado_832703" data-name="Trazado 832703" d="M54.306,653.581a3.188,3.188,0,1,1,.589,4.469,3.188,3.188,0,0,1-.589-4.469" transform="translate(-10.333 -522.131)" fill="#cadeb4"/>
                  <path id="Trazado_832704" data-name="Trazado 832704" d="M68.988,663.893a3.188,3.188,0,1,1,1.167,4.354,3.186,3.186,0,0,1-1.167-4.354" transform="translate(-13.205 -524.05)" fill="#cadeb4"/>
                  <path id="Trazado_832705" data-name="Trazado 832705" d="M84.89,672.2a3.188,3.188,0,1,1,1.725,4.164A3.187,3.187,0,0,1,84.89,672.2" transform="translate(-16.303 -525.578)" fill="#cadeb4"/>
                  <path id="Trazado_832706" data-name="Trazado 832706" d="M101.741,678.36a3.188,3.188,0,1,1,2.254,3.9,3.189,3.189,0,0,1-2.254-3.9" transform="translate(-19.575 -526.688)" fill="#cadeb4"/>
                  <path id="Trazado_832707" data-name="Trazado 832707" d="M119.251,682.268A3.188,3.188,0,1,1,122,685.845a3.189,3.189,0,0,1-2.744-3.578" transform="translate(-22.963 -527.363)" fill="#cadeb4"/>
                  <path id="Trazado_832708" data-name="Trazado 832708" d="M101.741,678.36a3.188,3.188,0,1,1,2.254,3.9,3.189,3.189,0,0,1-2.254-3.9" transform="translate(-19.575 -526.688)" fill="#cadeb4"/>
                  <path id="Trazado_832709" data-name="Trazado 832709" d="M119.251,682.268A3.188,3.188,0,1,1,122,685.845a3.189,3.189,0,0,1-2.744-3.578" transform="translate(-22.963 -527.363)" fill="#cadeb4"/>
                  <path id="Trazado_832710" data-name="Trazado 832710" d="M14.846,602.155a3.188,3.188,0,1,0-4.166-1.725,3.19,3.19,0,0,0,4.166,1.725" transform="translate(-2.01 -511.285)" fill="#cadeb4"/>
                  <path id="Trazado_832711" data-name="Trazado 832711" d="M8.685,585.3a3.188,3.188,0,1,0-3.9-2.254,3.187,3.187,0,0,0,3.9,2.254" transform="translate(-0.9 -508.014)" fill="#cadeb4"/>
                  <path id="Trazado_832712" data-name="Trazado 832712" d="M4.777,567.793A3.188,3.188,0,1,0,1.2,565.049a3.188,3.188,0,0,0,3.577,2.744" transform="translate(-0.226 -504.625)" fill="#cadeb4"/>
                  <path id="Trazado_832713" data-name="Trazado 832713" d="M3.188,549.922A3.188,3.188,0,1,0,0,546.735a3.188,3.188,0,0,0,3.188,3.187" transform="translate(0 -501.178)" fill="#cadeb4"/>
                  <path id="Trazado_832714" data-name="Trazado 832714" d="M3.946,532A3.188,3.188,0,1,0,1.2,528.42,3.187,3.187,0,0,0,3.946,532" transform="translate(-0.226 -497.731)" fill="#cadeb4"/>
                  <path id="Trazado_832715" data-name="Trazado 832715" d="M7.035,514.325a3.188,3.188,0,1,0-2.254-3.905,3.189,3.189,0,0,0,2.254,3.905" transform="translate(-0.9 -494.342)" fill="#cadeb4"/>
                  <path id="Trazado_832716" data-name="Trazado 832716" d="M12.405,497.207a3.189,3.189,0,1,0-1.725-4.165,3.188,3.188,0,0,0,1.725,4.165" transform="translate(-2.01 -491.071)" fill="#cadeb4"/>
                </g>
              </g>
            </g>
            <g id="Grupo_1082712" data-name="Grupo 1082712" transform="translate(504.369 396.488)" opacity="0.7">
              <g id="Grupo_1082711" data-name="Grupo 1082711">
                <g id="Grupo_1082710" data-name="Grupo 1082710" clip-path="url(#clip-path-5)">
                  <path id="Trazado_832717" data-name="Trazado 832717" d="M727.135,618.057a3.188,3.188,0,1,1,4.354-1.167,3.188,3.188,0,0,1-4.354,1.167" transform="translate(-644.112 -514.383)" fill="#f9bcab"/>
                  <path id="Trazado_832718" data-name="Trazado 832718" d="M735.441,602.155a3.188,3.188,0,1,1,4.165-1.725,3.187,3.187,0,0,1-4.165,1.725" transform="translate(-645.64 -511.285)" fill="#f9bcab"/>
                  <path id="Trazado_832719" data-name="Trazado 832719" d="M741.6,585.3a3.188,3.188,0,1,1,3.9-2.254,3.188,3.188,0,0,1-3.9,2.254" transform="translate(-646.75 -508.014)" fill="#f9bcab"/>
                  <path id="Trazado_832720" data-name="Trazado 832720" d="M745.51,567.793a3.188,3.188,0,1,1,3.577-2.744,3.188,3.188,0,0,1-3.577,2.744" transform="translate(-647.424 -504.625)" fill="#f9bcab"/>
                  <path id="Trazado_832721" data-name="Trazado 832721" d="M747.1,549.922a3.188,3.188,0,1,1,3.187-3.187,3.186,3.186,0,0,1-3.187,3.187" transform="translate(-647.65 -501.178)" fill="#f9bcab"/>
                  <path id="Trazado_832722" data-name="Trazado 832722" d="M746.342,532a3.188,3.188,0,1,1,2.743-3.578A3.189,3.189,0,0,1,746.342,532" transform="translate(-647.424 -497.731)" fill="#f9bcab"/>
                  <path id="Trazado_832723" data-name="Trazado 832723" d="M743.252,514.325a3.188,3.188,0,1,1,2.253-3.905,3.189,3.189,0,0,1-2.253,3.905" transform="translate(-646.75 -494.342)" fill="#f9bcab"/>
                  <path id="Trazado_832724" data-name="Trazado 832724" d="M737.881,497.207a3.188,3.188,0,1,1,1.726-4.165,3.187,3.187,0,0,1-1.726,4.165" transform="translate(-645.64 -491.071)" fill="#f9bcab"/>
                  <path id="Trazado_832725" data-name="Trazado 832725" d="M743.252,514.325a3.188,3.188,0,1,1,2.253-3.905,3.189,3.189,0,0,1-2.253,3.905" transform="translate(-646.75 -494.342)" fill="#f9bcab"/>
                  <path id="Trazado_832726" data-name="Trazado 832726" d="M737.881,497.207a3.188,3.188,0,1,1,1.726-4.165,3.187,3.187,0,0,1-1.726,4.165" transform="translate(-645.64 -491.071)" fill="#f9bcab"/>
                  <path id="Trazado_832727" data-name="Trazado 832727" d="M720.7,627.681a3.188,3.188,0,1,0,.589,4.47,3.187,3.187,0,0,0-.589-4.47" transform="translate(-642.193 -517.256)" fill="#f9bcab"/>
                  <path id="Trazado_832728" data-name="Trazado 832728" d="M709.192,641.441a3.188,3.188,0,1,0,0,4.508,3.188,3.188,0,0,0,0-4.508" transform="translate(-639.915 -519.853)" fill="#f9bcab"/>
                  <path id="Trazado_832729" data-name="Trazado 832729" d="M695.981,653.581a3.188,3.188,0,1,0-.589,4.469,3.186,3.186,0,0,0,.589-4.469" transform="translate(-637.318 -522.131)" fill="#f9bcab"/>
                  <path id="Trazado_832730" data-name="Trazado 832730" d="M681.3,663.892a3.188,3.188,0,1,0-1.167,4.354,3.187,3.187,0,0,0,1.167-4.354" transform="translate(-634.445 -524.05)" fill="#f9bcab"/>
                  <path id="Trazado_832731" data-name="Trazado 832731" d="M665.4,672.2a3.188,3.188,0,1,0-1.725,4.164A3.188,3.188,0,0,0,665.4,672.2" transform="translate(-631.346 -525.578)" fill="#f9bcab"/>
                  <path id="Trazado_832732" data-name="Trazado 832732" d="M648.546,678.36a3.188,3.188,0,1,0-2.253,3.9,3.187,3.187,0,0,0,2.253-3.9" transform="translate(-628.075 -526.688)" fill="#f9bcab"/>
                  <path id="Trazado_832733" data-name="Trazado 832733" d="M631.036,682.268a3.188,3.188,0,1,0-2.744,3.578,3.189,3.189,0,0,0,2.744-3.578" transform="translate(-624.687 -527.363)" fill="#f9bcab"/>
                </g>
              </g>
            </g>
            <path id="Trazado_832734" data-name="Trazado 832734" d="M202.709,475.213a97.509,97.509,0,1,0-35.691,133.2,97.51,97.51,0,0,0,35.691-133.2M157.917,592.65a79.308,79.308,0,1,1,29.028-108.336A79.308,79.308,0,0,1,157.917,592.65" transform="translate(-3.994 -82.135)" fill="#9ead8a"/>
            <path id="Trazado_832735" data-name="Trazado 832735" d="M451.462,141.071a97.509,97.509,0,1,1-195.019,0V358.006a97.509,97.509,0,0,1,163.013-72.231l32.006,18.479Z" transform="translate(-49.392 -27.171)" fill="#c1cdf5"/>
            <path id="Trazado_832736" data-name="Trazado 832736" d="M609.231,416.456,442.672,320.293a97.494,97.494,0,0,1-17,156.809l.015.025-48.7,28.554,139.994,82.7.09-.155c-.157-.089-.318-.166-.474-.257a97.5,97.5,0,0,1,92.64-171.512" transform="translate(-72.609 -61.69)" fill="#f9bcab"/>
            <path id="Trazado_832737" data-name="Trazado 832737" d="M334.478,337.433a61.552,61.552,0,0,1,87.655,29.522l11.534,3.586,4.951-10.646a79.339,79.339,0,0,0-122.261-31.329l11.1,2.019.01,11.577a62.325,62.325,0,0,1,7.014-4.73" transform="translate(-60.932 -59.992)" fill="#c1cdf5"/>
            <path id="Trazado_832738" data-name="Trazado 832738" d="M327.384,451.713a61.558,61.558,0,0,1-18.26-90.674l-2.661-11.78-11.7,1.036a79.342,79.342,0,0,0,34,121.545l-3.8-10.621,10.021-5.8a62.38,62.38,0,0,1-7.6-3.708" transform="translate(-53.686 -67.269)" fill="#cadeb4"/>
            <path id="Trazado_832739" data-name="Trazado 832739" d="M435.385,406.782a61.554,61.554,0,0,1-69.395,61.15l-8.872,8.2,6.746,9.611a79.338,79.338,0,0,0,88.26-90.217l-7.3,8.6-10.031-5.78a62.174,62.174,0,0,1,.589,8.439" transform="translate(-68.783 -76.18)" fill="#f9bcab"/>
          </g>
        </g>
      </g>
    </g>
    <path id="Trazado_834140" data-name="Trazado 834140" d="M43.816,13.594a4.409,4.409,0,0,1-1.852,1.133,7.986,7.986,0,0,1-2.672.43,4.764,4.764,0,0,1-3.57-1.367,5.534,5.534,0,0,1-1.43-3.8L34.285,9a6.788,6.788,0,0,1,.594-2.934,4.409,4.409,0,0,1,1.7-1.93,4.807,4.807,0,0,1,2.559-.676,5.039,5.039,0,0,1,3.3.973,4.121,4.121,0,0,1,1.371,2.9H41.168a2.157,2.157,0,0,0-.609-1.359A1.966,1.966,0,0,0,39.23,5.57a1.789,1.789,0,0,0-1.594.875,4.672,4.672,0,0,0-.57,2.5v.688a4.574,4.574,0,0,0,.582,2.559,2.059,2.059,0,0,0,1.832.855,2.3,2.3,0,0,0,1.594-.477V10.8H39.168V8.922h4.648Zm5.563,1.563A4.345,4.345,0,0,1,46.23,14a4.006,4.006,0,0,1-1.2-3.02v-.219a5.191,5.191,0,0,1,.48-2.289,3.516,3.516,0,0,1,1.4-1.535A4.233,4.233,0,0,1,49.1,6.391,3.659,3.659,0,0,1,51.91,7.5a4.344,4.344,0,0,1,1.031,3.082V11.6H47.707a1.9,1.9,0,0,0,.617,1.117,1.836,1.836,0,0,0,1.234.406,2.366,2.366,0,0,0,1.953-.875l1.2,1.422a3.363,3.363,0,0,1-1.395,1.082A4.713,4.713,0,0,1,49.379,15.156Zm-.3-6.734q-1.156,0-1.375,1.531h2.656v-.2a1.3,1.3,0,0,0-.32-.98A1.275,1.275,0,0,0,49.082,8.422Zm9.344,4.2a.608.608,0,0,0-.352-.539,5.348,5.348,0,0,0-1.336-.422,6.092,6.092,0,0,1-1.625-.574,2.722,2.722,0,0,1-.977-.863A2.061,2.061,0,0,1,53.8,9.063a2.336,2.336,0,0,1,.961-1.918,3.958,3.958,0,0,1,2.516-.754,4.386,4.386,0,0,1,2.688.758A2.37,2.37,0,0,1,60.98,9.141H58.34q0-1.016-1.07-1.016a1.061,1.061,0,0,0-.7.23.714.714,0,0,0-.281.574.655.655,0,0,0,.344.57,3.248,3.248,0,0,0,1.1.359,9.485,9.485,0,0,1,1.324.336,2.406,2.406,0,0,1,1.906,2.352,2.214,2.214,0,0,1-1.027,1.883,4.505,4.505,0,0,1-2.66.727,4.6,4.6,0,0,1-1.937-.391A3.24,3.24,0,0,1,54.012,13.7a2.406,2.406,0,0,1-.477-1.414H56a1.017,1.017,0,0,0,.391.855,1.607,1.607,0,0,0,.961.27,1.264,1.264,0,0,0,.809-.219A.7.7,0,0,0,58.426,12.625Zm6.836-8.18v2.1h1.391V8.375H65.262v3.867a.987.987,0,0,0,.172.664.922.922,0,0,0,.68.188,3.862,3.862,0,0,0,.656-.047V14.93a4.859,4.859,0,0,1-1.484.227,2.758,2.758,0,0,1-2.008-.641,2.626,2.626,0,0,1-.648-1.945v-4.2H61.551V6.547h1.078v-2.1ZM70.465,15H67.824V6.547h2.641Zm-2.8-10.633a1.175,1.175,0,0,1,.406-.922,1.727,1.727,0,0,1,2.109,0,1.175,1.175,0,0,1,.406.922,1.175,1.175,0,0,1-.406.922,1.727,1.727,0,0,1-2.109,0A1.175,1.175,0,0,1,67.668,4.367ZM71.754,10.7a4.989,4.989,0,0,1,.492-2.254,3.52,3.52,0,0,1,1.414-1.52,4.259,4.259,0,0,1,2.164-.531,3.887,3.887,0,0,1,2.992,1.176,4.512,4.512,0,0,1,1.094,3.2v.094A4.378,4.378,0,0,1,78.813,14a3.9,3.9,0,0,1-2.973,1.16,3.942,3.942,0,0,1-2.9-1.082,4.232,4.232,0,0,1-1.18-2.934Zm2.633.164a3.145,3.145,0,0,0,.367,1.719,1.223,1.223,0,0,0,1.086.547q1.406,0,1.438-2.164V10.7q0-2.273-1.453-2.273-1.32,0-1.43,1.961ZM76.184,3h2.781L76.793,5.453l-2.148,0Zm7.3,3.547.086.992a2.867,2.867,0,0,1,2.414-1.148,2.412,2.412,0,0,1,1.973.789,3.757,3.757,0,0,1,.676,2.375V15H86V9.664a1.426,1.426,0,0,0-.258-.941,1.193,1.193,0,0,0-.937-.3,1.256,1.256,0,0,0-1.148.609V15H81.02V6.547ZM15.184,40a2.973,2.973,0,0,1-.25-.758,2.448,2.448,0,0,1-2.031.914,3,3,0,0,1-2.031-.723,2.3,2.3,0,0,1-.836-1.816,2.364,2.364,0,0,1,1.016-2.078,5.174,5.174,0,0,1,2.953-.7h.813v-.448q0-1.17-1.008-1.17a.824.824,0,0,0-.937.926H10.238a2.36,2.36,0,0,1,1.043-1.99,4.383,4.383,0,0,1,2.66-.765,3.843,3.843,0,0,1,2.555.789,2.743,2.743,0,0,1,.961,2.164v3.742a3.832,3.832,0,0,0,.359,1.781V40Zm-1.648-1.719a1.469,1.469,0,0,0,.816-.211,1.322,1.322,0,0,0,.465-.477V36.242h-.766q-1.375,0-1.375,1.234a.754.754,0,0,0,.242.582A.876.876,0,0,0,13.535,38.281Zm5.047-2.57a5.164,5.164,0,0,1,.867-3.164,2.854,2.854,0,0,1,2.422-1.156,2.428,2.428,0,0,1,1.906.891V28h2.641V40H24.051l-.133-.906a2.493,2.493,0,0,1-2.062,1.063A2.849,2.849,0,0,1,19.465,39,5.327,5.327,0,0,1,18.582,35.711Zm2.633.164q0,2.25,1.313,2.25a1.3,1.3,0,0,0,1.25-.734V34.172a1.261,1.261,0,0,0-1.234-.75q-1.219,0-1.32,1.969ZM30.4,31.547l.086.992A2.906,2.906,0,0,1,32.9,31.391a2.14,2.14,0,0,1,2.164,1.273,2.813,2.813,0,0,1,2.484-1.273q2.57,0,2.641,3.109V40H37.551V34.664a1.611,1.611,0,0,0-.219-.945.931.931,0,0,0-.8-.3,1.247,1.247,0,0,0-1.164.7l.008.109V40H32.738V34.68a1.694,1.694,0,0,0-.211-.961.929.929,0,0,0-.8-.3,1.263,1.263,0,0,0-1.156.7V40H27.934V31.547ZM44.473,40H41.832V31.547h2.641Zm-2.8-10.633a1.175,1.175,0,0,1,.406-.922,1.727,1.727,0,0,1,2.109,0,1.249,1.249,0,0,1,0,1.844,1.727,1.727,0,0,1-2.109,0A1.175,1.175,0,0,1,41.676,29.367Zm6.836,2.18.086.992a2.867,2.867,0,0,1,2.414-1.148,2.412,2.412,0,0,1,1.973.789,3.757,3.757,0,0,1,.676,2.375V40H51.02V34.664a1.426,1.426,0,0,0-.258-.941,1.193,1.193,0,0,0-.937-.3,1.256,1.256,0,0,0-1.148.609V40H46.043V31.547ZM57.895,40H55.254V31.547h2.641ZM55.1,29.367a1.175,1.175,0,0,1,.406-.922,1.727,1.727,0,0,1,2.109,0,1.249,1.249,0,0,1,0,1.844,1.727,1.727,0,0,1-2.109,0A1.175,1.175,0,0,1,55.1,29.367Zm8.844,8.258a.608.608,0,0,0-.352-.539,5.347,5.347,0,0,0-1.336-.422,6.092,6.092,0,0,1-1.625-.574,2.722,2.722,0,0,1-.977-.863,2.061,2.061,0,0,1-.336-1.164,2.336,2.336,0,0,1,.961-1.918,3.958,3.958,0,0,1,2.516-.754,4.386,4.386,0,0,1,2.688.758A2.37,2.37,0,0,1,66.5,34.141H63.855q0-1.016-1.07-1.016a1.061,1.061,0,0,0-.7.23.714.714,0,0,0-.281.574.655.655,0,0,0,.344.57,3.248,3.248,0,0,0,1.1.359,9.486,9.486,0,0,1,1.324.336,2.406,2.406,0,0,1,1.906,2.352,2.214,2.214,0,0,1-1.027,1.883,4.505,4.505,0,0,1-2.66.727,4.6,4.6,0,0,1-1.937-.391A3.24,3.24,0,0,1,59.527,38.7a2.406,2.406,0,0,1-.477-1.414h2.461a1.017,1.017,0,0,0,.391.855,1.607,1.607,0,0,0,.961.27,1.264,1.264,0,0,0,.809-.219A.7.7,0,0,0,63.941,37.625Zm6.836-8.18v2.1h1.391v1.828H70.777v3.867a.987.987,0,0,0,.172.664.922.922,0,0,0,.68.188,3.862,3.862,0,0,0,.656-.047V39.93a4.859,4.859,0,0,1-1.484.227,2.758,2.758,0,0,1-2.008-.641,2.626,2.626,0,0,1-.648-1.945v-4.2H67.066V31.547h1.078v-2.1Zm7.539,4.484-.867-.062a1.558,1.558,0,0,0-1.594.781V40H73.223V31.547h2.469l.086,1.086a2.039,2.039,0,0,1,1.852-1.242,2.567,2.567,0,0,1,.734.094ZM83.793,40a2.973,2.973,0,0,1-.25-.758,2.448,2.448,0,0,1-2.031.914,3,3,0,0,1-2.031-.723,2.3,2.3,0,0,1-.836-1.816,2.364,2.364,0,0,1,1.016-2.078,5.174,5.174,0,0,1,2.953-.7h.813v-.448q0-1.17-1.008-1.17a.824.824,0,0,0-.937.926H78.848a2.36,2.36,0,0,1,1.043-1.99,4.383,4.383,0,0,1,2.66-.765,3.843,3.843,0,0,1,2.555.789,2.743,2.743,0,0,1,.961,2.164v3.742a3.832,3.832,0,0,0,.359,1.781V40Zm-1.648-1.719a1.469,1.469,0,0,0,.816-.211,1.322,1.322,0,0,0,.465-.477V36.242H82.66q-1.375,0-1.375,1.234a.754.754,0,0,0,.242.582A.876.876,0,0,0,82.145,38.281Zm8.445-8.836v2.1H91.98v1.828H90.59v3.867a.987.987,0,0,0,.172.664.922.922,0,0,0,.68.188,3.862,3.862,0,0,0,.656-.047V39.93a4.859,4.859,0,0,1-1.484.227,2.758,2.758,0,0,1-2.008-.641,2.626,2.626,0,0,1-.648-1.945v-4.2H86.879V31.547h1.078v-2.1ZM95.793,40H93.152V31.547h2.641ZM93,29.367a1.175,1.175,0,0,1,.406-.922,1.727,1.727,0,0,1,2.109,0,1.249,1.249,0,0,1,0,1.844,1.727,1.727,0,0,1-2.109,0A1.175,1.175,0,0,1,93,29.367Zm7.789,7.5,1.336-5.32h2.773L102.137,40H99.449l-2.758-8.453h2.781ZM110.324,40a2.973,2.973,0,0,1-.25-.758,2.448,2.448,0,0,1-2.031.914,3,3,0,0,1-2.031-.723,2.3,2.3,0,0,1-.836-1.816,2.364,2.364,0,0,1,1.016-2.078,5.174,5.174,0,0,1,2.953-.7h.813v-.448q0-1.17-1.008-1.17a.824.824,0,0,0-.937.926h-2.633a2.36,2.36,0,0,1,1.043-1.99,4.383,4.383,0,0,1,2.66-.765,3.843,3.843,0,0,1,2.555.789,2.743,2.743,0,0,1,.961,2.164v3.742a3.832,3.832,0,0,0,.359,1.781V40Zm-1.648-1.719a1.469,1.469,0,0,0,.816-.211,1.322,1.322,0,0,0,.465-.477V36.242h-.766q-1.375,0-1.375,1.234a.754.754,0,0,0,.242.582A.876.876,0,0,0,108.676,38.281Z" transform="translate(742 903.665)" fill="#12263f"/>
    <path id="Trazado_834141" data-name="Trazado 834141" d="M12.77,3.625V11.07a4.279,4.279,0,0,1-.539,2.191,3.492,3.492,0,0,1-1.547,1.41,5.449,5.449,0,0,1-2.383.484,4.708,4.708,0,0,1-3.273-1.078,3.845,3.845,0,0,1-1.219-2.953v-7.5H6.566V11.18q.047,1.867,1.734,1.867a1.679,1.679,0,0,0,1.289-.469,2.191,2.191,0,0,0,.438-1.523V3.625Zm6.016,9a.608.608,0,0,0-.352-.539,5.348,5.348,0,0,0-1.336-.422,6.092,6.092,0,0,1-1.625-.574,2.722,2.722,0,0,1-.977-.863,2.061,2.061,0,0,1-.336-1.164,2.336,2.336,0,0,1,.961-1.918,3.958,3.958,0,0,1,2.516-.754,4.386,4.386,0,0,1,2.688.758A2.37,2.37,0,0,1,21.34,9.141H18.7q0-1.016-1.07-1.016a1.061,1.061,0,0,0-.7.23.714.714,0,0,0-.281.574A.655.655,0,0,0,17,9.5a3.248,3.248,0,0,0,1.1.359,9.486,9.486,0,0,1,1.324.336,2.406,2.406,0,0,1,1.906,2.352A2.214,2.214,0,0,1,20.3,14.43a4.505,4.505,0,0,1-2.66.727,4.6,4.6,0,0,1-1.937-.391A3.24,3.24,0,0,1,14.371,13.7a2.406,2.406,0,0,1-.477-1.414h2.461a1.017,1.017,0,0,0,.391.855,1.607,1.607,0,0,0,.961.27,1.264,1.264,0,0,0,.809-.219A.7.7,0,0,0,18.785,12.625Zm3.438-1.93a4.989,4.989,0,0,1,.492-2.254,3.52,3.52,0,0,1,1.414-1.52,4.259,4.259,0,0,1,2.164-.531,3.887,3.887,0,0,1,2.992,1.176,4.512,4.512,0,0,1,1.094,3.2v.094A4.378,4.378,0,0,1,29.281,14a3.9,3.9,0,0,1-2.973,1.16,3.942,3.942,0,0,1-2.9-1.082,4.232,4.232,0,0,1-1.18-2.934Zm2.633.164a3.145,3.145,0,0,0,.367,1.719,1.223,1.223,0,0,0,1.086.547q1.406,0,1.438-2.164V10.7q0-2.273-1.453-2.273-1.32,0-1.43,1.961Zm14.758,4.3A4.345,4.345,0,0,1,36.465,14a4.006,4.006,0,0,1-1.2-3.02v-.219a5.191,5.191,0,0,1,.48-2.289,3.516,3.516,0,0,1,1.4-1.535,4.233,4.233,0,0,1,2.188-.543A3.659,3.659,0,0,1,42.145,7.5a4.344,4.344,0,0,1,1.031,3.082V11.6H37.941a1.9,1.9,0,0,0,.617,1.117,1.836,1.836,0,0,0,1.234.406,2.366,2.366,0,0,0,1.953-.875l1.2,1.422a3.363,3.363,0,0,1-1.395,1.082A4.713,4.713,0,0,1,39.613,15.156Zm-.3-6.734q-1.156,0-1.375,1.531H40.6v-.2a1.3,1.3,0,0,0-.32-.98A1.275,1.275,0,0,0,39.316,8.422ZM44.848,15V8.375H43.621V6.547h1.227V6.266A3.228,3.228,0,0,1,45.957,3.68a4.433,4.433,0,0,1,2.883-.844,10.23,10.23,0,0,1,2.75.453L51.23,5.367l-.437-.117A6.962,6.962,0,0,0,49,5.023q-1.508,0-1.508,1.375v.148h1.656V8.375H47.488V15ZM52.8,15H50.152V6.547H52.8Zm5.18-1.875a1.171,1.171,0,0,0,.859-.3,1.1,1.1,0,0,0,.3-.84h2.469a2.922,2.922,0,0,1-1,2.281,3.705,3.705,0,0,1-2.566.891A3.751,3.751,0,0,1,55.137,14a4.556,4.556,0,0,1-1.062-3.2v-.109a5.149,5.149,0,0,1,.473-2.262A3.441,3.441,0,0,1,55.91,6.918a4.065,4.065,0,0,1,2.109-.527,3.658,3.658,0,0,1,2.617.914,3.242,3.242,0,0,1,.969,2.477H59.137a1.445,1.445,0,0,0-.32-1.008,1.106,1.106,0,0,0-.859-.352q-1.023,0-1.2,1.3a9.206,9.206,0,0,0-.055,1.141,3.616,3.616,0,0,0,.3,1.766A1.055,1.055,0,0,0,57.98,13.125ZM65.5,15H62.855V6.547H65.5ZM62.7,4.367a1.175,1.175,0,0,1,.406-.922,1.727,1.727,0,0,1,2.109,0,1.175,1.175,0,0,1,.406.922,1.175,1.175,0,0,1-.406.922,1.727,1.727,0,0,1-2.109,0A1.175,1.175,0,0,1,62.7,4.367Zm8.508,10.789A4.345,4.345,0,0,1,68.059,14a4.006,4.006,0,0,1-1.2-3.02v-.219a5.191,5.191,0,0,1,.48-2.289,3.516,3.516,0,0,1,1.4-1.535,4.233,4.233,0,0,1,2.188-.543A3.659,3.659,0,0,1,73.738,7.5a4.344,4.344,0,0,1,1.031,3.082V11.6H69.535a1.9,1.9,0,0,0,.617,1.117,1.836,1.836,0,0,0,1.234.406,2.366,2.366,0,0,0,1.953-.875l1.2,1.422a3.363,3.363,0,0,1-1.395,1.082A4.713,4.713,0,0,1,71.207,15.156Zm-.3-6.734q-1.156,0-1.375,1.531h2.656v-.2a1.3,1.3,0,0,0-.32-.98A1.275,1.275,0,0,0,70.91,8.422Zm7.336-1.875.086.992a2.867,2.867,0,0,1,2.414-1.148,2.412,2.412,0,0,1,1.973.789,3.757,3.757,0,0,1,.676,2.375V15H80.754V9.664a1.426,1.426,0,0,0-.258-.941,1.193,1.193,0,0,0-.937-.3,1.256,1.256,0,0,0-1.148.609V15H75.777V6.547Zm9.672-2.1v2.1h1.391V8.375H87.918v3.867a.987.987,0,0,0,.172.664.922.922,0,0,0,.68.188,3.862,3.862,0,0,0,.656-.047V14.93a4.859,4.859,0,0,1-1.484.227,2.758,2.758,0,0,1-2.008-.641,2.626,2.626,0,0,1-.648-1.945v-4.2H84.207V6.547h1.078v-2.1Zm6.516,10.711A4.345,4.345,0,0,1,91.285,14a4.006,4.006,0,0,1-1.2-3.02v-.219a5.191,5.191,0,0,1,.48-2.289,3.516,3.516,0,0,1,1.4-1.535,4.233,4.233,0,0,1,2.188-.543A3.659,3.659,0,0,1,96.965,7.5,4.344,4.344,0,0,1,98,10.578V11.6H92.762a1.9,1.9,0,0,0,.617,1.117,1.836,1.836,0,0,0,1.234.406,2.366,2.366,0,0,0,1.953-.875l1.2,1.422a3.363,3.363,0,0,1-1.395,1.082A4.713,4.713,0,0,1,94.434,15.156Zm-.3-6.734q-1.156,0-1.375,1.531h2.656v-.2a1.3,1.3,0,0,0-.32-.98A1.275,1.275,0,0,0,94.137,8.422Zm8.57,2.289a5.164,5.164,0,0,1,.867-3.164A2.854,2.854,0,0,1,106,6.391a2.428,2.428,0,0,1,1.906.891V3h2.641V15h-2.367l-.133-.906a2.493,2.493,0,0,1-2.062,1.063A2.849,2.849,0,0,1,103.59,14,5.327,5.327,0,0,1,102.707,10.711Zm2.633.164q0,2.25,1.313,2.25a1.3,1.3,0,0,0,1.25-.734V9.172a1.261,1.261,0,0,0-1.234-.75q-1.219,0-1.32,1.969Zm10.789,4.281A4.345,4.345,0,0,1,112.98,14a4.006,4.006,0,0,1-1.2-3.02v-.219a5.191,5.191,0,0,1,.48-2.289,3.516,3.516,0,0,1,1.4-1.535,4.233,4.233,0,0,1,2.188-.543A3.659,3.659,0,0,1,118.66,7.5a4.344,4.344,0,0,1,1.031,3.082V11.6h-5.234a1.9,1.9,0,0,0,.617,1.117,1.836,1.836,0,0,0,1.234.406,2.366,2.366,0,0,0,1.953-.875l1.2,1.422a3.363,3.363,0,0,1-1.395,1.082A4.713,4.713,0,0,1,116.129,15.156Zm-.3-6.734q-1.156,0-1.375,1.531h2.656v-.2a1.3,1.3,0,0,0-.32-.98A1.275,1.275,0,0,0,115.832,8.422ZM9.688,35H7.047V23H9.688Zm1.289-4.3a4.989,4.989,0,0,1,.492-2.254,3.52,3.52,0,0,1,1.414-1.52,4.259,4.259,0,0,1,2.164-.531,3.887,3.887,0,0,1,2.992,1.176,4.512,4.512,0,0,1,1.094,3.2v.094A4.378,4.378,0,0,1,18.035,34a3.9,3.9,0,0,1-2.973,1.16,3.942,3.942,0,0,1-2.9-1.082,4.232,4.232,0,0,1-1.18-2.934Zm2.633.164a3.145,3.145,0,0,0,.367,1.719,1.223,1.223,0,0,0,1.086.547q1.406,0,1.438-2.164V30.7q0-2.273-1.453-2.273-1.32,0-1.43,1.961Zm11.109,1.766a.608.608,0,0,0-.352-.539,5.348,5.348,0,0,0-1.336-.422,6.092,6.092,0,0,1-1.625-.574,2.722,2.722,0,0,1-.977-.863,2.061,2.061,0,0,1-.336-1.164,2.336,2.336,0,0,1,.961-1.918,3.958,3.958,0,0,1,2.516-.754,4.386,4.386,0,0,1,2.688.758,2.37,2.37,0,0,1,1.016,1.992H24.633q0-1.016-1.07-1.016a1.061,1.061,0,0,0-.7.23.714.714,0,0,0-.281.574.655.655,0,0,0,.344.57,3.248,3.248,0,0,0,1.1.359,9.485,9.485,0,0,1,1.324.336,2.406,2.406,0,0,1,1.906,2.352A2.214,2.214,0,0,1,26.23,34.43a4.505,4.505,0,0,1-2.66.727,4.6,4.6,0,0,1-1.937-.391A3.24,3.24,0,0,1,20.3,33.7a2.406,2.406,0,0,1-.477-1.414h2.461a1.017,1.017,0,0,0,.391.855,1.607,1.607,0,0,0,.961.27,1.264,1.264,0,0,0,.809-.219A.7.7,0,0,0,24.719,32.625Zm12.867-3.7-.867-.062a1.558,1.558,0,0,0-1.594.781V35H32.492V26.547h2.469l.086,1.086A2.039,2.039,0,0,1,36.9,26.391a2.567,2.567,0,0,1,.734.094Zm4.891,6.227A4.345,4.345,0,0,1,39.328,34a4.006,4.006,0,0,1-1.2-3.02v-.219a5.191,5.191,0,0,1,.48-2.289,3.516,3.516,0,0,1,1.4-1.535,4.233,4.233,0,0,1,2.188-.543A3.659,3.659,0,0,1,45.008,27.5a4.344,4.344,0,0,1,1.031,3.082V31.6H40.8a1.9,1.9,0,0,0,.617,1.117,1.836,1.836,0,0,0,1.234.406,2.366,2.366,0,0,0,1.953-.875l1.2,1.422a3.363,3.363,0,0,1-1.395,1.082A4.713,4.713,0,0,1,42.477,35.156Zm-.3-6.734q-1.156,0-1.375,1.531h2.656v-.2a1.3,1.3,0,0,0-.32-.98A1.275,1.275,0,0,0,42.18,28.422Zm8.492,4.7a1.171,1.171,0,0,0,.859-.3,1.1,1.1,0,0,0,.3-.84H54.3a2.923,2.923,0,0,1-1,2.281,3.705,3.705,0,0,1-2.566.891A3.751,3.751,0,0,1,47.828,34a4.556,4.556,0,0,1-1.062-3.2v-.109a5.149,5.149,0,0,1,.473-2.262A3.441,3.441,0,0,1,48.6,26.918a4.065,4.065,0,0,1,2.109-.527,3.658,3.658,0,0,1,2.617.914,3.242,3.242,0,0,1,.969,2.477H51.828a1.445,1.445,0,0,0-.32-1.008,1.106,1.106,0,0,0-.859-.352q-1.023,0-1.2,1.3a9.206,9.206,0,0,0-.055,1.141,3.616,3.616,0,0,0,.3,1.766A1.055,1.055,0,0,0,50.672,33.125Zm9.773.961a2.714,2.714,0,0,1-2.258,1.07,2.662,2.662,0,0,1-2.105-.809,3.4,3.4,0,0,1-.715-2.324V26.547H58v5.492a.946.946,0,0,0,1.055,1.086,1.376,1.376,0,0,0,1.289-.648v-5.93h2.648V35H60.523Zm9.1-5.156-.867-.062a1.558,1.558,0,0,0-1.594.781V35H64.453V26.547h2.469l.086,1.086a2.039,2.039,0,0,1,1.852-1.242,2.567,2.567,0,0,1,.734.094Zm5.375,3.7a.608.608,0,0,0-.352-.539,5.348,5.348,0,0,0-1.336-.422,6.092,6.092,0,0,1-1.625-.574,2.722,2.722,0,0,1-.977-.863,2.061,2.061,0,0,1-.336-1.164,2.336,2.336,0,0,1,.961-1.918,3.958,3.958,0,0,1,2.516-.754,4.386,4.386,0,0,1,2.688.758,2.37,2.37,0,0,1,1.016,1.992H74.836q0-1.016-1.07-1.016a1.061,1.061,0,0,0-.7.23.714.714,0,0,0-.281.574.655.655,0,0,0,.344.57,3.248,3.248,0,0,0,1.1.359,9.486,9.486,0,0,1,1.324.336,2.406,2.406,0,0,1,1.906,2.352,2.214,2.214,0,0,1-1.027,1.883,4.505,4.505,0,0,1-2.66.727,4.6,4.6,0,0,1-1.937-.391A3.24,3.24,0,0,1,70.508,33.7a2.406,2.406,0,0,1-.477-1.414h2.461a1.017,1.017,0,0,0,.391.855,1.607,1.607,0,0,0,.961.27,1.264,1.264,0,0,0,.809-.219A.7.7,0,0,0,74.922,32.625Zm3.438-1.93a4.989,4.989,0,0,1,.492-2.254,3.52,3.52,0,0,1,1.414-1.52,4.259,4.259,0,0,1,2.164-.531,3.887,3.887,0,0,1,2.992,1.176,4.512,4.512,0,0,1,1.094,3.2v.094A4.378,4.378,0,0,1,85.418,34a3.9,3.9,0,0,1-2.973,1.16,3.942,3.942,0,0,1-2.9-1.082,4.232,4.232,0,0,1-1.18-2.934Zm2.633.164a3.145,3.145,0,0,0,.367,1.719,1.223,1.223,0,0,0,1.086.547q1.406,0,1.438-2.164V30.7q0-2.273-1.453-2.273-1.32,0-1.43,1.961ZM92.1,32.625a.608.608,0,0,0-.352-.539,5.348,5.348,0,0,0-1.336-.422,6.092,6.092,0,0,1-1.625-.574,2.722,2.722,0,0,1-.977-.863,2.061,2.061,0,0,1-.336-1.164,2.336,2.336,0,0,1,.961-1.918,3.958,3.958,0,0,1,2.516-.754,4.386,4.386,0,0,1,2.688.758,2.37,2.37,0,0,1,1.016,1.992H92.016q0-1.016-1.07-1.016a1.061,1.061,0,0,0-.7.23.714.714,0,0,0-.281.574.655.655,0,0,0,.344.57,3.248,3.248,0,0,0,1.1.359,9.486,9.486,0,0,1,1.324.336,2.406,2.406,0,0,1,1.906,2.352,2.214,2.214,0,0,1-1.027,1.883,4.505,4.505,0,0,1-2.66.727,4.6,4.6,0,0,1-1.937-.391A3.24,3.24,0,0,1,87.688,33.7a2.406,2.406,0,0,1-.477-1.414h2.461a1.017,1.017,0,0,0,.391.855,1.607,1.607,0,0,0,.961.27,1.264,1.264,0,0,0,.809-.219A.7.7,0,0,0,92.1,32.625Zm7.422-1.914a5.164,5.164,0,0,1,.867-3.164,2.854,2.854,0,0,1,2.422-1.156,2.428,2.428,0,0,1,1.906.891V23h2.641V35h-2.367l-.133-.906a2.493,2.493,0,0,1-2.062,1.063A2.849,2.849,0,0,1,100.406,34,5.327,5.327,0,0,1,99.523,30.711Zm2.633.164q0,2.25,1.313,2.25a1.3,1.3,0,0,0,1.25-.734V29.172a1.261,1.261,0,0,0-1.234-.75q-1.219,0-1.32,1.969Zm10.789,4.281A4.345,4.345,0,0,1,109.8,34a4.006,4.006,0,0,1-1.2-3.02v-.219a5.191,5.191,0,0,1,.48-2.289,3.516,3.516,0,0,1,1.4-1.535,4.233,4.233,0,0,1,2.188-.543,3.659,3.659,0,0,1,2.813,1.105,4.344,4.344,0,0,1,1.031,3.082V31.6h-5.234a1.9,1.9,0,0,0,.617,1.117,1.836,1.836,0,0,0,1.234.406,2.366,2.366,0,0,0,1.953-.875l1.2,1.422a3.363,3.363,0,0,1-1.395,1.082A4.713,4.713,0,0,1,112.945,35.156Zm-.3-6.734q-1.156,0-1.375,1.531h2.656v-.2a1.3,1.3,0,0,0-.32-.98A1.275,1.275,0,0,0,112.648,28.422ZM9.848,55H7.207V43H9.848Zm6.383,0a2.973,2.973,0,0,1-.25-.758,2.448,2.448,0,0,1-2.031.914,3,3,0,0,1-2.031-.723,2.3,2.3,0,0,1-.836-1.816A2.364,2.364,0,0,1,12.1,50.539a5.174,5.174,0,0,1,2.953-.7h.813v-.448q0-1.17-1.008-1.17a.824.824,0,0,0-.937.926H11.285a2.36,2.36,0,0,1,1.043-1.99,4.383,4.383,0,0,1,2.66-.765,3.843,3.843,0,0,1,2.555.789,2.743,2.743,0,0,1,.961,2.164v3.742a3.832,3.832,0,0,0,.359,1.781V55Zm-1.648-1.719a1.469,1.469,0,0,0,.816-.211,1.322,1.322,0,0,0,.465-.477V51.242H15.1q-1.375,0-1.375,1.234a.754.754,0,0,0,.242.582A.876.876,0,0,0,14.582,53.281ZM23.613,50.7a4.989,4.989,0,0,1,.492-2.254,3.52,3.52,0,0,1,1.414-1.52,4.259,4.259,0,0,1,2.164-.531,3.887,3.887,0,0,1,2.992,1.176,4.512,4.512,0,0,1,1.094,3.2v.094A4.378,4.378,0,0,1,30.672,54a3.9,3.9,0,0,1-2.973,1.16,3.942,3.942,0,0,1-2.9-1.082,4.232,4.232,0,0,1-1.18-2.934Zm2.633.164a3.145,3.145,0,0,0,.367,1.719,1.223,1.223,0,0,0,1.086.547q1.406,0,1.438-2.164V50.7q0-2.273-1.453-2.273-1.32,0-1.43,1.961Zm11.8-1.93-.867-.062a1.558,1.558,0,0,0-1.594.781V55H32.949V46.547h2.469l.086,1.086a2.039,2.039,0,0,1,1.852-1.242,2.567,2.567,0,0,1,.734.094Zm.492,1.781a5.708,5.708,0,0,1,.422-2.266,3.4,3.4,0,0,1,1.211-1.52A3.192,3.192,0,0,1,42,46.391a2.538,2.538,0,0,1,2.063.891l.094-.734h2.391V54.68a3.564,3.564,0,0,1-.52,1.941,3.334,3.334,0,0,1-1.5,1.266,5.528,5.528,0,0,1-2.281.441,4.769,4.769,0,0,1-1.8-.352,3.251,3.251,0,0,1-1.332-.914l1.1-1.547a2.414,2.414,0,0,0,1.938.867,1.568,1.568,0,0,0,1.75-1.8V54.32a2.472,2.472,0,0,1-1.914.836,3.055,3.055,0,0,1-2.5-1.184,4.9,4.9,0,0,1-.953-3.168Zm2.641.164a3.007,3.007,0,0,0,.391,1.645,1.232,1.232,0,0,0,1.094.605,1.4,1.4,0,0,0,1.242-.57V49a1.363,1.363,0,0,0-1.227-.578,1.241,1.241,0,0,0-1.1.629A3.429,3.429,0,0,0,41.176,50.875ZM52.809,55a2.973,2.973,0,0,1-.25-.758,2.448,2.448,0,0,1-2.031.914,3,3,0,0,1-2.031-.723,2.3,2.3,0,0,1-.836-1.816,2.364,2.364,0,0,1,1.016-2.078,5.174,5.174,0,0,1,2.953-.7h.813v-.448q0-1.17-1.008-1.17a.824.824,0,0,0-.937.926H47.863a2.36,2.36,0,0,1,1.043-1.99,4.383,4.383,0,0,1,2.66-.765,3.843,3.843,0,0,1,2.555.789,2.743,2.743,0,0,1,.961,2.164v3.742a3.832,3.832,0,0,0,.359,1.781V55ZM51.16,53.281a1.469,1.469,0,0,0,.816-.211,1.322,1.322,0,0,0,.465-.477V51.242h-.766q-1.375,0-1.375,1.234a.754.754,0,0,0,.242.582A.876.876,0,0,0,51.16,53.281Zm7.8-6.734.086.992a2.867,2.867,0,0,1,2.414-1.148,2.412,2.412,0,0,1,1.973.789,3.757,3.757,0,0,1,.676,2.375V55H61.465V49.664a1.426,1.426,0,0,0-.258-.941,1.193,1.193,0,0,0-.937-.3,1.256,1.256,0,0,0-1.148.609V55H56.488V46.547ZM68.34,55H65.7V46.547H68.34Zm-2.8-10.633a1.175,1.175,0,0,1,.406-.922,1.727,1.727,0,0,1,2.109,0,1.249,1.249,0,0,1,0,1.844,1.727,1.727,0,0,1-2.109,0A1.175,1.175,0,0,1,65.543,44.367Zm7.523,8.6h3.852V55h-7.18V53.531l3.75-4.953H69.9V46.547h6.93v1.422ZM82.957,55a2.973,2.973,0,0,1-.25-.758,2.448,2.448,0,0,1-2.031.914,3,3,0,0,1-2.031-.723,2.3,2.3,0,0,1-.836-1.816,2.364,2.364,0,0,1,1.016-2.078,5.174,5.174,0,0,1,2.953-.7h.813v-.448q0-1.17-1.008-1.17a.824.824,0,0,0-.937.926H78.012a2.36,2.36,0,0,1,1.043-1.99,4.383,4.383,0,0,1,2.66-.765,3.843,3.843,0,0,1,2.555.789,2.743,2.743,0,0,1,.961,2.164v3.742a3.832,3.832,0,0,0,.359,1.781V55Zm-1.648-1.719a1.469,1.469,0,0,0,.816-.211,1.322,1.322,0,0,0,.465-.477V51.242h-.766q-1.375,0-1.375,1.234a.754.754,0,0,0,.242.582A.876.876,0,0,0,81.309,53.281Zm8.953-.156a1.171,1.171,0,0,0,.859-.3,1.1,1.1,0,0,0,.3-.84h2.469a2.923,2.923,0,0,1-1,2.281,3.705,3.705,0,0,1-2.566.891A3.751,3.751,0,0,1,87.418,54a4.556,4.556,0,0,1-1.062-3.2v-.109a5.149,5.149,0,0,1,.473-2.262,3.441,3.441,0,0,1,1.363-1.508,4.065,4.065,0,0,1,2.109-.527,3.658,3.658,0,0,1,2.617.914,3.242,3.242,0,0,1,.969,2.477H91.418a1.445,1.445,0,0,0-.32-1.008,1.106,1.106,0,0,0-.859-.352q-1.023,0-1.2,1.3a9.206,9.206,0,0,0-.055,1.141,3.616,3.616,0,0,0,.3,1.766A1.055,1.055,0,0,0,90.262,53.125ZM97.777,55H95.137V46.547h2.641Zm-2.8-10.633a1.175,1.175,0,0,1,.406-.922,1.727,1.727,0,0,1,2.109,0,1.249,1.249,0,0,1,0,1.844,1.727,1.727,0,0,1-2.109,0A1.175,1.175,0,0,1,94.98,44.367ZM99.066,50.7a4.989,4.989,0,0,1,.492-2.254,3.52,3.52,0,0,1,1.414-1.52,4.259,4.259,0,0,1,2.164-.531,3.887,3.887,0,0,1,2.992,1.176,4.512,4.512,0,0,1,1.094,3.2v.094a4.378,4.378,0,0,1-1.1,3.137,3.9,3.9,0,0,1-2.973,1.16,3.942,3.942,0,0,1-2.9-1.082,4.232,4.232,0,0,1-1.18-2.934Zm2.633.164a3.145,3.145,0,0,0,.367,1.719,1.223,1.223,0,0,0,1.086.547q1.406,0,1.438-2.164V50.7q0-2.273-1.453-2.273-1.32,0-1.43,1.961ZM103.5,43h2.781l-2.172,2.453-2.148,0Zm7.3,3.547.086.992a2.867,2.867,0,0,1,2.414-1.148,2.412,2.412,0,0,1,1.973.789,3.757,3.757,0,0,1,.676,2.375V55h-2.641V49.664a1.426,1.426,0,0,0-.258-.941,1.193,1.193,0,0,0-.937-.3,1.256,1.256,0,0,0-1.148.609V55h-2.633V46.547Z" transform="translate(742 700.665)" fill="#12263f"/>
    <path id="Trazado_834142" data-name="Trazado 834142" d="M24.145,9.547a6.708,6.708,0,0,1-.617,2.945,4.561,4.561,0,0,1-1.754,1.973,4.884,4.884,0,0,1-2.59.691,4.953,4.953,0,0,1-2.578-.668,4.554,4.554,0,0,1-1.754-1.91,6.515,6.515,0,0,1-.66-2.852V9.086A6.737,6.737,0,0,1,14.8,6.137a4.55,4.55,0,0,1,1.758-1.973,5.2,5.2,0,0,1,5.184-.008,4.632,4.632,0,0,1,1.762,1.957,6.544,6.544,0,0,1,.637,2.91ZM21.355,9.07A4.783,4.783,0,0,0,20.789,6.5a1.817,1.817,0,0,0-1.621-.879q-2.062,0-2.18,3.094l-.008.836a4.92,4.92,0,0,0,.555,2.57,1.814,1.814,0,0,0,1.648.9,1.792,1.792,0,0,0,1.6-.883,4.785,4.785,0,0,0,.57-2.539Zm11.93,1.773a5.152,5.152,0,0,1-.859,3.2A2.878,2.878,0,0,1,30,15.156a2.5,2.5,0,0,1-2.078-1.023L27.816,15H25.457V3H28.09V7.227a2.41,2.41,0,0,1,1.9-.836,2.879,2.879,0,0,1,2.438,1.133,5.179,5.179,0,0,1,.859,3.188Zm-2.641-.168a3.437,3.437,0,0,0-.324-1.735,1.093,1.093,0,0,0-1-.519A1.261,1.261,0,0,0,28.09,9.1v3.354a1.268,1.268,0,0,0,1.25.671,1.118,1.118,0,0,0,1.18-.9A6.5,6.5,0,0,0,30.645,10.676Zm6.867-6.231v2.1H38.9V8.375H37.512v3.867a.987.987,0,0,0,.172.664.922.922,0,0,0,.68.188,3.862,3.862,0,0,0,.656-.047V14.93a4.859,4.859,0,0,1-1.484.227,2.758,2.758,0,0,1-2.008-.641,2.626,2.626,0,0,1-.648-1.945v-4.2H33.8V6.547h1.078v-2.1Zm6.516,10.711A4.345,4.345,0,0,1,40.879,14a4.006,4.006,0,0,1-1.2-3.02v-.219a5.191,5.191,0,0,1,.48-2.289,3.516,3.516,0,0,1,1.4-1.535,4.233,4.233,0,0,1,2.188-.543A3.659,3.659,0,0,1,46.559,7.5a4.344,4.344,0,0,1,1.031,3.082V11.6H42.355a1.9,1.9,0,0,0,.617,1.117,1.836,1.836,0,0,0,1.234.406,2.366,2.366,0,0,0,1.953-.875l1.2,1.422a3.363,3.363,0,0,1-1.395,1.082A4.713,4.713,0,0,1,44.027,15.156Zm-.3-6.734q-1.156,0-1.375,1.531h2.656v-.2a1.3,1.3,0,0,0-.32-.98A1.275,1.275,0,0,0,43.73,8.422Zm7.336-1.875.086.992a2.867,2.867,0,0,1,2.414-1.148,2.412,2.412,0,0,1,1.973.789,3.757,3.757,0,0,1,.676,2.375V15H53.574V9.664a1.426,1.426,0,0,0-.258-.941,1.193,1.193,0,0,0-.937-.3,1.256,1.256,0,0,0-1.148.609V15H48.6V6.547Zm10.18,6.578a1.171,1.171,0,0,0,.859-.3,1.1,1.1,0,0,0,.3-.84h2.469a2.922,2.922,0,0,1-1,2.281,3.705,3.705,0,0,1-2.566.891A3.751,3.751,0,0,1,58.4,14a4.556,4.556,0,0,1-1.062-3.2v-.109a5.149,5.149,0,0,1,.473-2.262,3.441,3.441,0,0,1,1.363-1.508,4.065,4.065,0,0,1,2.109-.527A3.658,3.658,0,0,1,63.9,7.3a3.242,3.242,0,0,1,.969,2.477H62.4a1.445,1.445,0,0,0-.32-1.008,1.106,1.106,0,0,0-.859-.352q-1.023,0-1.2,1.3a9.206,9.206,0,0,0-.055,1.141,3.616,3.616,0,0,0,.3,1.766A1.055,1.055,0,0,0,61.246,13.125ZM68.762,15H66.121V6.547h2.641Zm-2.8-10.633a1.175,1.175,0,0,1,.406-.922,1.727,1.727,0,0,1,2.109,0,1.175,1.175,0,0,1,.406.922,1.175,1.175,0,0,1-.406.922,1.727,1.727,0,0,1-2.109,0A1.175,1.175,0,0,1,65.965,4.367ZM70.051,10.7a4.989,4.989,0,0,1,.492-2.254,3.52,3.52,0,0,1,1.414-1.52,4.259,4.259,0,0,1,2.164-.531,3.887,3.887,0,0,1,2.992,1.176,4.512,4.512,0,0,1,1.094,3.2v.094A4.378,4.378,0,0,1,77.109,14a3.9,3.9,0,0,1-2.973,1.16,3.942,3.942,0,0,1-2.9-1.082,4.232,4.232,0,0,1-1.18-2.934Zm2.633.164a3.145,3.145,0,0,0,.367,1.719,1.223,1.223,0,0,0,1.086.547q1.406,0,1.438-2.164V10.7q0-2.273-1.453-2.273-1.32,0-1.43,1.961ZM74.48,3h2.781L75.09,5.453l-2.148,0Zm7.3,3.547.086.992a2.867,2.867,0,0,1,2.414-1.148,2.412,2.412,0,0,1,1.973.789,3.757,3.757,0,0,1,.676,2.375V15H84.293V9.664a1.426,1.426,0,0,0-.258-.941,1.193,1.193,0,0,0-.937-.3,1.256,1.256,0,0,0-1.148.609V15H79.316V6.547Zm10.258,4.164a5.164,5.164,0,0,1,.867-3.164,2.854,2.854,0,0,1,2.422-1.156,2.428,2.428,0,0,1,1.906.891V3h2.641V15H97.512l-.133-.906a2.493,2.493,0,0,1-2.062,1.063A2.849,2.849,0,0,1,92.926,14,5.327,5.327,0,0,1,92.043,10.711Zm2.633.164q0,2.25,1.313,2.25a1.3,1.3,0,0,0,1.25-.734V9.172A1.261,1.261,0,0,0,96,8.422q-1.219,0-1.32,1.969Zm10.789,4.281A4.345,4.345,0,0,1,102.316,14a4.006,4.006,0,0,1-1.2-3.02v-.219a5.191,5.191,0,0,1,.48-2.289A3.516,3.516,0,0,1,103,6.934a4.233,4.233,0,0,1,2.188-.543A3.659,3.659,0,0,1,108,7.5a4.344,4.344,0,0,1,1.031,3.082V11.6h-5.234a1.9,1.9,0,0,0,.617,1.117,1.836,1.836,0,0,0,1.234.406,2.366,2.366,0,0,0,1.953-.875l1.2,1.422a3.363,3.363,0,0,1-1.395,1.082A4.713,4.713,0,0,1,105.465,15.156Zm-.3-6.734q-1.156,0-1.375,1.531h2.656v-.2a1.3,1.3,0,0,0-.32-.98A1.275,1.275,0,0,0,105.168,8.422ZM33.246,28.93l-.867-.062a1.558,1.558,0,0,0-1.594.781V35H28.152V26.547h2.469l.086,1.086a2.039,2.039,0,0,1,1.852-1.242,2.567,2.567,0,0,1,.734.094Zm4.891,6.227A4.345,4.345,0,0,1,34.988,34a4.006,4.006,0,0,1-1.2-3.02v-.219a5.191,5.191,0,0,1,.48-2.289,3.516,3.516,0,0,1,1.4-1.535,4.233,4.233,0,0,1,2.188-.543A3.659,3.659,0,0,1,40.668,27.5,4.344,4.344,0,0,1,41.7,30.578V31.6H36.465a1.9,1.9,0,0,0,.617,1.117,1.836,1.836,0,0,0,1.234.406,2.366,2.366,0,0,0,1.953-.875l1.2,1.422a3.363,3.363,0,0,1-1.395,1.082A4.713,4.713,0,0,1,38.137,35.156Zm-.3-6.734q-1.156,0-1.375,1.531h2.656v-.2a1.3,1.3,0,0,0-.32-.98A1.275,1.275,0,0,0,37.84,28.422Zm9.344,4.2a.608.608,0,0,0-.352-.539,5.348,5.348,0,0,0-1.336-.422,6.092,6.092,0,0,1-1.625-.574,2.722,2.722,0,0,1-.977-.863,2.061,2.061,0,0,1-.336-1.164,2.336,2.336,0,0,1,.961-1.918,3.958,3.958,0,0,1,2.516-.754,4.386,4.386,0,0,1,2.688.758,2.37,2.37,0,0,1,1.016,1.992H47.1q0-1.016-1.07-1.016a1.061,1.061,0,0,0-.7.23.714.714,0,0,0-.281.574.655.655,0,0,0,.344.57,3.248,3.248,0,0,0,1.1.359,9.485,9.485,0,0,1,1.324.336,2.406,2.406,0,0,1,1.906,2.352A2.214,2.214,0,0,1,48.7,34.43a4.505,4.505,0,0,1-2.66.727,4.6,4.6,0,0,1-1.937-.391A3.24,3.24,0,0,1,42.77,33.7a2.406,2.406,0,0,1-.477-1.414h2.461a1.017,1.017,0,0,0,.391.855,1.607,1.607,0,0,0,.961.27,1.264,1.264,0,0,0,.809-.219A.7.7,0,0,0,47.184,32.625Zm8.8,1.461a2.714,2.714,0,0,1-2.258,1.07,2.662,2.662,0,0,1-2.105-.809,3.4,3.4,0,0,1-.715-2.324V26.547h2.633v5.492A.946.946,0,0,0,54.6,33.125a1.376,1.376,0,0,0,1.289-.648v-5.93h2.648V35H56.066ZM62.754,35H60.113V23h2.641Zm4.688-10.555v2.1h1.391v1.828H67.441v3.867a.987.987,0,0,0,.172.664.922.922,0,0,0,.68.188,3.862,3.862,0,0,0,.656-.047V34.93a4.859,4.859,0,0,1-1.484.227,2.758,2.758,0,0,1-2.008-.641,2.626,2.626,0,0,1-.648-1.945v-4.2H63.73V26.547h1.078v-2.1ZM74.629,35a2.973,2.973,0,0,1-.25-.758,2.448,2.448,0,0,1-2.031.914,3,3,0,0,1-2.031-.723,2.3,2.3,0,0,1-.836-1.816A2.364,2.364,0,0,1,70.5,30.539a5.174,5.174,0,0,1,2.953-.7h.813v-.448q0-1.17-1.008-1.17a.824.824,0,0,0-.937.926H69.684a2.36,2.36,0,0,1,1.043-1.99,4.383,4.383,0,0,1,2.66-.765,3.843,3.843,0,0,1,2.555.789,2.743,2.743,0,0,1,.961,2.164v3.742a3.832,3.832,0,0,0,.359,1.781V35ZM72.98,33.281a1.469,1.469,0,0,0,.816-.211,1.322,1.322,0,0,0,.465-.477V31.242H73.5q-1.375,0-1.375,1.234a.754.754,0,0,0,.242.582A.876.876,0,0,0,72.98,33.281Zm5.047-2.57a5.164,5.164,0,0,1,.867-3.164,2.854,2.854,0,0,1,2.422-1.156,2.428,2.428,0,0,1,1.906.891V23h2.641V35H83.5l-.133-.906A2.493,2.493,0,0,1,81.3,35.156,2.849,2.849,0,0,1,78.91,34,5.327,5.327,0,0,1,78.027,30.711Zm2.633.164q0,2.25,1.313,2.25a1.3,1.3,0,0,0,1.25-.734V29.172a1.261,1.261,0,0,0-1.234-.75q-1.219,0-1.32,1.969Zm6.367-.18a4.989,4.989,0,0,1,.492-2.254,3.52,3.52,0,0,1,1.414-1.52,4.259,4.259,0,0,1,2.164-.531,3.887,3.887,0,0,1,2.992,1.176,4.512,4.512,0,0,1,1.094,3.2v.094A4.378,4.378,0,0,1,94.086,34a3.9,3.9,0,0,1-2.973,1.16,3.942,3.942,0,0,1-2.9-1.082,4.232,4.232,0,0,1-1.18-2.934Zm2.633.164a3.145,3.145,0,0,0,.367,1.719,1.223,1.223,0,0,0,1.086.547q1.406,0,1.438-2.164V30.7q0-2.273-1.453-2.273-1.32,0-1.43,1.961ZM24.852,55V48.375H23.625V46.547h1.227v-.672a2.921,2.921,0,0,1,.852-2.242,3.364,3.364,0,0,1,2.391-.8A5.235,5.235,0,0,1,29.328,43l.008,1.938a2.4,2.4,0,0,0-.648-.07q-1.2,0-1.2,1.031v.648h1.648v1.828H27.492V55Zm9.977,0a2.973,2.973,0,0,1-.25-.758,2.448,2.448,0,0,1-2.031.914,3,3,0,0,1-2.031-.723,2.3,2.3,0,0,1-.836-1.816A2.364,2.364,0,0,1,30.7,50.539a5.174,5.174,0,0,1,2.953-.7h.813v-.448q0-1.17-1.008-1.17a.824.824,0,0,0-.937.926H29.883a2.36,2.36,0,0,1,1.043-1.99,4.383,4.383,0,0,1,2.66-.765,3.843,3.843,0,0,1,2.555.789,2.743,2.743,0,0,1,.961,2.164v3.742a3.832,3.832,0,0,0,.359,1.781V55ZM33.18,53.281A1.469,1.469,0,0,0,34,53.07a1.322,1.322,0,0,0,.465-.477V51.242H33.7q-1.375,0-1.375,1.234a.754.754,0,0,0,.242.582A.876.876,0,0,0,33.18,53.281Zm8.633-1.414,1.336-5.32h2.773L43.164,55H40.477l-2.758-8.453H40.5ZM46.258,50.7a4.989,4.989,0,0,1,.492-2.254,3.52,3.52,0,0,1,1.414-1.52,4.259,4.259,0,0,1,2.164-.531,3.887,3.887,0,0,1,2.992,1.176,4.512,4.512,0,0,1,1.094,3.2v.094A4.378,4.378,0,0,1,53.316,54a3.9,3.9,0,0,1-2.973,1.16,3.942,3.942,0,0,1-2.9-1.082,4.232,4.232,0,0,1-1.18-2.934Zm2.633.164a3.145,3.145,0,0,0,.367,1.719,1.223,1.223,0,0,0,1.086.547q1.406,0,1.438-2.164V50.7q0-2.273-1.453-2.273-1.32,0-1.43,1.961Zm11.8-1.93-.867-.062a1.558,1.558,0,0,0-1.594.781V55H55.594V46.547h2.469l.086,1.086A2.039,2.039,0,0,1,60,46.391a2.567,2.567,0,0,1,.734.094ZM66.164,55a2.973,2.973,0,0,1-.25-.758,2.448,2.448,0,0,1-2.031.914,3,3,0,0,1-2.031-.723,2.3,2.3,0,0,1-.836-1.816,2.364,2.364,0,0,1,1.016-2.078,5.174,5.174,0,0,1,2.953-.7H65.8v-.448q0-1.17-1.008-1.17a.824.824,0,0,0-.937.926H61.219a2.36,2.36,0,0,1,1.043-1.99,4.383,4.383,0,0,1,2.66-.765,3.843,3.843,0,0,1,2.555.789,2.743,2.743,0,0,1,.961,2.164v3.742a3.832,3.832,0,0,0,.359,1.781V55Zm-1.648-1.719a1.469,1.469,0,0,0,.816-.211,1.322,1.322,0,0,0,.465-.477V51.242h-.766q-1.375,0-1.375,1.234a.754.754,0,0,0,.242.582A.876.876,0,0,0,64.516,53.281Zm13.227-2.437a5.152,5.152,0,0,1-.859,3.2,2.878,2.878,0,0,1-2.422,1.117,2.5,2.5,0,0,1-2.078-1.023L72.273,55H69.914V43h2.633v4.227a2.41,2.41,0,0,1,1.9-.836,2.879,2.879,0,0,1,2.438,1.133,5.179,5.179,0,0,1,.859,3.188ZM75.1,50.676a3.437,3.437,0,0,0-.324-1.735,1.093,1.093,0,0,0-1-.519,1.261,1.261,0,0,0-1.234.679v3.354a1.268,1.268,0,0,0,1.25.671,1.118,1.118,0,0,0,1.18-.9A6.5,6.5,0,0,0,75.1,50.676ZM81.68,55H79.039V43H81.68Zm5.711.156A4.345,4.345,0,0,1,84.242,54a4.006,4.006,0,0,1-1.2-3.02v-.219a5.191,5.191,0,0,1,.48-2.289,3.516,3.516,0,0,1,1.4-1.535,4.233,4.233,0,0,1,2.188-.543A3.659,3.659,0,0,1,89.922,47.5a4.344,4.344,0,0,1,1.031,3.082V51.6H85.719a1.9,1.9,0,0,0,.617,1.117,1.836,1.836,0,0,0,1.234.406,2.366,2.366,0,0,0,1.953-.875l1.2,1.422a3.363,3.363,0,0,1-1.395,1.082A4.713,4.713,0,0,1,87.391,55.156Zm-.3-6.734q-1.156,0-1.375,1.531h2.656v-.2a1.3,1.3,0,0,0-.32-.98A1.275,1.275,0,0,0,87.094,48.422Zm9.344,4.2a.608.608,0,0,0-.352-.539,5.347,5.347,0,0,0-1.336-.422,6.092,6.092,0,0,1-1.625-.574,2.722,2.722,0,0,1-.977-.863,2.061,2.061,0,0,1-.336-1.164,2.336,2.336,0,0,1,.961-1.918,3.958,3.958,0,0,1,2.516-.754,4.386,4.386,0,0,1,2.688.758,2.37,2.37,0,0,1,1.016,1.992H96.352q0-1.016-1.07-1.016a1.061,1.061,0,0,0-.7.23.714.714,0,0,0-.281.574.655.655,0,0,0,.344.57,3.248,3.248,0,0,0,1.1.359,9.486,9.486,0,0,1,1.324.336,2.406,2.406,0,0,1,1.906,2.352,2.214,2.214,0,0,1-1.027,1.883,4.505,4.505,0,0,1-2.66.727,4.6,4.6,0,0,1-1.937-.391A3.24,3.24,0,0,1,92.023,53.7a2.406,2.406,0,0,1-.477-1.414h2.461a1.017,1.017,0,0,0,.391.855,1.607,1.607,0,0,0,.961.27,1.264,1.264,0,0,0,.809-.219A.7.7,0,0,0,96.438,52.625Z" transform="translate(931 1032.665)" fill="#12263f"/>
    <path id="Trazado_834143" data-name="Trazado 834143" d="M13.477,11.141V15H10.734V3.625h4.539a5.287,5.287,0,0,1,2.309.48,3.621,3.621,0,0,1,1.555,1.367,3.734,3.734,0,0,1,.551,2.012,3.291,3.291,0,0,1-1.191,2.66,4.943,4.943,0,0,1-3.27,1Zm0-2.117h1.8a1.7,1.7,0,0,0,1.215-.4A1.48,1.48,0,0,0,16.906,7.5a1.83,1.83,0,0,0-.43-1.273A1.522,1.522,0,0,0,15.3,5.742H13.477ZM26.141,8.93l-.867-.062a1.558,1.558,0,0,0-1.594.781V15H21.047V6.547h2.469L23.6,7.633a2.039,2.039,0,0,1,1.852-1.242,2.567,2.567,0,0,1,.734.094Zm4.891,6.227A4.345,4.345,0,0,1,27.883,14a4.006,4.006,0,0,1-1.2-3.02v-.219a5.191,5.191,0,0,1,.48-2.289,3.516,3.516,0,0,1,1.4-1.535,4.233,4.233,0,0,1,2.188-.543A3.659,3.659,0,0,1,33.563,7.5a4.344,4.344,0,0,1,1.031,3.082V11.6H29.359a1.9,1.9,0,0,0,.617,1.117,1.836,1.836,0,0,0,1.234.406,2.366,2.366,0,0,0,1.953-.875l1.2,1.422a3.363,3.363,0,0,1-1.395,1.082A4.713,4.713,0,0,1,31.031,15.156Zm-.3-6.734q-1.156,0-1.375,1.531h2.656v-.2a1.3,1.3,0,0,0-.32-.98A1.275,1.275,0,0,0,30.734,8.422Zm8.188,3.445,1.336-5.32h2.773L40.273,15H37.586L34.828,6.547h2.781ZM47.8,15.156A4.345,4.345,0,0,1,44.656,14a4.006,4.006,0,0,1-1.2-3.02v-.219a5.191,5.191,0,0,1,.48-2.289,3.516,3.516,0,0,1,1.4-1.535,4.233,4.233,0,0,1,2.188-.543A3.659,3.659,0,0,1,50.336,7.5a4.344,4.344,0,0,1,1.031,3.082V11.6H46.133a1.9,1.9,0,0,0,.617,1.117,1.836,1.836,0,0,0,1.234.406,2.366,2.366,0,0,0,1.953-.875l1.2,1.422a3.363,3.363,0,0,1-1.395,1.082A4.713,4.713,0,0,1,47.8,15.156Zm-.3-6.734q-1.156,0-1.375,1.531h2.656v-.2a1.3,1.3,0,0,0-.32-.98A1.275,1.275,0,0,0,47.508,8.422Zm7.336-1.875.086.992a2.867,2.867,0,0,1,2.414-1.148,2.412,2.412,0,0,1,1.973.789,3.757,3.757,0,0,1,.676,2.375V15H57.352V9.664a1.426,1.426,0,0,0-.258-.941,1.193,1.193,0,0,0-.937-.3,1.256,1.256,0,0,0-1.148.609V15H52.375V6.547Zm10.18,6.578a1.171,1.171,0,0,0,.859-.3,1.1,1.1,0,0,0,.3-.84h2.469a2.922,2.922,0,0,1-1,2.281,3.705,3.705,0,0,1-2.566.891A3.751,3.751,0,0,1,62.18,14a4.556,4.556,0,0,1-1.062-3.2v-.109a5.149,5.149,0,0,1,.473-2.262,3.441,3.441,0,0,1,1.363-1.508,4.065,4.065,0,0,1,2.109-.527A3.658,3.658,0,0,1,67.68,7.3a3.242,3.242,0,0,1,.969,2.477H66.18a1.445,1.445,0,0,0-.32-1.008A1.106,1.106,0,0,0,65,8.422q-1.023,0-1.2,1.3a9.206,9.206,0,0,0-.055,1.141,3.616,3.616,0,0,0,.3,1.766A1.055,1.055,0,0,0,65.023,13.125ZM72.539,15H69.9V6.547h2.641Zm-2.8-10.633a1.175,1.175,0,0,1,.406-.922,1.727,1.727,0,0,1,2.109,0,1.175,1.175,0,0,1,.406.922,1.175,1.175,0,0,1-.406.922,1.727,1.727,0,0,1-2.109,0A1.175,1.175,0,0,1,69.742,4.367ZM73.828,10.7a4.989,4.989,0,0,1,.492-2.254,3.52,3.52,0,0,1,1.414-1.52A4.259,4.259,0,0,1,77.9,6.391a3.887,3.887,0,0,1,2.992,1.176,4.512,4.512,0,0,1,1.094,3.2v.094A4.378,4.378,0,0,1,80.887,14a3.9,3.9,0,0,1-2.973,1.16,3.942,3.942,0,0,1-2.9-1.082,4.232,4.232,0,0,1-1.18-2.934Zm2.633.164a3.145,3.145,0,0,0,.367,1.719,1.223,1.223,0,0,0,1.086.547q1.406,0,1.438-2.164V10.7q0-2.273-1.453-2.273-1.32,0-1.43,1.961ZM78.258,3h2.781L78.867,5.453l-2.148,0Zm7.3,3.547.086.992a2.867,2.867,0,0,1,2.414-1.148,2.412,2.412,0,0,1,1.973.789,3.757,3.757,0,0,1,.676,2.375V15H88.07V9.664a1.426,1.426,0,0,0-.258-.941,1.193,1.193,0,0,0-.937-.3,1.256,1.256,0,0,0-1.148.609V15H83.094V6.547ZM95.82,10.711a5.164,5.164,0,0,1,.867-3.164,2.854,2.854,0,0,1,2.422-1.156,2.428,2.428,0,0,1,1.906.891V3h2.641V15h-2.367l-.133-.906a2.493,2.493,0,0,1-2.062,1.063A2.849,2.849,0,0,1,96.7,14,5.327,5.327,0,0,1,95.82,10.711Zm2.633.164q0,2.25,1.313,2.25a1.3,1.3,0,0,0,1.25-.734V9.172a1.261,1.261,0,0,0-1.234-.75q-1.219,0-1.32,1.969Zm10.789,4.281A4.345,4.345,0,0,1,106.094,14a4.006,4.006,0,0,1-1.2-3.02v-.219a5.191,5.191,0,0,1,.48-2.289,3.516,3.516,0,0,1,1.4-1.535,4.233,4.233,0,0,1,2.188-.543A3.659,3.659,0,0,1,111.773,7.5a4.344,4.344,0,0,1,1.031,3.082V11.6H107.57a1.9,1.9,0,0,0,.617,1.117,1.836,1.836,0,0,0,1.234.406,2.366,2.366,0,0,0,1.953-.875l1.2,1.422a3.363,3.363,0,0,1-1.395,1.082A4.713,4.713,0,0,1,109.242,15.156Zm-.3-6.734q-1.156,0-1.375,1.531h2.656v-.2a1.3,1.3,0,0,0-.32-.98A1.275,1.275,0,0,0,108.945,8.422Zm-83.895,24.2a.608.608,0,0,0-.352-.539,5.348,5.348,0,0,0-1.336-.422,6.092,6.092,0,0,1-1.625-.574,2.722,2.722,0,0,1-.977-.863,2.061,2.061,0,0,1-.336-1.164,2.336,2.336,0,0,1,.961-1.918,3.958,3.958,0,0,1,2.516-.754,4.386,4.386,0,0,1,2.688.758,2.37,2.37,0,0,1,1.016,1.992H24.965q0-1.016-1.07-1.016a1.061,1.061,0,0,0-.7.23.714.714,0,0,0-.281.574.655.655,0,0,0,.344.57,3.248,3.248,0,0,0,1.1.359,9.485,9.485,0,0,1,1.324.336,2.406,2.406,0,0,1,1.906,2.352,2.214,2.214,0,0,1-1.027,1.883,4.505,4.505,0,0,1-2.66.727,4.6,4.6,0,0,1-1.937-.391A3.24,3.24,0,0,1,20.637,33.7a2.406,2.406,0,0,1-.477-1.414h2.461a1.017,1.017,0,0,0,.391.855,1.607,1.607,0,0,0,.961.27,1.264,1.264,0,0,0,.809-.219A.7.7,0,0,0,25.051,32.625ZM31.6,35H28.957V26.547H31.6ZM28.8,24.367a1.175,1.175,0,0,1,.406-.922,1.727,1.727,0,0,1,2.109,0,1.249,1.249,0,0,1,0,1.844,1.727,1.727,0,0,1-2.109,0A1.175,1.175,0,0,1,28.8,24.367Zm7.484.078v2.1h1.391v1.828H36.285v3.867a.987.987,0,0,0,.172.664.922.922,0,0,0,.68.188,3.862,3.862,0,0,0,.656-.047V34.93a4.859,4.859,0,0,1-1.484.227,2.758,2.758,0,0,1-2.008-.641,2.626,2.626,0,0,1-.648-1.945v-4.2H32.574V26.547h1.078v-2.1Zm7.461,9.641a2.714,2.714,0,0,1-2.258,1.07,2.662,2.662,0,0,1-2.105-.809,3.4,3.4,0,0,1-.715-2.324V26.547H41.3v5.492a.946.946,0,0,0,1.055,1.086,1.376,1.376,0,0,0,1.289-.648v-5.93h2.648V35H43.824ZM52.5,35a2.973,2.973,0,0,1-.25-.758,2.448,2.448,0,0,1-2.031.914,3,3,0,0,1-2.031-.723,2.3,2.3,0,0,1-.836-1.816,2.364,2.364,0,0,1,1.016-2.078,5.174,5.174,0,0,1,2.953-.7h.813v-.448q0-1.17-1.008-1.17a.824.824,0,0,0-.937.926H47.551a2.36,2.36,0,0,1,1.043-1.99,4.383,4.383,0,0,1,2.66-.765,3.843,3.843,0,0,1,2.555.789,2.743,2.743,0,0,1,.961,2.164v3.742a3.832,3.832,0,0,0,.359,1.781V35Zm-1.648-1.719a1.469,1.469,0,0,0,.816-.211,1.322,1.322,0,0,0,.465-.477V31.242h-.766q-1.375,0-1.375,1.234a.754.754,0,0,0,.242.582A.876.876,0,0,0,50.848,33.281Zm8.953-.156a1.171,1.171,0,0,0,.859-.3,1.1,1.1,0,0,0,.3-.84h2.469a2.923,2.923,0,0,1-1,2.281,3.705,3.705,0,0,1-2.566.891A3.751,3.751,0,0,1,56.957,34a4.556,4.556,0,0,1-1.062-3.2v-.109a5.149,5.149,0,0,1,.473-2.262,3.441,3.441,0,0,1,1.363-1.508,4.065,4.065,0,0,1,2.109-.527,3.658,3.658,0,0,1,2.617.914,3.242,3.242,0,0,1,.969,2.477H60.957a1.445,1.445,0,0,0-.32-1.008,1.106,1.106,0,0,0-.859-.352q-1.023,0-1.2,1.3a9.206,9.206,0,0,0-.055,1.141,3.616,3.616,0,0,0,.3,1.766A1.055,1.055,0,0,0,59.8,33.125ZM67.316,35H64.676V26.547h2.641Zm-2.8-10.633a1.175,1.175,0,0,1,.406-.922,1.727,1.727,0,0,1,2.109,0,1.249,1.249,0,0,1,0,1.844,1.727,1.727,0,0,1-2.109,0A1.175,1.175,0,0,1,64.52,24.367ZM68.605,30.7a4.989,4.989,0,0,1,.492-2.254,3.52,3.52,0,0,1,1.414-1.52,4.259,4.259,0,0,1,2.164-.531,3.887,3.887,0,0,1,2.992,1.176,4.512,4.512,0,0,1,1.094,3.2v.094A4.378,4.378,0,0,1,75.664,34a3.9,3.9,0,0,1-2.973,1.16,3.942,3.942,0,0,1-2.9-1.082,4.232,4.232,0,0,1-1.18-2.934Zm2.633.164a3.145,3.145,0,0,0,.367,1.719,1.223,1.223,0,0,0,1.086.547q1.406,0,1.438-2.164V30.7q0-2.273-1.453-2.273-1.32,0-1.43,1.961Zm9.1-4.312.086.992a2.867,2.867,0,0,1,2.414-1.148,2.412,2.412,0,0,1,1.973.789,3.757,3.757,0,0,1,.676,2.375V35H82.848V29.664a1.426,1.426,0,0,0-.258-.941,1.193,1.193,0,0,0-.937-.3,1.256,1.256,0,0,0-1.148.609V35H77.871V26.547Zm10.7,8.609A4.345,4.345,0,0,1,87.887,34a4.006,4.006,0,0,1-1.2-3.02v-.219a5.191,5.191,0,0,1,.48-2.289,3.516,3.516,0,0,1,1.4-1.535,4.233,4.233,0,0,1,2.188-.543A3.659,3.659,0,0,1,93.566,27.5,4.344,4.344,0,0,1,94.6,30.578V31.6H89.363a1.9,1.9,0,0,0,.617,1.117,1.836,1.836,0,0,0,1.234.406,2.366,2.366,0,0,0,1.953-.875l1.2,1.422a3.363,3.363,0,0,1-1.395,1.082A4.713,4.713,0,0,1,91.035,35.156Zm-.3-6.734q-1.156,0-1.375,1.531H92.02v-.2a1.3,1.3,0,0,0-.32-.98A1.275,1.275,0,0,0,90.738,28.422Zm9.344,4.2a.608.608,0,0,0-.352-.539,5.348,5.348,0,0,0-1.336-.422,6.092,6.092,0,0,1-1.625-.574,2.722,2.722,0,0,1-.977-.863,2.061,2.061,0,0,1-.336-1.164,2.336,2.336,0,0,1,.961-1.918,3.958,3.958,0,0,1,2.516-.754,4.386,4.386,0,0,1,2.688.758,2.37,2.37,0,0,1,1.016,1.992H100q0-1.016-1.07-1.016a1.061,1.061,0,0,0-.7.23.714.714,0,0,0-.281.574.655.655,0,0,0,.344.57,3.248,3.248,0,0,0,1.1.359,9.486,9.486,0,0,1,1.324.336,2.406,2.406,0,0,1,1.906,2.352,2.214,2.214,0,0,1-1.027,1.883,4.505,4.505,0,0,1-2.66.727A4.6,4.6,0,0,1,97,34.766,3.24,3.24,0,0,1,95.668,33.7a2.406,2.406,0,0,1-.477-1.414h2.461a1.017,1.017,0,0,0,.391.855,1.607,1.607,0,0,0,.961.27,1.264,1.264,0,0,0,.809-.219A.7.7,0,0,0,100.082,32.625ZM18.559,50.836a5.1,5.1,0,0,1-.887,3.145,2.843,2.843,0,0,1-2.395,1.176,2.437,2.437,0,0,1-1.914-.852V58.25H10.73v-11.7h2.461l.078.781a2.437,2.437,0,0,1,1.992-.937,2.866,2.866,0,0,1,2.43,1.152,5.16,5.16,0,0,1,.867,3.168Zm-2.633-.164q0-2.25-1.312-2.25a1.239,1.239,0,0,0-1.25.672v3.328a1.279,1.279,0,0,0,1.266.7q1.258,0,1.3-2.172Zm8.906-1.742-.867-.062a1.558,1.558,0,0,0-1.594.781V55H19.738V46.547h2.469l.086,1.086a2.039,2.039,0,0,1,1.852-1.242,2.567,2.567,0,0,1,.734.094Zm.336,1.766a4.989,4.989,0,0,1,.492-2.254,3.52,3.52,0,0,1,1.414-1.52,4.259,4.259,0,0,1,2.164-.531,3.887,3.887,0,0,1,2.992,1.176,4.512,4.512,0,0,1,1.094,3.2v.094A4.378,4.378,0,0,1,32.227,54a3.9,3.9,0,0,1-2.973,1.16,3.942,3.942,0,0,1-2.9-1.082,4.232,4.232,0,0,1-1.18-2.934Zm2.633.164a3.145,3.145,0,0,0,.367,1.719,1.223,1.223,0,0,0,1.086.547q1.406,0,1.438-2.164V50.7q0-2.273-1.453-2.273-1.32,0-1.43,1.961Zm14.531-.016a5.152,5.152,0,0,1-.859,3.2,2.878,2.878,0,0,1-2.422,1.117,2.5,2.5,0,0,1-2.078-1.023L36.863,55H34.5V43h2.633v4.227a2.41,2.41,0,0,1,1.9-.836,2.879,2.879,0,0,1,2.438,1.133,5.179,5.179,0,0,1,.859,3.188Zm-2.641-.168a3.437,3.437,0,0,0-.324-1.735,1.093,1.093,0,0,0-1-.519,1.261,1.261,0,0,0-1.234.679v3.354a1.268,1.268,0,0,0,1.25.671,1.118,1.118,0,0,0,1.18-.9A6.5,6.5,0,0,0,39.691,50.676ZM46.27,55H43.629V43H46.27Zm5.711.156A4.345,4.345,0,0,1,48.832,54a4.006,4.006,0,0,1-1.2-3.02v-.219a5.191,5.191,0,0,1,.48-2.289,3.516,3.516,0,0,1,1.4-1.535,4.233,4.233,0,0,1,2.188-.543A3.659,3.659,0,0,1,54.512,47.5a4.344,4.344,0,0,1,1.031,3.082V51.6H50.309a1.9,1.9,0,0,0,.617,1.117,1.836,1.836,0,0,0,1.234.406,2.366,2.366,0,0,0,1.953-.875l1.2,1.422a3.363,3.363,0,0,1-1.395,1.082A4.713,4.713,0,0,1,51.98,55.156Zm-.3-6.734q-1.156,0-1.375,1.531h2.656v-.2a1.3,1.3,0,0,0-.32-.98A1.275,1.275,0,0,0,51.684,48.422Zm7.406-1.875.086.992a2.906,2.906,0,0,1,2.414-1.148,2.14,2.14,0,0,1,2.164,1.273,2.813,2.813,0,0,1,2.484-1.273q2.57,0,2.641,3.109V55H66.238V49.664a1.611,1.611,0,0,0-.219-.945.931.931,0,0,0-.8-.3,1.247,1.247,0,0,0-1.164.7l.008.109V55H61.426V49.68a1.694,1.694,0,0,0-.211-.961.929.929,0,0,0-.8-.3,1.263,1.263,0,0,0-1.156.7V55H56.621V46.547ZM75.145,55a2.973,2.973,0,0,1-.25-.758,2.448,2.448,0,0,1-2.031.914,3,3,0,0,1-2.031-.723A2.3,2.3,0,0,1,70,52.617a2.364,2.364,0,0,1,1.016-2.078,5.174,5.174,0,0,1,2.953-.7h.813v-.448q0-1.17-1.008-1.17a.824.824,0,0,0-.937.926H70.2a2.36,2.36,0,0,1,1.043-1.99,4.383,4.383,0,0,1,2.66-.765,3.843,3.843,0,0,1,2.555.789,2.743,2.743,0,0,1,.961,2.164v3.742a3.832,3.832,0,0,0,.359,1.781V55ZM73.5,53.281a1.469,1.469,0,0,0,.816-.211,1.322,1.322,0,0,0,.465-.477V51.242h-.766q-1.375,0-1.375,1.234a.754.754,0,0,0,.242.582A.876.876,0,0,0,73.5,53.281ZM74.152,43h2.781l-2.172,2.453-2.148,0Zm7.789,1.445v2.1h1.391v1.828H81.941v3.867a.987.987,0,0,0,.172.664.922.922,0,0,0,.68.188,3.862,3.862,0,0,0,.656-.047V54.93a4.859,4.859,0,0,1-1.484.227,2.758,2.758,0,0,1-2.008-.641,2.626,2.626,0,0,1-.648-1.945v-4.2H78.23V46.547h1.078v-2.1ZM87.145,55H84.5V46.547h2.641Zm-2.8-10.633a1.175,1.175,0,0,1,.406-.922,1.727,1.727,0,0,1,2.109,0,1.249,1.249,0,0,1,0,1.844,1.727,1.727,0,0,1-2.109,0A1.175,1.175,0,0,1,84.348,44.367Zm7.992,8.758a1.171,1.171,0,0,0,.859-.3,1.1,1.1,0,0,0,.3-.84h2.469a2.923,2.923,0,0,1-1,2.281,3.705,3.705,0,0,1-2.566.891A3.751,3.751,0,0,1,89.5,54a4.556,4.556,0,0,1-1.062-3.2v-.109a5.149,5.149,0,0,1,.473-2.262,3.441,3.441,0,0,1,1.363-1.508,4.065,4.065,0,0,1,2.109-.527A3.658,3.658,0,0,1,95,47.3a3.242,3.242,0,0,1,.969,2.477H93.5a1.445,1.445,0,0,0-.32-1.008,1.106,1.106,0,0,0-.859-.352q-1.023,0-1.2,1.3a9.206,9.206,0,0,0-.055,1.141,3.616,3.616,0,0,0,.3,1.766A1.055,1.055,0,0,0,92.34,53.125ZM101.84,55a2.973,2.973,0,0,1-.25-.758,2.448,2.448,0,0,1-2.031.914,3,3,0,0,1-2.031-.723,2.3,2.3,0,0,1-.836-1.816,2.364,2.364,0,0,1,1.016-2.078,5.174,5.174,0,0,1,2.953-.7h.813v-.448q0-1.17-1.008-1.17a.824.824,0,0,0-.937.926H96.895a2.36,2.36,0,0,1,1.043-1.99,4.383,4.383,0,0,1,2.66-.765,3.843,3.843,0,0,1,2.555.789,2.743,2.743,0,0,1,.961,2.164v3.742a3.832,3.832,0,0,0,.359,1.781V55Zm-1.648-1.719a1.469,1.469,0,0,0,.816-.211,1.322,1.322,0,0,0,.465-.477V51.242h-.766q-1.375,0-1.375,1.234a.754.754,0,0,0,.242.582A.876.876,0,0,0,100.191,53.281Zm9.8-.656a.608.608,0,0,0-.352-.539,5.347,5.347,0,0,0-1.336-.422,6.092,6.092,0,0,1-1.625-.574,2.722,2.722,0,0,1-.977-.863,2.061,2.061,0,0,1-.336-1.164,2.336,2.336,0,0,1,.961-1.918,3.958,3.958,0,0,1,2.516-.754,4.386,4.386,0,0,1,2.688.758,2.37,2.37,0,0,1,1.016,1.992H109.91q0-1.016-1.07-1.016a1.061,1.061,0,0,0-.7.23.714.714,0,0,0-.281.574.655.655,0,0,0,.344.57,3.248,3.248,0,0,0,1.1.359,9.486,9.486,0,0,1,1.324.336,2.406,2.406,0,0,1,1.906,2.352,2.214,2.214,0,0,1-1.027,1.883,4.505,4.505,0,0,1-2.66.727,4.6,4.6,0,0,1-1.937-.391,3.24,3.24,0,0,1-1.328-1.062,2.406,2.406,0,0,1-.477-1.414h2.461a1.017,1.017,0,0,0,.391.855,1.607,1.607,0,0,0,.961.27,1.264,1.264,0,0,0,.809-.219A.7.7,0,0,0,110,52.625Z" transform="translate(551 1032.665)" fill="#12263f"/>
    <g id="Grupo_1082718" data-name="Grupo 1082718" transform="translate(781.57 647.398)">
      <g id="Grupo_1082717" data-name="Grupo 1082717" clip-path="url(#clip-path-6)">
        <path id="Trazado_832740" data-name="Trazado 832740" d="M23.91,0c.281.071.565.132.843.213a5.373,5.373,0,0,1,2.779,1.8,4.355,4.355,0,0,0,2.835,1.629,5.571,5.571,0,0,1,4.554,4.62,4.219,4.219,0,0,0,1.528,2.679,5.559,5.559,0,0,1,1.7,6.423,4.185,4.185,0,0,0,0,2.992,5.59,5.59,0,0,1-1.777,6.489,3.544,3.544,0,0,0-1.359,2.184A6.061,6.061,0,0,1,33,32.838c.094.169.176.324.264.476l5.8,10.042c.081.141.169.278.243.422a.98.98,0,0,1-1.128,1.428q-2.54-.68-5.08-1.359c-.108-.029-.219-.046-.373-.077-.3,1.108-.6,2.2-.893,3.292-.169.627-.347,1.252-.5,1.883-.118.5-.338.9-.883.975s-.856-.253-1.111-.7q-3.182-5.532-6.376-11.057A.93.93,0,0,0,22.2,37.6a6.754,6.754,0,0,1-1.305-.378,3.678,3.678,0,0,0-2.158-.076c-.61.161-1.223.317-1.821.518a.875.875,0,0,0-.377.4q-3.188,5.5-6.363,11.008c-.041.07-.082.14-.12.212A1,1,0,0,1,9,49.924a1.047,1.047,0,0,1-.887-.91c-.387-1.475-.785-2.948-1.18-4.421-.071-.264-.147-.526-.234-.835-1.216.323-2.4.637-3.59.953-.533.142-1.068.28-1.6.437a1.08,1.08,0,0,1-1.322-.293c-.351-.47-.167-.906.093-1.354Q3,38.822,5.7,34.135c.219-.38.617-.767.6-1.138-.014-.343-.47-.668-.732-1a5.53,5.53,0,0,1-1.143-2.654A3.905,3.905,0,0,0,2.944,26.8,5.264,5.264,0,0,1,.868,22.769a7.367,7.367,0,0,1,.351-2.382,4.519,4.519,0,0,0-.012-3.042,5.584,5.584,0,0,1,1.726-6.42,4.159,4.159,0,0,0,1.5-2.588A5.6,5.6,0,0,1,9.212,3.6,3.749,3.749,0,0,0,11.62,2.252,5.694,5.694,0,0,1,15.3.069.408.408,0,0,0,15.423,0h1.463a16.881,16.881,0,0,0,1.944.569,4.974,4.974,0,0,0,1.677.005A16.293,16.293,0,0,0,22.447,0Zm12.7,15.547A3.733,3.733,0,0,0,35.3,12.523a6.246,6.246,0,0,1-2.334-4.076A3.535,3.535,0,0,0,30.075,5.57a6.284,6.284,0,0,1-4.04-2.305,3.539,3.539,0,0,0-4.1-1.073,6.1,6.1,0,0,1-4.465.013,3.58,3.58,0,0,0-4.178,1.11,6.122,6.122,0,0,1-3.82,2.228A3.618,3.618,0,0,0,6.349,8.7a5.823,5.823,0,0,1-2.075,3.639,3.664,3.664,0,0,0-1.2,4.45,5.807,5.807,0,0,1,.012,4.1,3.674,3.674,0,0,0,1.2,4.491,5.827,5.827,0,0,1,2.064,3.644,3.666,3.666,0,0,0,3.134,3.156,5.877,5.877,0,0,1,3.687,2.083,3.66,3.66,0,0,0,4.452,1.193,5.824,5.824,0,0,1,4.142.009,3.67,3.67,0,0,0,4.414-1.182,5.834,5.834,0,0,1,3.533-2.077,3.7,3.7,0,0,0,3.34-3.349A5.7,5.7,0,0,1,35.064,25.4a3.691,3.691,0,0,0,1.21-4.533,5.737,5.737,0,0,1,0-4.047,11.187,11.187,0,0,0,.328-1.273M24.812,37.483l5.159,8.929c.058-.19.078-.25.094-.31.325-1.206.646-2.414.974-3.619a1.02,1.02,0,0,1,1.425-.825c.425.107.845.232,1.268.344.869.23,1.738.456,2.7.708l-5.11-8.844c-.5.1-.933.2-1.362.281a3.4,3.4,0,0,0-2.05,1.136,6.309,6.309,0,0,1-3.1,2.2M2.99,42.727c1.379-.372,2.643-.716,3.909-1.053.856-.228,1.276.021,1.509.882l1.045,3.87L14.6,37.508a5.047,5.047,0,0,1-2.637-1.671,5.144,5.144,0,0,0-3.885-1.93L2.99,42.727" transform="translate(0 0.001)" fill="#fff"/>
        <path id="Trazado_832741" data-name="Trazado 832741" d="M79.4,68.134a12.675,12.675,0,1,1-25.325-.779,12.358,12.358,0,0,1,7.588-10.844,3.285,3.285,0,0,1,.454-.175.967.967,0,0,1,1.174.529.948.948,0,0,1-.358,1.2,3.7,3.7,0,0,1-.525.253,10.73,10.73,0,1,0,8.619,0c-.089-.039-.181-.072-.27-.112a.981.981,0,1,1,.746-1.8,12.683,12.683,0,0,1,7.9,11.736" transform="translate(-46.998 -48.96)" fill="#fff"/>
        <path id="Trazado_832742" data-name="Trazado 832742" d="M98.206,102.17c1.348-1.35,2.645-2.649,3.943-3.947.745-.745,1.173-.741,1.926.014q1.292,1.294,2.584,2.588a1.031,1.031,0,0,1,0,1.713q-3.791,3.8-7.587,7.586a1.027,1.027,0,0,1-1.712.013q-2.693-2.686-5.38-5.379a1.018,1.018,0,0,1-.006-1.678q1.375-1.384,2.759-2.758a1.019,1.019,0,0,1,1.646.008c.6.593,1.19,1.2,1.827,1.839m-4.179,1.685,4.218,4.218,6.385-6.389-1.594-1.6c-1.291,1.295-2.609,2.619-3.93,3.939a1.06,1.06,0,0,1-1.785.005c-.581-.583-1.156-1.172-1.73-1.754l-1.563,1.579" transform="translate(-79.611 -84.944)" fill="#fff"/>
        <path id="Trazado_832743" data-name="Trazado 832743" d="M144.888,50.028a.959.959,0,0,1,.931.989.972.972,0,1,1-1.942-.08.961.961,0,0,1,1.011-.909" transform="translate(-125.133 -43.51)" fill="#fff"/>
      </g>
    </g>
    <g id="Grupo_1082720" data-name="Grupo 1082720" transform="translate(594 974.665)">
      <g id="Grupo_1082719" data-name="Grupo 1082719" clip-path="url(#clip-path-7)">
        <path id="Trazado_832744" data-name="Trazado 832744" d="M15.847,0a9.671,9.671,0,0,1,1.12.458,3.788,3.788,0,0,1,1.939,3.113,3.95,3.95,0,0,1,2.342-.654,3.664,3.664,0,0,1,3.426,3.426c.032.653.018,1.309.009,1.963a.747.747,0,0,1-.738.809.759.759,0,0,1-.731-.821c-.013-.54,0-1.08,0-1.62a2.18,2.18,0,0,0-2.181-2.283A2.121,2.121,0,0,0,18.9,6.657q-.008,5.57,0,11.14a4.155,4.155,0,0,1-.009.49.682.682,0,0,1-.666.661.691.691,0,0,1-.78-.591,2.321,2.321,0,0,1-.024-.537q-.006-6.92-.015-13.84a3.374,3.374,0,0,0-.151-1.058,2.136,2.136,0,0,0-4.158.715q-.01,7.067,0,14.134a4.6,4.6,0,0,1-.007.49.734.734,0,0,1-1.468-.025c-.011-.146,0-.294,0-.442q0-5.546,0-11.091A2.162,2.162,0,1,0,7.3,6.476c-.009.2-.007.392-.007.589q0,5.4,0,10.8a2,2,0,0,1-.074.626.6.6,0,0,1-.765.439,1.539,1.539,0,0,1-.613-.592c-.079-.111-.026-.318-.026-.481,0-1.8.009-3.6,0-5.4a2.156,2.156,0,0,0-4.294-.366,6.164,6.164,0,0,0-.026.686c0,6.036.015,12.073-.008,18.109a11.059,11.059,0,0,0,2.629,7.41,4.5,4.5,0,0,1,1.075,3.026c-.013,2.143,0,4.286,0,6.429,0,.8.232,1.028,1.017,1.028q6.184,0,12.367,0c.765,0,1-.233,1-.989,0-2.094.017-4.188,0-6.282a4.851,4.851,0,0,1,1.614-3.693q5.708-5.533,11.359-11.123a1.844,1.844,0,0,0-.14-2.908,3.866,3.866,0,0,0-5.118.052c-1.236,1.143-2.4,2.365-3.594,3.553A3.129,3.129,0,0,1,19.8,28.1a5.79,5.79,0,1,0-4.465,10.681c.076.03.154.055.229.087a.74.74,0,1,1-.5,1.386,7.076,7.076,0,0,1-3.227-2.228,7.268,7.268,0,0,1,8.374-11.357,2.014,2.014,0,0,0,2.877-.793.967.967,0,0,0,.117-.547q.009-6.576.005-13.153a2.195,2.195,0,0,1,.019-.489.731.731,0,0,1,1.446.052,3.467,3.467,0,0,1,.01.49q0,5.693,0,11.386v.673c.266-.262.442-.464.646-.63a14.274,14.274,0,0,1,2.222-1.739,5.244,5.244,0,0,1,6.075.982,3.313,3.313,0,0,1,.209,4.572c-.064.075-.129.148-.2.217q-5.747,5.633-11.5,11.26a3.315,3.315,0,0,0-1.093,2.521c.017,2.126.007,4.253,0,6.38a2.22,2.22,0,0,1-2.421,2.4q-6.257,0-12.515,0A2.229,2.229,0,0,1,3.7,47.837c-.006-2.143-.016-4.286.005-6.429a3.391,3.391,0,0,0-.827-2.292A11.906,11.906,0,0,1,.019,31.365q-.033-9.447,0-18.895a3.625,3.625,0,0,1,5.55-3.213c.054.03.113.052.248.114,0-.942,0-1.832,0-2.721a3.623,3.623,0,0,1,1-2.584,3.578,3.578,0,0,1,4.4-.7l.241.131a16.219,16.219,0,0,1,.849-1.96A3.7,3.7,0,0,1,14.67,0Z" transform="translate(0)" fill="#fff"/>
        <path id="Trazado_832745" data-name="Trazado 832745" d="M211.5,46.851l-6.118-10.6-6.1,10.561c.244.012.416.027.588.027q3.483,0,6.966,0c.164,0,.328-.005.49.007a.709.709,0,0,1,.728.7.76.76,0,0,1-.72.786,6.253,6.253,0,0,1-.637.008q-3.556,0-7.113,0a1.565,1.565,0,0,1-1.466-2.527q2.9-5.032,5.8-10.058a1.561,1.561,0,0,1,2.92.008q2.905,5.028,5.8,10.059a1.608,1.608,0,0,1-.03,1.959,2.07,2.07,0,0,1-2.082.5.689.689,0,0,1-.535-.783.673.673,0,0,1,.677-.651c.238-.019.478,0,.822,0" transform="translate(-171.861 -30.198)" fill="#fff"/>
        <path id="Trazado_832746" data-name="Trazado 832746" d="M249.628,71.054a6.181,6.181,0,0,1,.007-.828.765.765,0,0,1,1.527.011,11.741,11.741,0,0,1,0,1.609.775.775,0,0,1-.771.736.8.8,0,0,1-.764-.748,7.163,7.163,0,0,1-.005-.78h0" transform="translate(-216.881 -60.402)" fill="#fff"/>
        <path id="Trazado_832747" data-name="Trazado 832747" d="M251.251,105.28a.772.772,0,0,1-1.543-.033.772.772,0,0,1,1.543.033" transform="translate(-216.962 -90.805)" fill="#fff"/>
      </g>
    </g>
    <g id="Grupo_1082722" data-name="Grupo 1082722" transform="translate(972.064 981.665)">
      <g id="Grupo_1082721" data-name="Grupo 1082721" clip-path="url(#clip-path-8)">
        <path id="Trazado_832748" data-name="Trazado 832748" d="M14.4,41.26c-.064.16-.111.291-.167.418a3.466,3.466,0,0,1-3.25,2.289c-2.494.048-4.989.043-7.483,0A3.583,3.583,0,0,1,.013,40.5C0,40.329,0,40.153,0,39.978Q0,28.634.012,17.291a4.591,4.591,0,0,1,.265-1.685,3.506,3.506,0,0,1,3.433-2.311c2.366-.031,4.733-.022,7.1,0a3.683,3.683,0,0,1,3.662,3.086.886.886,0,0,0,.2-.1c.582-.5,1.168-1,1.737-1.511a5.939,5.939,0,0,0,1.753-3.685c.432-2.7.907-5.385,1.364-8.077A3.6,3.6,0,0,1,24.183.178a6.089,6.089,0,0,1,4.056,4.548,16.174,16.174,0,0,1,.247,6.377c-.1.776-.25,1.544-.377,2.316a1.05,1.05,0,0,0,1.021,1.314c.175.014.351.01.527.01q5.949,0,11.9,0a4.7,4.7,0,0,1,2.884.866,4.12,4.12,0,0,1-.672,7.053c-.157.076-.318.145-.513.233a4.215,4.215,0,0,1-2.748,6.655,4.227,4.227,0,0,1,.411,3.862,4.175,4.175,0,0,1-2.911,2.556c.073.141.133.263.2.382a4.131,4.131,0,0,1-3.53,6.185c-5.325.046-10.65.018-15.975,0a8.385,8.385,0,0,1-3.809-1.017L14.4,41.26m.126-12.254c0,3.246,0,6.491.008,9.736a.714.714,0,0,0,.19.526,8.1,8.1,0,0,0,4.5,1.437c5.069-.01,10.138,0,15.207,0a2.325,2.325,0,1,0,.036-4.643c-1.1-.014-2.207,0-3.31,0a3.384,3.384,0,0,1-.478-.022.911.911,0,0,1-.027-1.807,3.217,3.217,0,0,1,.526-.022c2,0,4,.016,6-.018a2.261,2.261,0,0,0,2.2-2.319,2.306,2.306,0,0,0-2.244-2.291c-.831-.023-1.663-.007-2.494-.008-.672,0-1.344.015-2.015-.008a.914.914,0,1,1,.011-1.828c.144-.008.288,0,.432,0,2.175,0,4.35,0,6.524,0a4.368,4.368,0,0,0,.858-.074,2.322,2.322,0,0,0-.623-4.58c-1.455-.01-2.91,0-4.365-.007a.913.913,0,0,1-.972-1.119.948.948,0,0,1,1.049-.716c2.159,0,4.318.009,6.476-.007A2.311,2.311,0,0,0,44.263,19.3a2.2,2.2,0,0,0-1.46-2.509,3.841,3.841,0,0,0-1.266-.191c-3.982-.014-7.964-.007-11.945-.01a6.569,6.569,0,0,1-.813-.042,2.882,2.882,0,0,1-2.487-3.372c.172-1.039.365-2.079.46-3.127a12.322,12.322,0,0,0-.423-5.31A4.225,4.225,0,0,0,23.7,1.946,1.719,1.719,0,0,0,21.424,3.11a7.569,7.569,0,0,0-.137.847c-.434,2.485-.912,4.964-1.291,7.457a8.005,8.005,0,0,1-3.007,5.323c-.739.584-1.423,1.238-2.149,1.841a.8.8,0,0,0-.317.692c.011,3.246.007,6.491.007,9.736M1.841,28.612q0,5.706,0,11.411c0,1.458.676,2.125,2.148,2.125h6.57a1.875,1.875,0,0,0,2.12-2.119q0-11.387,0-22.775a1.869,1.869,0,0,0-2.092-2.1q-3.333-.008-6.666,0a1.839,1.839,0,0,0-2.08,2.1q0,5.682,0,11.363" transform="translate(0 -0.001)" fill="#fff"/>
      </g>
    </g>
  </g>
</svg>
